<mxfile host="app.diagrams.net" agent="Mozilla/5.0 (Windows NT 10.0; Win64; x64) AppleWebKit/537.36 (KHTML, like Gecko) Chrome/131.0.0.0 Safari/537.36" version="24.8.4">
  <diagram id="Ht1M8jgEwFfnCIfOTk4-" name="Page-1">
    <mxGraphModel dx="3457" dy="1900" grid="1" gridSize="10" guides="1" tooltips="1" connect="1" arrows="1" fold="1" page="1" pageScale="1" pageWidth="1169" pageHeight="827" math="0" shadow="0">
      <root>
        <mxCell id="0" />
        <mxCell id="1" parent="0" />
        <mxCell id="9LKjIYX2LTl6GW-Dy-BZ-23" value="AWS Architecture" style="points=[[0,0],[0.25,0],[0.5,0],[0.75,0],[1,0],[1,0.25],[1,0.5],[1,0.75],[1,1],[0.75,1],[0.5,1],[0.25,1],[0,1],[0,0.75],[0,0.5],[0,0.25]];outlineConnect=0;gradientColor=none;html=1;whiteSpace=wrap;fontSize=12;fontStyle=0;container=0;pointerEvents=0;collapsible=0;recursiveResize=0;shape=mxgraph.aws4.group;grIcon=mxgraph.aws4.group_aws_cloud_alt;strokeColor=#232F3E;fillColor=none;verticalAlign=top;align=left;spacingLeft=30;fontColor=#232F3E;dashed=0;movable=1;resizable=1;rotatable=1;deletable=1;editable=1;locked=0;connectable=1;" parent="1" vertex="1">
          <mxGeometry x="1174" y="7" width="1160" height="820" as="geometry" />
        </mxCell>
        <mxCell id="UEzPUAAOIrF-is8g5C7q-127" style="edgeStyle=orthogonalEdgeStyle;rounded=0;orthogonalLoop=1;jettySize=auto;html=1;startArrow=open;startFill=0;endArrow=open;endFill=0;strokeWidth=2;strokeColor=#808080;entryX=0;entryY=0.5;entryDx=0;entryDy=0;entryPerimeter=0;exitX=1;exitY=0.5;exitDx=0;exitDy=0;exitPerimeter=0;" parent="1" source="R_C3rDkhEvSJBjkLdpXc-17" target="R_C3rDkhEvSJBjkLdpXc-10" edge="1">
          <mxGeometry relative="1" as="geometry">
            <mxPoint x="184.04398826979468" y="413.98" as="sourcePoint" />
            <mxPoint x="344" y="414.0019941348975" as="targetPoint" />
          </mxGeometry>
        </mxCell>
        <mxCell id="UEzPUAAOIrF-is8g5C7q-130" style="edgeStyle=orthogonalEdgeStyle;rounded=0;orthogonalLoop=1;jettySize=auto;html=1;startArrow=open;startFill=0;endArrow=open;endFill=0;strokeWidth=2;strokeColor=#808080;" parent="1" source="R_C3rDkhEvSJBjkLdpXc-30" target="UEzPUAAOIrF-is8g5C7q-116" edge="1">
          <mxGeometry relative="1" as="geometry">
            <Array as="points">
              <mxPoint x="570" y="259" />
            </Array>
            <mxPoint x="650" y="250" as="sourcePoint" />
          </mxGeometry>
        </mxCell>
        <mxCell id="UEzPUAAOIrF-is8g5C7q-131" style="edgeStyle=orthogonalEdgeStyle;rounded=0;orthogonalLoop=1;jettySize=auto;html=1;startArrow=open;startFill=0;endArrow=open;endFill=0;strokeWidth=2;strokeColor=#808080;" parent="1" source="R_C3rDkhEvSJBjkLdpXc-30" target="9LKjIYX2LTl6GW-Dy-BZ-7" edge="1">
          <mxGeometry relative="1" as="geometry">
            <Array as="points" />
            <mxPoint x="592.499112850026" y="493.2472413793105" as="sourcePoint" />
            <mxPoint x="734.5000000000005" y="294.21275862068967" as="targetPoint" />
          </mxGeometry>
        </mxCell>
        <mxCell id="UEzPUAAOIrF-is8g5C7q-116" value="&lt;b&gt;Amazon S3&lt;/b&gt;" style="outlineConnect=0;fontColor=#232F3E;gradientColor=#60A337;gradientDirection=north;fillColor=#277116;strokeColor=#ffffff;dashed=0;verticalLabelPosition=bottom;verticalAlign=top;align=center;html=1;fontSize=12;fontStyle=0;aspect=fixed;shape=mxgraph.aws4.resourceIcon;resIcon=mxgraph.aws4.s3;labelBackgroundColor=#ffffff;container=0;" parent="1" vertex="1">
          <mxGeometry x="994.0000000000002" y="220" width="78" height="78" as="geometry" />
        </mxCell>
        <mxCell id="UEzPUAAOIrF-is8g5C7q-121" value="&lt;b&gt;Amazon&lt;br&gt;CloudWatch&lt;/b&gt;" style="outlineConnect=0;fontColor=#232F3E;gradientColor=#F34482;gradientDirection=north;fillColor=#BC1356;strokeColor=#ffffff;dashed=0;verticalLabelPosition=bottom;verticalAlign=top;align=center;html=1;fontSize=12;fontStyle=0;aspect=fixed;shape=mxgraph.aws4.resourceIcon;resIcon=mxgraph.aws4.cloudwatch;labelBackgroundColor=#ffffff;container=0;" parent="1" vertex="1">
          <mxGeometry x="994.0000000000002" y="375" width="78" height="78" as="geometry" />
        </mxCell>
        <mxCell id="9LKjIYX2LTl6GW-Dy-BZ-4" style="edgeStyle=orthogonalEdgeStyle;rounded=0;orthogonalLoop=1;jettySize=auto;html=1;startArrow=open;startFill=0;endArrow=open;endFill=0;strokeWidth=2;strokeColor=#808080;" parent="1" source="R_C3rDkhEvSJBjkLdpXc-13" target="R_C3rDkhEvSJBjkLdpXc-30" edge="1">
          <mxGeometry relative="1" as="geometry">
            <Array as="points">
              <mxPoint x="740" y="539" />
              <mxPoint x="740" y="471" />
            </Array>
            <mxPoint x="619" y="549" as="sourcePoint" />
            <mxPoint x="619" y="462.74" as="targetPoint" />
          </mxGeometry>
        </mxCell>
        <mxCell id="9LKjIYX2LTl6GW-Dy-BZ-7" value="Amazon RDS" style="sketch=0;outlineConnect=0;fontColor=#232F3E;gradientColor=none;strokeColor=#ffffff;fillColor=#232F3E;dashed=0;verticalLabelPosition=middle;verticalAlign=bottom;align=center;html=1;whiteSpace=wrap;fontSize=10;fontStyle=1;spacing=3;shape=mxgraph.aws4.productIcon;prIcon=mxgraph.aws4.rds;container=0;" parent="1" vertex="1">
          <mxGeometry x="808" y="364" width="80" height="100" as="geometry" />
        </mxCell>
        <mxCell id="9LKjIYX2LTl6GW-Dy-BZ-21" value="VPC" style="points=[[0,0],[0.25,0],[0.5,0],[0.75,0],[1,0],[1,0.25],[1,0.5],[1,0.75],[1,1],[0.75,1],[0.5,1],[0.25,1],[0,1],[0,0.75],[0,0.5],[0,0.25]];outlineConnect=0;gradientColor=none;html=1;whiteSpace=wrap;fontSize=12;fontStyle=0;container=0;pointerEvents=0;collapsible=0;recursiveResize=0;shape=mxgraph.aws4.group;grIcon=mxgraph.aws4.group_vpc2;strokeColor=#8C4FFF;fillColor=none;verticalAlign=top;align=left;spacingLeft=30;fontColor=#AAB7B8;dashed=0;" parent="1" vertex="1">
          <mxGeometry x="130" y="179" width="774" height="470" as="geometry" />
        </mxCell>
        <mxCell id="uXzf4WKIqKy5rJehZ9Xc-33" style="edgeStyle=orthogonalEdgeStyle;rounded=0;orthogonalLoop=1;jettySize=auto;html=1;startArrow=open;startFill=0;endArrow=open;endFill=0;strokeWidth=2;strokeColor=#808080;" parent="1" source="R_C3rDkhEvSJBjkLdpXc-10" target="R_C3rDkhEvSJBjkLdpXc-4" edge="1">
          <mxGeometry relative="1" as="geometry">
            <mxPoint x="424" y="414.0085714285714" as="sourcePoint" />
            <mxPoint x="410" y="414" as="targetPoint" />
          </mxGeometry>
        </mxCell>
        <mxCell id="R_C3rDkhEvSJBjkLdpXc-9" value="" style="group" parent="1" vertex="1" connectable="0">
          <mxGeometry x="330" y="439.02" width="69" height="107.98000000000002" as="geometry" />
        </mxCell>
        <mxCell id="R_C3rDkhEvSJBjkLdpXc-4" value="" style="outlineConnect=0;dashed=0;verticalLabelPosition=bottom;verticalAlign=top;align=center;html=1;shape=mxgraph.aws3.application_load_balancer;fillColor=#F58534;gradientColor=none;" parent="R_C3rDkhEvSJBjkLdpXc-9" vertex="1">
          <mxGeometry width="69" height="72" as="geometry" />
        </mxCell>
        <mxCell id="R_C3rDkhEvSJBjkLdpXc-8" value="&lt;b&gt;Application Load Balancer&lt;/b&gt;" style="text;html=1;align=center;verticalAlign=middle;whiteSpace=wrap;rounded=0;" parent="R_C3rDkhEvSJBjkLdpXc-9" vertex="1">
          <mxGeometry x="4.5" y="77.98000000000002" width="60" height="30" as="geometry" />
        </mxCell>
        <mxCell id="R_C3rDkhEvSJBjkLdpXc-12" value="" style="group" parent="1" vertex="1" connectable="0">
          <mxGeometry x="200" y="440" width="78" height="107" as="geometry" />
        </mxCell>
        <mxCell id="R_C3rDkhEvSJBjkLdpXc-10" value="" style="sketch=0;points=[[0,0,0],[0.25,0,0],[0.5,0,0],[0.75,0,0],[1,0,0],[0,1,0],[0.25,1,0],[0.5,1,0],[0.75,1,0],[1,1,0],[0,0.25,0],[0,0.5,0],[0,0.75,0],[1,0.25,0],[1,0.5,0],[1,0.75,0]];outlineConnect=0;fontColor=#232F3E;fillColor=#8C4FFF;strokeColor=#ffffff;dashed=0;verticalLabelPosition=bottom;verticalAlign=top;align=center;html=1;fontSize=12;fontStyle=0;aspect=fixed;shape=mxgraph.aws4.resourceIcon;resIcon=mxgraph.aws4.route_53;" parent="R_C3rDkhEvSJBjkLdpXc-12" vertex="1">
          <mxGeometry width="78" height="78" as="geometry" />
        </mxCell>
        <mxCell id="R_C3rDkhEvSJBjkLdpXc-11" value="&lt;b&gt;Route 53&lt;/b&gt;" style="text;html=1;align=center;verticalAlign=middle;whiteSpace=wrap;rounded=0;" parent="R_C3rDkhEvSJBjkLdpXc-12" vertex="1">
          <mxGeometry x="9" y="77" width="60" height="30" as="geometry" />
        </mxCell>
        <mxCell id="R_C3rDkhEvSJBjkLdpXc-15" value="" style="group" parent="1" vertex="1" connectable="0">
          <mxGeometry x="810" y="500" width="78" height="109" as="geometry" />
        </mxCell>
        <mxCell id="R_C3rDkhEvSJBjkLdpXc-13" value="" style="sketch=0;points=[[0,0,0],[0.25,0,0],[0.5,0,0],[0.75,0,0],[1,0,0],[0,1,0],[0.25,1,0],[0.5,1,0],[0.75,1,0],[1,1,0],[0,0.25,0],[0,0.5,0],[0,0.75,0],[1,0.25,0],[1,0.5,0],[1,0.75,0]];outlineConnect=0;fontColor=#232F3E;fillColor=#ED7100;strokeColor=#ffffff;dashed=0;verticalLabelPosition=bottom;verticalAlign=top;align=center;html=1;fontSize=12;fontStyle=0;aspect=fixed;shape=mxgraph.aws4.resourceIcon;resIcon=mxgraph.aws4.ecr;" parent="R_C3rDkhEvSJBjkLdpXc-15" vertex="1">
          <mxGeometry width="78" height="78" as="geometry" />
        </mxCell>
        <mxCell id="R_C3rDkhEvSJBjkLdpXc-14" value="&lt;b&gt;Amazon ECR&lt;/b&gt;" style="text;html=1;align=center;verticalAlign=middle;whiteSpace=wrap;rounded=0;" parent="R_C3rDkhEvSJBjkLdpXc-15" vertex="1">
          <mxGeometry x="9" y="79" width="60" height="30" as="geometry" />
        </mxCell>
        <mxCell id="R_C3rDkhEvSJBjkLdpXc-19" value="" style="group" parent="1" vertex="1" connectable="0">
          <mxGeometry x="20" y="440" width="78" height="108" as="geometry" />
        </mxCell>
        <mxCell id="R_C3rDkhEvSJBjkLdpXc-17" value="" style="sketch=0;points=[[0,0,0],[0.25,0,0],[0.5,0,0],[0.75,0,0],[1,0,0],[0,1,0],[0.25,1,0],[0.5,1,0],[0.75,1,0],[1,1,0],[0,0.25,0],[0,0.5,0],[0,0.75,0],[1,0.25,0],[1,0.5,0],[1,0.75,0]];outlineConnect=0;fontColor=#232F3E;fillColor=#01A88D;strokeColor=#ffffff;dashed=0;verticalLabelPosition=bottom;verticalAlign=top;align=center;html=1;fontSize=12;fontStyle=0;aspect=fixed;shape=mxgraph.aws4.resourceIcon;resIcon=mxgraph.aws4.desktop_and_app_streaming;" parent="R_C3rDkhEvSJBjkLdpXc-19" vertex="1">
          <mxGeometry width="78" height="78" as="geometry" />
        </mxCell>
        <mxCell id="R_C3rDkhEvSJBjkLdpXc-18" value="&lt;b&gt;Web Application&lt;/b&gt;" style="text;html=1;align=center;verticalAlign=middle;whiteSpace=wrap;rounded=0;" parent="R_C3rDkhEvSJBjkLdpXc-19" vertex="1">
          <mxGeometry x="9" y="78" width="60" height="30" as="geometry" />
        </mxCell>
        <mxCell id="R_C3rDkhEvSJBjkLdpXc-20" style="edgeStyle=orthogonalEdgeStyle;rounded=0;orthogonalLoop=1;jettySize=auto;html=1;startArrow=open;startFill=0;endArrow=open;endFill=0;strokeWidth=2;strokeColor=#808080;exitX=1;exitY=0.5;exitDx=0;exitDy=0;" parent="1" source="9LKjIYX2LTl6GW-Dy-BZ-21" target="UEzPUAAOIrF-is8g5C7q-121" edge="1">
          <mxGeometry relative="1" as="geometry">
            <mxPoint x="914" y="414.98" as="sourcePoint" />
            <mxPoint x="1004" y="414.56" as="targetPoint" />
          </mxGeometry>
        </mxCell>
        <mxCell id="R_C3rDkhEvSJBjkLdpXc-30" value="EC2 instance contents" style="points=[[0,0],[0.25,0],[0.5,0],[0.75,0],[1,0],[1,0.25],[1,0.5],[1,0.75],[1,1],[0.75,1],[0.5,1],[0.25,1],[0,1],[0,0.75],[0,0.5],[0,0.25]];outlineConnect=0;gradientColor=none;html=1;whiteSpace=wrap;fontSize=12;fontStyle=0;container=1;pointerEvents=0;collapsible=0;recursiveResize=0;shape=mxgraph.aws4.group;grIcon=mxgraph.aws4.group_ec2_instance_contents;strokeColor=#D86613;fillColor=none;verticalAlign=top;align=left;spacingLeft=30;fontColor=#D86613;dashed=0;" parent="1" vertex="1">
          <mxGeometry x="460" y="300" width="210" height="342" as="geometry" />
        </mxCell>
        <mxCell id="R_C3rDkhEvSJBjkLdpXc-28" value="" style="group" parent="R_C3rDkhEvSJBjkLdpXc-30" vertex="1" connectable="0">
          <mxGeometry x="66" y="150" width="78" height="108" as="geometry" />
        </mxCell>
        <mxCell id="R_C3rDkhEvSJBjkLdpXc-22" value="" style="sketch=0;points=[[0,0,0],[0.25,0,0],[0.5,0,0],[0.75,0,0],[1,0,0],[0,1,0],[0.25,1,0],[0.5,1,0],[0.75,1,0],[1,1,0],[0,0.25,0],[0,0.5,0],[0,0.75,0],[1,0.25,0],[1,0.5,0],[1,0.75,0]];outlineConnect=0;fontColor=#232F3E;fillColor=#ED7100;strokeColor=#ffffff;dashed=0;verticalLabelPosition=bottom;verticalAlign=top;align=center;html=1;fontSize=12;fontStyle=0;aspect=fixed;shape=mxgraph.aws4.resourceIcon;resIcon=mxgraph.aws4.fargate;" parent="R_C3rDkhEvSJBjkLdpXc-28" vertex="1">
          <mxGeometry width="78" height="78" as="geometry" />
        </mxCell>
        <mxCell id="R_C3rDkhEvSJBjkLdpXc-26" value="&lt;b&gt;Fargate&lt;/b&gt;" style="text;html=1;align=center;verticalAlign=middle;whiteSpace=wrap;rounded=0;" parent="R_C3rDkhEvSJBjkLdpXc-28" vertex="1">
          <mxGeometry x="9" y="78" width="60" height="30" as="geometry" />
        </mxCell>
        <mxCell id="R_C3rDkhEvSJBjkLdpXc-29" value="" style="group" parent="R_C3rDkhEvSJBjkLdpXc-30" vertex="1" connectable="0">
          <mxGeometry x="75" y="264" width="60" height="78" as="geometry" />
        </mxCell>
        <mxCell id="R_C3rDkhEvSJBjkLdpXc-21" value="" style="sketch=0;outlineConnect=0;fontColor=#232F3E;gradientColor=none;fillColor=#ED7100;strokeColor=none;dashed=0;verticalLabelPosition=bottom;verticalAlign=top;align=center;html=1;fontSize=12;fontStyle=0;aspect=fixed;pointerEvents=1;shape=mxgraph.aws4.ecs_task;" parent="R_C3rDkhEvSJBjkLdpXc-29" vertex="1">
          <mxGeometry x="11.5" width="37" height="48" as="geometry" />
        </mxCell>
        <mxCell id="R_C3rDkhEvSJBjkLdpXc-27" value="&lt;b&gt;Task&lt;/b&gt;" style="text;html=1;align=center;verticalAlign=middle;whiteSpace=wrap;rounded=0;" parent="R_C3rDkhEvSJBjkLdpXc-29" vertex="1">
          <mxGeometry y="48" width="60" height="30" as="geometry" />
        </mxCell>
        <mxCell id="R_C3rDkhEvSJBjkLdpXc-2" value="" style="group" parent="R_C3rDkhEvSJBjkLdpXc-30" vertex="1" connectable="0">
          <mxGeometry x="66" y="30.000000000000014" width="78" height="108" as="geometry" />
        </mxCell>
        <mxCell id="uXzf4WKIqKy5rJehZ9Xc-38" value="" style="sketch=0;points=[[0,0,0],[0.25,0,0],[0.5,0,0],[0.75,0,0],[1,0,0],[0,1,0],[0.25,1,0],[0.5,1,0],[0.75,1,0],[1,1,0],[0,0.25,0],[0,0.5,0],[0,0.75,0],[1,0.25,0],[1,0.5,0],[1,0.75,0]];outlineConnect=0;fontColor=#232F3E;fillColor=#ED7100;strokeColor=#ffffff;dashed=0;verticalLabelPosition=bottom;verticalAlign=top;align=center;html=1;fontSize=12;fontStyle=0;aspect=fixed;shape=mxgraph.aws4.resourceIcon;resIcon=mxgraph.aws4.ecs;" parent="R_C3rDkhEvSJBjkLdpXc-2" vertex="1">
          <mxGeometry width="78" height="78" as="geometry" />
        </mxCell>
        <mxCell id="R_C3rDkhEvSJBjkLdpXc-1" value="&lt;b&gt;Amazon ECS&lt;/b&gt;" style="text;html=1;align=center;verticalAlign=middle;whiteSpace=wrap;rounded=0;" parent="R_C3rDkhEvSJBjkLdpXc-2" vertex="1">
          <mxGeometry x="9" y="78" width="60" height="30" as="geometry" />
        </mxCell>
        <mxCell id="uXzf4WKIqKy5rJehZ9Xc-16" style="edgeStyle=orthogonalEdgeStyle;rounded=0;orthogonalLoop=1;jettySize=auto;html=1;startArrow=open;startFill=0;endArrow=open;endFill=0;strokeWidth=2;strokeColor=#808080;" parent="1" source="R_C3rDkhEvSJBjkLdpXc-4" target="R_C3rDkhEvSJBjkLdpXc-30" edge="1">
          <mxGeometry relative="1" as="geometry">
            <mxPoint x="430" y="430" as="sourcePoint" />
            <mxPoint x="511" y="488" as="targetPoint" />
          </mxGeometry>
        </mxCell>
        <mxCell id="DnVlFltGNtRPwftVO5e9-2" value="EC2 instance contents" style="points=[[0,0],[0.25,0],[0.5,0],[0.75,0],[1,0],[1,0.25],[1,0.5],[1,0.75],[1,1],[0.75,1],[0.5,1],[0.25,1],[0,1],[0,0.75],[0,0.5],[0,0.25]];outlineConnect=0;gradientColor=none;html=1;whiteSpace=wrap;fontSize=12;fontStyle=0;container=1;pointerEvents=0;collapsible=0;recursiveResize=0;shape=mxgraph.aws4.group;grIcon=mxgraph.aws4.group_ec2_instance_contents;strokeColor=#D86613;fillColor=none;verticalAlign=top;align=left;spacingLeft=30;fontColor=#D86613;dashed=0;" vertex="1" parent="1">
          <mxGeometry x="1180" y="40" width="500" height="780" as="geometry" />
        </mxCell>
        <mxCell id="DnVlFltGNtRPwftVO5e9-12" value="&lt;b&gt;&lt;font color=&quot;#000000&quot;&gt;ECS Instance- Web App&lt;/font&gt;&lt;/b&gt;" style="outlineConnect=0;gradientColor=none;html=1;whiteSpace=wrap;fontSize=12;fontStyle=0;strokeColor=#858B94;fillColor=none;verticalAlign=top;align=center;fontColor=#858B94;dashed=1;spacingTop=3;" vertex="1" parent="DnVlFltGNtRPwftVO5e9-2">
          <mxGeometry x="10" y="30" width="410" height="260" as="geometry" />
        </mxCell>
        <mxCell id="DnVlFltGNtRPwftVO5e9-9" value="" style="group" vertex="1" connectable="0" parent="DnVlFltGNtRPwftVO5e9-2">
          <mxGeometry x="176" y="60.000000000000014" width="294" height="280" as="geometry" />
        </mxCell>
        <mxCell id="DnVlFltGNtRPwftVO5e9-10" value="" style="sketch=0;points=[[0,0,0],[0.25,0,0],[0.5,0,0],[0.75,0,0],[1,0,0],[0,1,0],[0.25,1,0],[0.5,1,0],[0.75,1,0],[1,1,0],[0,0.25,0],[0,0.5,0],[0,0.75,0],[1,0.25,0],[1,0.5,0],[1,0.75,0]];outlineConnect=0;fontColor=#232F3E;fillColor=#ED7100;strokeColor=#ffffff;dashed=0;verticalLabelPosition=bottom;verticalAlign=top;align=center;html=1;fontSize=12;fontStyle=0;aspect=fixed;shape=mxgraph.aws4.resourceIcon;resIcon=mxgraph.aws4.ecs;" vertex="1" parent="DnVlFltGNtRPwftVO5e9-9">
          <mxGeometry width="78" height="78" as="geometry" />
        </mxCell>
        <mxCell id="DnVlFltGNtRPwftVO5e9-11" value="&lt;b&gt;Amazon ECS&lt;/b&gt;" style="text;html=1;align=center;verticalAlign=middle;whiteSpace=wrap;rounded=0;" vertex="1" parent="DnVlFltGNtRPwftVO5e9-9">
          <mxGeometry x="9" y="78" width="60" height="30" as="geometry" />
        </mxCell>
        <mxCell id="DnVlFltGNtRPwftVO5e9-15" value="&lt;b&gt;&lt;font color=&quot;#000000&quot;&gt;ECS Instance- API&lt;/font&gt;&lt;/b&gt;" style="outlineConnect=0;gradientColor=none;html=1;whiteSpace=wrap;fontSize=12;fontStyle=0;strokeColor=#858B94;fillColor=none;verticalAlign=top;align=center;fontColor=#858B94;dashed=1;spacingTop=3;" vertex="1" parent="DnVlFltGNtRPwftVO5e9-2">
          <mxGeometry x="10" y="420" width="410" height="350" as="geometry" />
        </mxCell>
        <mxCell id="DnVlFltGNtRPwftVO5e9-16" value="" style="group" vertex="1" connectable="0" parent="DnVlFltGNtRPwftVO5e9-2">
          <mxGeometry x="176" y="450" width="244" height="108" as="geometry" />
        </mxCell>
        <mxCell id="DnVlFltGNtRPwftVO5e9-17" value="" style="sketch=0;points=[[0,0,0],[0.25,0,0],[0.5,0,0],[0.75,0,0],[1,0,0],[0,1,0],[0.25,1,0],[0.5,1,0],[0.75,1,0],[1,1,0],[0,0.25,0],[0,0.5,0],[0,0.75,0],[1,0.25,0],[1,0.5,0],[1,0.75,0]];outlineConnect=0;fontColor=#232F3E;fillColor=#ED7100;strokeColor=#ffffff;dashed=0;verticalLabelPosition=bottom;verticalAlign=top;align=center;html=1;fontSize=12;fontStyle=0;aspect=fixed;shape=mxgraph.aws4.resourceIcon;resIcon=mxgraph.aws4.ecs;" vertex="1" parent="DnVlFltGNtRPwftVO5e9-16">
          <mxGeometry width="78" height="78" as="geometry" />
        </mxCell>
        <mxCell id="DnVlFltGNtRPwftVO5e9-18" value="&lt;b&gt;Amazon ECS&lt;/b&gt;" style="text;html=1;align=center;verticalAlign=middle;whiteSpace=wrap;rounded=0;" vertex="1" parent="DnVlFltGNtRPwftVO5e9-16">
          <mxGeometry x="9" y="78" width="60" height="30" as="geometry" />
        </mxCell>
        <mxCell id="DnVlFltGNtRPwftVO5e9-21" value="" style="group" vertex="1" connectable="0" parent="DnVlFltGNtRPwftVO5e9-2">
          <mxGeometry x="40" y="180" width="84.86000000000001" height="110" as="geometry" />
        </mxCell>
        <mxCell id="DnVlFltGNtRPwftVO5e9-13" value="" style="shape=image;verticalLabelPosition=bottom;labelBackgroundColor=default;verticalAlign=top;aspect=fixed;imageAspect=0;image=data:image/svg+xml,PHN2ZyB4bWxucz0iaHR0cDovL3d3dy53My5vcmcvMjAwMC9zdmciIGZpbGw9IiMxNDlFQ0EiIHZpZXdCb3g9Ii0xMC41IC05LjQ1IDIxIDE4LjkiIGhlaWdodD0iMTAwJSIgd2lkdGg9IjEwMCUiPiYjeGE7ICAgIDxjaXJjbGUgcj0iMiIgY3k9IjAiIGN4PSIwIi8+JiN4YTsgICAgPGcgZmlsbD0ibm9uZSIgc3Ryb2tlLXdpZHRoPSIxIiBzdHJva2U9IiMxNDlFQ0EiPiYjeGE7ICAgICAgICA8ZWxsaXBzZSByeT0iNC41IiByeD0iMTAiLz4mI3hhOyAgICAgICAgPGVsbGlwc2UgdHJhbnNmb3JtPSJyb3RhdGUoNjApIiByeT0iNC41IiByeD0iMTAiLz4mI3hhOyAgICAgICAgPGVsbGlwc2UgdHJhbnNmb3JtPSJyb3RhdGUoMTIwKSIgcnk9IjQuNSIgcng9IjEwIi8+JiN4YTsgICAgPC9nPiYjeGE7PC9zdmc+;" vertex="1" parent="DnVlFltGNtRPwftVO5e9-21">
          <mxGeometry width="84.86" height="76.78" as="geometry" />
        </mxCell>
        <mxCell id="DnVlFltGNtRPwftVO5e9-14" value="React" style="text;html=1;align=center;verticalAlign=middle;whiteSpace=wrap;rounded=0;" vertex="1" parent="DnVlFltGNtRPwftVO5e9-21">
          <mxGeometry x="12.430000000000007" y="80" width="60" height="30" as="geometry" />
        </mxCell>
        <mxCell id="DnVlFltGNtRPwftVO5e9-22" value="" style="shape=image;verticalLabelPosition=bottom;labelBackgroundColor=default;verticalAlign=top;aspect=fixed;imageAspect=0;image=data:image/svg+xml,PHN2ZyB4bWxucz0iaHR0cDovL3d3dy53My5vcmcvMjAwMC9zdmciIHZpZXdCb3g9IjUyLjQ4IDQ5LjQgMzQ2LjU1IDY0LjAyIiBpZD0ic3ZnOCIgdmVyc2lvbj0iMS4xIj4mI3hhOyAgPGRlZnMgaWQ9ImRlZnMyIi8+JiN4YTsgIDxtZXRhZGF0YSBpZD0ibWV0YWRhdGE1Ij4mI3hhOyAgICAmI3hhOyAgICAgICYjeGE7ICAgICAgICBpbWFnZS9zdmcreG1sJiN4YTsgICAgICAgICYjeGE7ICAgICAgJiN4YTsgICAgJiN4YTsgIDwvbWV0YWRhdGE+JiN4YTsgIDxnIHRyYW5zZm9ybT0idHJhbnNsYXRlKDUyLjQ5OTU5Niw0OS40MjI0MjUpIiBpZD0iZzIiPiYjeGE7ICAgIDxnIHRyYW5zZm9ybT0ibWF0cml4KDAuOTY1NjQyNjQsMCwwLDAuOTYyNTE5ODcsLTg5OS4zMjk1LDE5NC44Njg3NCkiIGlkPSJnMjEwNiI+JiN4YTsgICAgICA8Y2lyY2xlIHI9IjMzLjIzNDE5MiIgY3k9Ii0xNjkuMjIyNjYiIGN4PSI5NjQuNTYxNjUiIGlkPSJwYXRoODc1LTUtOS03LTMtMi0zLTktOS04LTAtMC01LTg3LTciIHN0eWxlPSJmaWxsOiMwMDk2ODg7ZmlsbC1vcGFjaXR5OjAuOTgwMzkyO3N0cm9rZTpub25lO3N0cm9rZS13aWR0aDowLjE0MTQwNDtzdG9wLWNvbG9yOiMwMDAwMDAiLz4mI3hhOyAgICAgIDxwYXRoIGQ9Im0gOTYyLjI2ODUsLTE4Ny40MDgzNyAtNi42NDQwMywxNC44MDM3NSAtMy4wMzU5OSw2Ljc2MzkzIC02LjY0NDU2LDE0LjgwMzc1IDMwLjU5MTQyLC0yMS41Njc2OCBoIC0xNC4zNTMxMiBsIDIwLjk5NzE1LC0xNC44MDM3NSB6IiBzdHlsZT0iZmlsbDojZmZmZmZmO2ZpbGwtb3BhY2l0eTowLjk4MDM5MjtzdHJva2U6bm9uZTtzdHJva2Utd2lkdGg6MC4xNDY4OTU7c3RvcC1jb2xvcjojMDAwMDAwIiBpZD0icmVjdDEyNDktNi0zLTQtNC0zLTYtNi0xLTIiLz4mI3hhOyAgICA8L2c+JiN4YTsgICAgPHBhdGggYXJpYS1sYWJlbD0iRmFzdEFQSSIgaWQ9InRleHQ5NzktMSIgZD0iTSA4OS41MjMwMTcsNTkuNDEwNjA2IFYgNC4xNjgwMzk5IEggMTIyLjg0MzkzIFYgMTAuNzg0MzkzIEggOTcuMjU1MzgyIFYgMjcuNDQ0ODUgaCAyMi43MTg4MDggdiA2LjUzNjYzOCBIIDk3LjI1NTM4MiB2IDI1LjQyOTExOCB6IG0gNTIuMjkyOTYzLC01LjM0MDkxMiBxIDIuNjMwNiwwIDQuNjIzNDgsLTAuMDc5NzIgMi4wNzI1OSwtMC4xNTk0MyAzLjQyNzc0LC0wLjQ3ODI5IFYgNDEuMTU1ODQ4IHEgLTAuNzk3MTUsLTAuMzk4NTc2IC0yLjYzMDU5LC0wLjYzNzcyMSAtMS43NTM3NCwtMC4zMTg4NiAtNC4zMDQ2MiwtMC4zMTg4NiAtMS42NzQwMiwwIC0zLjU4NzE4LDAuMjM5MTQ1IC0xLjgzMzQ1LDAuMjM5MTQ1IC0zLjQyNzc1LDEuMDM2Mjk2IC0xLjUxNDU5LDAuNzE3NDM2IC0yLjU1MDg4LDIuMDcyNTkzIC0xLjAzNjMsMS4yNzU0NDIgLTEuMDM2MywzLjQyNzc0OSAwLDMuOTg1NzU1IDIuNTUwODksNS41ODAwNTggMi41NTA4OCwxLjUxNDU4NiA2LjkzNTIxLDEuNTE0NTg2IHogbSAtMC42Mzc3MiwtMzcuMTQ3MjM4IHEgNC40NjQwNCwwIDcuNDkzMjIsMS4xOTU3MjcgMy4xMDg4OSwxLjExNjAxMSA0Ljk0MjMzLDMuMjY4MzE5IDEuOTEzMTcsMi4wNzI1OTMgMi43MTAzMiw1LjAyMjA1MiAwLjc5NzE1LDIuODY5NzQzIDAuNzk3MTUsNi4zNzcyMDggViA1OC42OTMxNyBxIC0wLjk1NjU4LDAuMTU5NDMxIC0yLjcxMDMxLDAuNDc4MjkxIC0xLjY3NDAyLDAuMjM5MTQ1IC0zLjgyNjMzLDAuNDc4MjkxIC0yLjE1MjMxLDAuMjM5MTQ1IC00LjcwMzE5LDAuMzk4NTc1IC0yLjQ3MTE3LDAuMjM5MTQ2IC00Ljk0MjM0LDAuMjM5MTQ2IC0zLjUwNzQ2LDAgLTYuNDU2OTIsLTAuNzE3NDM2IC0yLjk0OTQ2LC0wLjcxNzQzNiAtNS4xMDE3NywtMi4yMzIwMjMgLTIuMTUyMywtMS41OTQzMDIgLTMuMzQ4MDMsLTQuMTQ1MTg2IC0xLjE5NTczLC0yLjU1MDg4MyAtMS4xOTU3MywtNi4xMzgwNjMgMCwtMy40Mjc3NDkgMS4zNTUxNiwtNS44OTg5MTcgMS40MzQ4NywtMi40NzExNjggMy44MjYzMiwtMy45ODU3NTUgMi4zOTE0NiwtMS41MTQ1ODcgNS41ODAwNiwtMi4yMzIwMjMgMy4xODg2MSwtMC43MTc0MzYgNi42OTYwNywtMC43MTc0MzYgMS4xMTYwMSwwIDIuMzExNzQsMC4xNTk0MyAxLjE5NTcyLDAuMDc5NzIgMi4yMzIwMiwwLjMxODg2IDEuMTE2MDEsMC4xNTk0MzEgMS45MTMxNiwwLjMxODg2MSAwLjc5NzE1LDAuMTU5NDMgMS4xMTYwMSwwLjIzOTE0NSB2IC0yLjA3MjU5MyBxIDAsLTEuODMzNDQ3IC0wLjM5ODU3LC0zLjU4NzE3OSAtMC4zOTg1OCwtMS44MzM0NDggLTEuNDM0ODcsLTMuMTg4NjA0IC0xLjAzNjMsLTEuNDM0ODcyIC0yLjg2OTc1LC0yLjIzMjAyMyAtMS43NTM3MywtMC44NzY4NjYgLTQuNjIzNDcsLTAuODc2ODY2IC0zLjY2NjksMCAtNi40NTY5MywwLjU1ODAwNSAtMi43MTAzMSwwLjQ3ODI5MSAtNC4wNjU0NywxLjAzNjI5NyBsIC0wLjg3Njg2LC02LjEzODA2MyBxIDEuNDM0ODcsLTAuNjM3NzIxIDQuNzgyOSwtMS4xOTU3MjcgMy4zNDgwNCwtMC42Mzc3MjEgNy4yNTQwOCwtMC42Mzc3MjEgeiBtIDM3Ljg2NDYyLDM3LjE0NzIzOCBxIDQuNTQzNzcsMCA2LjY5NjA3LC0xLjE5NTcyNiAyLjIzMjAzLC0xLjE5NTcyNyAyLjIzMjAzLC0zLjgyNjMyNSAwLC0yLjcxMDMxNCAtMi4xNTIzMSwtNC4zMDQ2MTYgLTIuMTUyMzEsLTEuNTk0MzAyIC03LjA5NDY1LC0zLjU4NzE3OSAtMi4zOTE0NSwtMC45NTY1ODEgLTQuNjIzNDcsLTEuOTEzMTYzIC0yLjE1MjMxLC0xLjAzNjI5NiAtMy43NDY2MSwtMi4zOTE0NTMgLTEuNTk0MywtMS4zNTUxNTcgLTIuNTUwODgsLTMuMjY4MzE5IC0wLjk1NjU5LC0xLjkxMzE2MyAtMC45NTY1OSwtNC43MDMxOTEgMCwtNS41MDAzNDIgNC4wNjU0NywtOC42ODg5NDYgNC4wNjU0NywtMy4yNjgzMiAxMS4wODA0LC0zLjI2ODMyIDEuNzUzNzQsMCAzLjUwNzQ3LDAuMjM5MTQ2IDEuNzUzNzMsMC4xNTk0MyAzLjI2ODMyLDAuNDc4MjkgMS41MTQ1OCwwLjIzOTE0NiAyLjYzMDYsMC41NTgwMDYgMS4xOTU3MiwwLjMxODg2IDEuODMzNDQsMC41NTgwMDYgbCAtMS4zNTUxNSw2LjM3NzIwOCBxIC0xLjE5NTczLC0wLjYzNzcyMSAtMy43NDY2MSwtMS4yNzU0NDIgLTIuNTUwODksLTAuNzE3NDM2IC02LjEzODA3LC0wLjcxNzQzNiAtMy4xMDg4OSwwIC01LjQyMDYyLDEuMjc1NDQyIC0yLjMxMTc0LDEuMTk1NzI3IC0yLjMxMTc0LDMuODI2MzI1IDAsMS4zNTUxNTcgMC40NzgyOSwyLjM5MTQ1MyAwLjU1ODAxLDEuMDM2Mjk2IDEuNTk0MywxLjkxMzE2MyAxLjExNjAxLDAuNzk3MTUxIDIuNzEwMzEsMS41MTQ1ODcgMS41OTQzMSwwLjcxNzQzNiAzLjgyNjMzLDEuNTE0NTg3IDIuOTQ5NDYsMS4xMTYwMTEgNS4yNjEyLDIuMjMyMDIyIDIuMzExNzMsMS4wMzYyOTcgMy45MDYwNCwyLjQ3MTE2OSAxLjY3NDAxLDEuNDM0ODcxIDIuNTUwODgsMy41MDc0NjQgMC44NzY4NywxLjk5Mjg3OCAwLjg3Njg3LDQuOTQyMzM3IDAsNS43Mzk0ODcgLTQuMzA0NjIsOC42ODg5NDYgLTQuMjI0OSwyLjk0OTQ1OSAtMTIuMTE2NywyLjk0OTQ1OSAtNS41MDAzNCwwIC04LjYwOTIzLC0wLjk1NjU4MiAtMy4xMDg4OSwtMC44NzY4NjYgLTQuMjI0OSwtMS4zNTUxNTYgbCAxLjM1NTE2LC02LjM3NzIwOSBxIDEuMjc1NDQsMC40NzgyOTEgNC4wNjU0NywxLjQzNDg3MiAyLjc5MDAzLDAuOTU2NTgxIDcuNDEzNSwwLjk1NjU4MSB6IG0gMzIuODQyNTYsLTM2LjExMDk0MSBoIDE1LjcwMzg3IHYgNi4yMTc3NzggaCAtMTUuNzAzODcgdiAxOS4xMzE2MjUgcSAwLDMuMTA4ODg5IDAuNDc4MjksNS4xODE0ODEgMC40NzgyOSwxLjk5Mjg3OCAxLjQzNDg3LDMuMTg4NjA0IDAuOTU2NTgsMS4xMTYwMTIgMi4zOTE0NSwxLjU5NDMwMiAxLjQzNDg3LDAuNDc4MjkxIDMuMzQ4MDQsMC40NzgyOTEgMy4zNDgwMywwIDUuMzQwOTEsLTAuNzE3NDM2IDIuMDcyNTksLTAuNzk3MTUxIDIuODY5NzQsLTEuMTE2MDExIGwgMS40MzQ4Nyw2LjEzODA2MyBxIC0xLjExNjAxLDAuNTU4MDA1IC0zLjkwNjA0LDEuMzU1MTU2IC0yLjc5MDAzLDAuODc2ODY3IC02LjM3NzIxLDAuODc2ODY3IC00LjIyNDksMCAtNy4wMTQ5MiwtMS4wMzYyOTcgLTIuNzEwMzIsLTEuMTE2MDExIC00LjM4NDM0LC0zLjI2ODMxOSAtMS42NzQwMSwtMi4xNTIzMDggLTIuMzkxNDUsLTUuMjYxMTk3IC0wLjYzNzcyLC0zLjE4ODYwNCAtMC42Mzc3MiwtNy4zMzM3ODkgViA2LjQwMDA2MjggbCA3LjQxMzUxLC0xLjI3NTQ0MTcgeiBtIDYyLjQ5NjUyLDQxLjQ1MTg1MyBxIC0xLjM1NTE2LC0zLjU4NzE3OSAtMi41NTA4OCwtNy4wMTQ5MjkgLTEuMTk1NzMsLTMuNTA3NDY0IC0yLjQ3MTE3LC03LjA5NDY0NCBoIC0yNS4wMzA1NCBsIC01LjAyMjA1LDE0LjEwOTU3MyBoIC04LjA1MTIzIHEgMy4xODg2MSwtOC43Njg2NjEgNS45Nzg2MywtMTYuMTgyMTY2IDIuNzkwMDMsLTcuNDkzMjE5IDUuNDIwNjMsLTE0LjE4OTI4OCAyLjcxMDMxLC02LjY5NjA2OSA1LjM0MDkxLC0xMi43NTQ0MTYgMi42MzA2LC02LjEzODA2MyA1LjUwMDM0LC0xMi4xMTY2OTYxIGggNy4wOTQ2NSBxIDIuODY5NzQsNS45Nzg2MzMxIDUuNTAwMzQsMTIuMTE2Njk2MSAyLjYzMDYsNi4wNTgzNDcgNS4yNjEyLDEyLjc1NDQxNiAyLjcxMDMxLDYuNjk2MDY5IDUuNTAwMzQsMTQuMTg5Mjg4IDIuNzkwMDMsNy40MTM1MDUgNS45Nzg2MywxNi4xODIxNjYgeiBtIC03LjI1NDA3LC0yMC40ODY3ODEgcSAtMi41NTA4OSwtNi45MzUyMTQgLTUuMTAxNzcsLTEzLjM5MjEzNyAtMi40NzExNywtNi41MzY2MzkgLTUuMTgxNDgsLTEyLjUxNTI3MiAtMi43OTAwMyw1Ljk3ODYzMyAtNS4zNDA5MSwxMi41MTUyNzIgLTIuNDcxMTcsNi40NTY5MjMgLTQuOTQyMzQsMTMuMzkyMTM3IHogTSAzMDQuOTkyNDIsMy42MTAwMzQyIHEgMTEuNjM4NCwwIDE3Ljg1NjE4LDQuNDY0MDQ1OCA2LjI5NzQ5LDQuMzg0MzMxIDYuMjk3NDksMTMuMTUyOTkyIDAsNC43ODI5MDYgLTEuNzUzNzMsOC4yMTA2NTYgLTEuNjc0MDIsMy4zNDgwMzQgLTQuOTQyMzQsNS41MDAzNDIgLTMuMTg4NiwyLjA3MjU5MiAtNy44MTIwOCwzLjAyOTE3NCAtNC42MjM0NywwLjk1NjU4MSAtMTAuNDQyNjgsMC45NTY1ODEgaCAtNi4xMzgwNiB2IDIwLjQ4Njc4MSBoIC03LjczMjM2IFYgNC45NjUxOTA5IHEgMy4yNjgzMiwtMC43OTcxNTEgNy4yNTQwNywtMS4wMzYyOTYzIDQuMDY1NDcsLTAuMzE4ODYwNCA3LjQxMzUxLC0wLjMxODg2MDQgeiBtIDAuNjM3NzIsNi43NzU3ODM4IHEgLTQuOTQyMzQsMCAtNy41NzI5NCwwLjIzOTE0NSB2IDIxLjY4MjUwOCBoIDUuODE5MiBxIDMuOTg1NzYsMCA3LjE3NDM2LC0wLjQ3ODI5IDMuMTg4NjEsLTAuNTU4MDA2IDUuMzQwOTIsLTEuNzUzNzMzIDIuMjMyMDIsLTEuMjc1NDQxIDMuNDI3NzQsLTMuNDI3NzQ5IDEuMTk1NzMsLTIuMTUyMzA4IDEuMTk1NzMsLTUuNTAwMzQyIDAsLTMuMTg4NjA0IC0xLjI3NTQ0LC01LjI2MTE5NyAtMS4xOTU3MywtMi4wNzI1OTMgLTMuMzQ4MDMsLTMuMjY4MzE5IC0yLjA3MjYsLTEuMjc1NDQyIC00Ljg2MjYzLC0xLjc1MzczMiAtMi43OTAwMiwtMC40NzgyOTEgLTUuODk4OTEsLTAuNDc4MjkxIHogTSAzMzguNzkxNiw0LjE2ODAzOTkgaCA3LjczMjM3IFYgNTkuNDEwNjA2IGggLTcuNzMyMzcgeiIgc3R5bGU9ImZvbnQtc2l6ZTo3OS43MTUxcHg7bGluZS1oZWlnaHQ6MS4yNTtmb250LWZhbWlseTpVYnVudHU7LWlua3NjYXBlLWZvbnQtc3BlY2lmaWNhdGlvbjpVYnVudHU7bGV0dGVyLXNwYWNpbmc6MHB4O3dvcmQtc3BhY2luZzowcHg7ZmlsbDojMDA5Njg4O3N0cm9rZS13aWR0aDoxLjk5Mjg4Ii8+JiN4YTsgIDwvZz4mI3hhOyAgPHJlY3Qgc3R5bGU9Im9wYWNpdHk6MC45ODAwMDAwNDtmaWxsOm5vbmU7ZmlsbC1vcGFjaXR5OjE7c3Ryb2tlLXdpZHRoOjAuMzExMDM2NTYiIGlkPSJyZWN0ODI0IiB3aWR0aD0iNDUxLjUyMzE2IiBoZWlnaHQ9IjE2Mi44MjE5OSIgeD0iMCIgeT0iNy4xMDU0Mjc0ZS0xNSIvPiYjeGE7ICA8ZyB0cmFuc2Zvcm09InRyYW5zbGF0ZSg4My4xMzExMTQsLTYuMDc5MTE0OCkiIGlkPSJsYXllcjEiLz4mI3hhOzwvc3ZnPg==;" vertex="1" parent="DnVlFltGNtRPwftVO5e9-2">
          <mxGeometry x="30" y="610" width="162.68" height="30" as="geometry" />
        </mxCell>
        <mxCell id="DnVlFltGNtRPwftVO5e9-28" value="" style="group" vertex="1" connectable="0" parent="DnVlFltGNtRPwftVO5e9-2">
          <mxGeometry x="284" y="590" width="64.5" height="100.80999999999995" as="geometry" />
        </mxCell>
        <mxCell id="DnVlFltGNtRPwftVO5e9-26" value="" style="shape=image;verticalLabelPosition=bottom;labelBackgroundColor=default;verticalAlign=top;aspect=fixed;imageAspect=0;image=data:image/png,iVBORw0KGgoAAAANSUhEUgAABQAAAAV9CAYAAACvWOHoAAAABGdBTUEAALGPC/xhBQAAACBjSFJNAAB6JgAAgIQAAPoAAACA6AAAdTAAAOpgAAA6mAAAF3CculE8AAAABmJLR0QA/wD/AP+gvaeTAAAAB3RJTUUH6AcSBBMmyhgc+AAAgABJREFUeNrsnXm4JVV1vr99zukJaOZZRcF5iKLEAZAEtAGhASXaLaI4RroRJxQ1DklunIEGHFHIpNGYBH4xA4qiSDeKoBEiakg0RlCmbhkEAYHuvrf2748GpbvvvaeGtXftXfW+z5Mn0rdO1T6nVq3a66v61nYCAAAAMGTJxLlzb9GCrUfz3NZz/GD+lBsuKKaKBUPv5stpy0J+rh+4rQbezym839o5DVW4bSQ/8E7bDSTnpW3l/NB5bf3Afr3ctnLO/fZA3s+VtOXvjuwlr4WSRvf/lyQNJG0zw1Dvk3Tv9H/y0/5PJ/3GS+vu/4875TUladJLd92/xd3O+fVerpD3v5YKybt7nfx9G/7s7ii88wMV6+QGv/HSnc4X98oPfuPk7pgcTN07LAb33jdPt4/WbnnvqomD7iOiAAAAAKApjp8AAAAAHuCwiQu21lA7TY2G20raxjm/UIW29oVfqMFga+/9tk7aWvILnbS1lxZK2lrSdvrd/5430/79Zv/hjUbuZ9Ls6u2rwo581b9UG1zhpF97Fb/xcvdKulPS3ZLukdzdXv5O593dcrrde93unL/ded1eDPztg8Lfvm7O1O3D9dvfjpAIAAAA0G8QAAEAADrKoRNf3X44d7RjofU7FBrsIGmHgYodvNwOknby3u3o5HfwTjtIv/2/OZvtyM/4H5UIJ/7dvy9vPMpG4t8Mf/X1xuTrDeDB3Cvpdqn4leRul3S7l2530u1O/nbvBrc772/3GtzsVKxZt27yluHc7W9ZNXHQJFcSAAAAQP4gAAIAAGTEUaf828L7puY/RAPtPPDuId4Xu3jndndyu0p+N3ntJmknbRDzhhs+VfkdtVk2qCetIf6ptvg360d97bMw/RZ+s5niLfK6RU63SG6NVNyswt+igX6pYvhLNyhuKeRultauWTWx9G6uUAAAAIA0QQAEAABIgENOu3DL4frhwwunPbyf2sUN3EO897sMnHb33u8quV0l7S5pixl34kv/45i/zLQR4l+5TToi/lXdl9O994uFqyW/RnLX+UI3yvsbB8PBdYV0k7T1DdiRAQAAAOKDAAgAABCBxR/60nbrNWevodPu8tqtkNvLSXs5aS+/Qdjb1f/2vlxDLUL8i9b3L474t+GD2Yh/FTb10u1efrXzusk5rfbyNznvrimcWz3w/iY/1M9WTRx9B1kDAAAAwA4EQAAAgKZ47w479SsP8cWcR/mB9nRF8XA593BJe9z/fw/TgxfGmHVtiO6If9PvpmeLfmQg/m0IYbt9GcX4ryV/g/fuF26ga1zhr/XeXeOcv3bd2uE13z71+XeReAAAAADKgwAIAABQksUf+tJ2U27eE513TygGG97ec157eRWPlbRVqZ1EEf9m/gPi3yyjbH/F399+qLvin1mc3y75a5x0jXe6xnl3jffFNc751ffdXVxz+ZlL7yVjAQAAAPwOBEAAAID7mZiYGHxv3rMfUQyLR3k/eJS8f5TzerR3epSkPfXgt/h+S9S3okruE/Gv8ii7teJv6Q9kKv5pjBQ7Kfnrvdw1TrpW8td6Df5vKP+T++6e/F/EQQAAAOgjCIAAANA7lpx77vCen23/8MmR9hr64oneuydIeqKkvSVtKSVpiSy5T6sVf1MU/+7fVx8X/chB/AsR52Hs7asld7V8cY13/r8HcldPjnTNpRN/dK3kvAAAAAA6CAIgAAB0lgMnVo62nDe1R+HcE+X0BK/iic65J8j7x2uW1XQ7+lZUxX2y4m+5Tbq84m+K4t/MfzCI8bVy7meSv9p5XVM4999DuavvHI7+58qJI+8howIAAEDOIAACAEAnOOT0Cx82mho+pZDfW37we056guQfI2luFYkA8a/mmJSh+FdiR/0V/yzjPHt7+5Skn0v6ieSuLlzxQ6fRDwbDbf5n1cRBk2RfAAAAyAEEQAAAyIp9zr5izk533vH4QeGeUsjv7eSeIvmnStq+QvU//Rb9tUTW/34z7iJF8W+TTych/m34IOJf/ThvsbflWslf7eV+4Jz/gZvy/3n3vPlX8rYgAAAApAgCIAAAJMs+Z18xZ5c7fvWUQoNnuIH/fXn3FElPkjQXS+T4P7DoxyyjtF7xNwPxL0icZ9fbsv64Ssb4enldJafLnfSdqcni25eesvQ6sjkAAAC0DQIgAACkgffu8DO+8WhX6Bm+0NPl9Ay/YVGO+dUr/mob81ZUgzEJ8a/+4Fjxt0mMx4zzRjHu/U0auEslf/Fg0n9j1YeX/h8JHwAAAGKDAAgAAK3wgjNXbrt+0u/vvX+WpGdIerqk7R6osLFEltkn4l/lUSa06EfW4t/YnwLxb5b9/cJJ35B335ijtd/4xgeP/SV3BAAAAAgNAiAAAEThsFNWPtS54gDJ7S/5P5D0REmD6cpjLJFl9pmNJVK1v3QfV/zNWPxrFOeJin8bfdI339c0Me4l/UBOX3JTg3+/5MN/dIXkLC8kAAAAAEkIgAAAEIjDVlz0BOe1QfDzOkDSI8oUxN0V/2oKByz60R/xL0Cc09vSLIJiveG62smdX3h//tR9/huXn7n0Xu4mAAAAYAECIAAAmHDEGd94iC/8Iu/dInktkrRr1YIYS2SZwyP+1frxWPHXJs6xt8eM8Xsk/xV5/ePkffoyYiAAAAA0AQEQAABqcchpF245R8N9C7lFTlok6WmSHJbI0t+sxv56YYmUzV5Z8Rd7e4ri38ZxXmGv98rpG176u9vn+H+7emLpOu5CAAAAUAUEQAAAKFmzenfYGd/cW8XUEZI7zKl4uqRRXS2htHyAJXLsH1j0Y5ZRIv7ZxDm9LVOK89u981+U9JlLP7D0Um5OAAAAUAYEQAAAmJElZ1y24J6ptft7+SMlHS3pYTOWrVgip/lnLJGl95yD+Fd7cJnb2+ltmVicb7ST/3XO/0Mx5f7m0lOWXsddCwAAAGYCARAAADbisFNWPtQNiyPk3RGSniNpwdhSHPFvmn9G/Ku0d990hJt8OqFFP+htWT/GY8Z5HuLfjHE+KekCJ/31YN5OF6yaOGiSuxkAAAA8GARAAADQYaesfOhwqBd675dI2s/PeH/AEjluUyyRNfbexxV/6W1pE+PTB2hicR79Ddc1zrnPrnf+45d/YOmN3OEAAABAQgAEAOgtm4p+D9wTsETW35S3omrsvY/iX+V9duQNV3pbxn7DdZ2c/q3wOvOyDy29nLseAABAv0EABADoEYefunJX54pjJLdE0r6b3gewRNY/LOJfjb1bi38ldhQnxi3jHHt7yBgPG+cJ9bZ0ulSF+9huP/NfPO+8pVPcDQEAAPoHAiAAQMdZMnHu3Hu33OFQ7wbHyfsXSJpTveDGEjlucyyRFffMir9msYm9Pf3elmajbP6G67Vy7qNT9+qcy89cei93SAAAgP6AAAgA0FGOPOPiJxbeH6fCvVrSTg0KxkZaQmn5oJW3olIU/2b+A+LfLKNE/LOJc+zticV5MHv7zXL61Pwpd+ZFpyz9NXdMAACA7oMACADQIQ4946vbz/FzX+m9Xi3piWWKRiyRzTbFEllxzzmIf7UHR2/LJjEeM87pbbnhn5x0m5c+Lk1+7NIPv/R27qIAAADdBQEQAKADHHb6JU8deL9c8i+V/JY2RSNvRY3bFEtkjb13eNEPelsGjnGjOM8jxqvFuUGM3yXprPXz13/wuxMvu5O7KgAAQPdAAAQAyJQlE+fOvWfhzs+X98dLWlS1YKxciiP+TfPPKYp/9ceF+Cfs7VZxjr09V3v7rZJWTK11H6NHIAAAQLdAAAQAyIzDPvbNnYZrp070TsdL2i1KwVi7msUSWW6fvBVVeZSIf5HiHHt73BhPJpdf75zeN5y389+umjhokjsvAABA/iAAAgBkwuErvvHwgRu+xUt/LO+3CFMwzvBXLJHT/BPiX+m952mJjBzniH8hYzxsnKco/pnF+f9K/j2XfviY87gLAwAA5A0CIABA4hx1xspHTRXubZJ/laQ5GRSMwhJZdn/ti3/T7wZLZNkxYW8PHOf0tkwilxde3xgOi7d864PH/pC7MgAAQJ4gAAIAJMphp6981sC7d0r+yJnzNeJfFm9F0Q+NFX8bxiX29vpRhPhnlssn5dzZ6zXnz//jQ390G3dpAACAvEAABABIjMWnrXySnPuA5I+qVAJiiWy0r3GbYomsuOfuWiJFb8tmMR4zzrMT//LI5ber0J/tfu3gU+edt3SKuzYAAEAeIAACACTCkR/++h7FaM67Jf8aScNKRSOWyMb7mm1TLJE19t7HRT8y7m3ZKM5zsLd3pLdlYrn8qsIPll1+6tL/4A4OAACQPgiAAAAtc+SKlTsWTifL602S5ne8YFST0W60FW9FCUtk2U3obVkuzrG3x43xTuTywnv9ldOCk7996vPv4o4OAACQLgiAAAAtsWTi3Lm/2Wqntzjp3ZK2il8wWhaNWCLL7RPxr9aP59OI8Vk/ir197IEQ/0Ll8gR6W3pd753ecNkpx/wbd3cAAIA0QQAEAGiBw89Y+TxXuI9K/jHtFIwz/BVL5DT/hPhXeu8tCCP0tmy2KeJf+jEeM5cbxPh5cyaL1606/dhbudMDAACkBQIgAEBEDjtl5UOHQ/9BL3dcVwrGWT+KJXLsHxBGQsU59vZgMT7jx6x6W9YfF/Z2pfAg52bntPzSD7/kX7jrAwAApAMCIABABJZMnDv33oU7vdN7vUPSgs4XjJX3yVtR5faH+Ffu10jAEllzY+zt9aMI8S+5XP6Z+zR885WnLP01swAAAID2QQAEAAjMUadd9OTCDT/jpac2Kj5LFmNYIpttivhXcc9YIiPHOfb2uDFuGecp9rYMnstXu8Idf+lpx3yJ2QAAAEC7IAACAATiwImVoy231Fudc+/18nMbFZ8VijEskfU3xRJZY+9YIk1iM197e/vi30af9M33FSbGe53LvXP6+O3zh2+7emLpOmYHAAAA7YAACAAQgMWnrXySc/qMpH2wRDbbGEtk/eoe8U/0tqz2zWocnjdcW8/l+TzIuULeHXPZacf8jFkCAABAfIb8BAAAhnjvFm914Ducc/8o6WHpWCItPmBZMJb9OY2/COKf1ZkJY4lstLU3jcn07O0yinMf/ECIf6Fyue25ayGX7y7nXv6w/V/4s+u//c//zYQBAAAgLrwBCABgxNGfuGiHyXXDz/pCi03LWiyRjfZTZvPuWyJTFP8s4xx7e7AYrxjn3RD/No5zelsGyeWfW7vFVsuvnDjyHmYPAAAAcUAABAAw4MgVq57unf8nee1pWtZiiWy0nzKbY4msuGfEP7PYpLdl/XFhb+9CLndXFQN/9Hc+/JKfM4sAAAAIz4CfAACgSZ3o3RErLnmTd7rUXPxrvDWWyHGHxRJZcc9YIg1Th3E+8AGG7kOfDcS/uLk8tQc5fu9Boe/t+/Z/eC6TCQAAgPDwBiAAQE2WnHHZgvv8us96+SVtCCPxxD+foPiHJbLcbgzFv83/X/AYjxfnSVgimx141p+C3pal904ubyOXr3fyb/n2qS/9BDMLAACAcCAAAgDU4MgVK3f0zv2L5J+NJdKmYCxfNGKJHLsb3oqqPCZ6WwaM8ekDNLE4x96eQC7/e79+9NrLz1x6L7MMAAAAexAAAQAqsvi0lU/SwJ3v5B+RjSWy1beiUhT/av4ovBWFJbLB2c7iDVd6WyL+tZrL3XdUrH/+ZStefjOzDQAAAFvoAQgAUIGjVqw6eDBwlzr5R9iUtJYFo9UHLAvGkkfzwb7IDHtA/Cu9d2vxr/HWXe9t2fIbrhUOhPgXKpf3ubelf5YfzPnOvu/8wuOYcQAAANiCAAgAUJIjVlzy0sLpAi9tY1c8pftWlE3BmJYlsvaPkrAlMhyWwojVV833rSjzfSVgb48V42FF7gDnLqEHOTnmcie/p5vSpc962+f3Z+YBAABgBwIgAEAJFp++8mVy/rOSRr22RCZaMJbZ3N4S2WBz3oqq8fvR27JcjFternHeUWsnxi3jnFweIJfvMNDgG/u+7QsvYQYCAABgAwIgAMAYjjxj1euc3N9JGmKJjF0w2gweS2TFPWOJtDsavS1Fb8vYuTzV3paVDzvPSZ/f7+QvvIWZCAAAQHOG/AQAADNzxOmXnCjpE5IclsgoX6j+vrBEJkbXe1u29IbrrHtA/Cu99xC5vNGZprflDJs6OR36sP1etOD6y/75ImYlAAAA9eENQACAGTji9FVvkXwA8Q9LZNy3ouKIf97w65TeDW9Fmcem1b7y7W3ZcPNe9ba02hEPcsbmcuffse/b/v4jknfMTgAAAOrBTRQAYBqOWHHJS+X855ST+Fd7cJm/FYUl0q5IxxIZMcYt49xS/MPeTi5Ptbell5f//PwtH/KqVRMHTTJTAQAAqAYWYACATVh85spFTjpX0sikJjMvGK0+YFkwlvsAlsj63w9LpLBETvvP9LaMH+Ndz+UyinP7BzlO7snF+rseu/OTDv231Vd+qWDGAgAAUB7eAAQAeBBHnr7yWV7uIklb2haNvBWV74q/7Yt/0++GFX/Ljgl7e+A4z6K3ZU9zeS4PcqrH+b+u+/XdS688Z9l6Zi4AAADloAcgAMD9HPWRix/rvfuSEP/6ueJvwv3QsETWH1O3LZFW102cs9FOjPc8lxtntYQe5Lxg7rZbfn7JknNxMwEAAJSEmyYAgKSjTrl04ZTzX3dODw9WMDbeGktkw4LR7FdC/JtllJ3sbSmjOKe3ZdwYJ5e3k8tlFOfjDuieeOc2xZ43HPLkf9OqVSmuOAMAAJAUvAEIAOC9K0ZTf+ukJ9gWjJaiA6tE2hSMVfZpVZGnaokMcO4S6ocWcwCxels22lfC9vZwMd5OLo8n/nke5Dgd96y7H/1XrA4MAAAwHt4ABIDes3jhQX/hnE6wLxjph4Yl0mhYWCIrj6mHlsjQhx8XoIF+4bZjvHqch4/x+LncfF+GMe6cnrrH/j/c/vrLvvgVZjQAAAAzgwAIAL3myDMufr7kPinJ0Q/NuPzGEqneWCLpbWl6emp8M7MDYW/vUy7v0oMc98yH7ffC4Q2XfXElMxsAAIDp4XV5AOgtLzhz5SOmCneVl7axLRpZJTLWW1GIfzX23oIwgiWy2aax7O2If3nkcrsHOd3L5U7++MtWvOwvmeEAAABsDj0AAaCXTEz4waR3f9t78c9GTWilYGz0oyRsiQwHlsggwWG1r+x6Wxrtphe9LW1zuc256WYu93Kf2vetn3sBsxwAAIDNQQAEgF7yvYXffJu8DvxtBYElMmLBaFOnYomsuGcskSYxXj7Ou97bEnt7Urnc+Nxlkcun/8hQzn1hv5O/sC8zHQAAgI3BAgwAvePIMy5+oveDKyTNxxLZRsGIJbLcbrBExo1xyzint2XcGLeMc1/pxyGXp5nLnXTrlHP7ffe0l/6UWQ8AAMAGeAMQAHrFYR+7YJ73g39Ui+Jf5YoGS2SUgrH5/lIU/xTm3GGJTO96qRnjrdjbfYDY9AF2Ty7PNpd7aceB9+cf+Oa/3ZaZDwAAwAYQAAGgVwzXL3inpCdhibQt8rBEGg0LS2TlMXWxt6WxJbLZ5iFEbtMrLJNcnon4FzeXB3+Q89i1ozn/tGTJuUNmPwAAAAiAANAjDjv1G4+U3DvStURafMCyYCx5tEhvRWGJrLH3EJbIRlt709Cgt2X9A2FvD5XLU3yQ01IuT+NBziHXPXzd+5gBAQAAIAACQI8YjUYflTQ/SGGNJVJmB46y4m+KlsgUxb9qPw790JptSm/L+l+YBzkJ5vJZ9xAvlzvpT5558t8fwywIAAD6DouAAEAvWLzikj9yzv8zK/4mXjBGs0TyVlTcOMcSGSzGZ/xYA5Hb25ws7O0BcnnmD3Jsc3mlGL/Xe3fAd09/6ZXMiAAAoK8gAAJA5zny7Cu28Hff/T+S34NVImMWjBUPzFtRBmRkiWTF32n+GXt73DjnQU4WudzuQc61o5Hb59IPv/R2ZkYAANBHsAADQOfxd9/9Jjvxr1pNhPjXUsE448ewRFbeF5ZI6y8ywx4Q/0rvPUQub3Smu97bsuVcXuFAY46w5+Sk/ytmRQAA0FdYFQsAOs2iD399m9Fw+E/yWmBTMFpVnvlaIrMoGL3x9/MBfhVzYcRqd/S2pLdlgNi0CvCW3nAll3cmlz/+ofu+8OYbLv/iFcyQAACgb/AGIAB0mnlzRm+T99u3UTDmtUpkiv3QLOtVy7OBJbLcJpEskcbnLosVf32AzbG32+Ryelumn8udP2O/t/393syQAACgb9ADEAA6y2Ef++ZOw/VTP5PXwnQKRsuisQOWyFl/CiyRpfdOb8uIMV7xwNjbE4pxy1xOb8vyP0WSufynw+G6fb596mvuYrYEAAB9gTcAAaCzjNZPvesB8a9x8WlSMM7wVyyRNlU0lshovS0VJcY3fBBLZLM4jxXjwe3t1ucuod6W2efyWfeQbC5/9NTU3I8yUwIAgD7BG4AA0EkOPeOr288p5l0naUuzspZVIu0KxnRXiZytYGwaQVgiK46pu5bIOOKfr7w/7O3k8hRzebgHOc65P7p8xcv+hVkTAAD0Ad4ABIBOMvLzT5Sl+Nd4666vEtliwVjxQIh/s4yyc70tSx6N3pZC/Iudy1MU/1LN5Q1+onG53PtP7nvSudszawIAgD6AAAgAneOwj10wz3n/OtMSBEukzb6wRLZTBJf5dEKWyOx7W866B3pblt57CHt7ozPd9Qc5/ett6aXdNFj3EWZOAADQBxAAAaBzjNYtOE7Srlgim22MJdKosA8sjLQf45ZxHleYzre3ZcPNe9Xb0mpHPMhJKZdbxriXP27fkz9/NLMnAADoOvQABIBu4b1bfPol/yX5J8QqGFklsvamd3rpN5LulvydcrpTXlNemuOkrZy0nd9g495K99u5mxSMvBUVIsZn+GunLJEtCiP0tmTF34ZxyYq/pT9x02jO4EmXfviltzORAgCArjLiJwCALnHkiosPKtwgAfHP6gOWBWO5D1gXjE66zktXyvufyLmfDLz/n7nr5v7kXycOuqPsPg774AU7TQ2Gj3eFf6zc4LH3C7y/L2mnFgvGErvAEmlyrL5aIiscCPGvb7lcRnGO+Hc/u69fP7VC0muYSQEAQFfhDUAA6BRHrFj5eS+9tP2CsderRN4qp5Xe69ve+0u/9s5Drwx1vhd96KK9Bppa5LwWSf5gSdtGLBhL7IYVf8uOCXt7mX1a2dtT7W3Z0zdcc+ltmfmKv2U+PXDF/peteMXlzKYAAKCLIAACQGd4wZkrt10/pZskLeh8wVh5n8Hfivq1nPunwhef3e++y78zMTFRxD7/+5x9xZydbrvlYC/3CklHSZqP+BcqzrFElv8pWPQjbpyTy/MV/2b+Q7Rc7vWfD7t+3jPOO2/pFLMqAADoGliAAaAzTE7pGDUV/xpv3StLZCHpInl9ZuG8rf71vLfsd68kfa2l83/lst9fL+kCSRcs/tCXtluv4Uvk3SskPSNowSjEv/qDwxJZbp+If+Ry61wuozjvmL3d6WnX7bFumaSzmFUBAEDX4A1AAOgMh69Y+R9OenqjogNLZJl9Fc67CyT92VfeefD3U4+Lgz/4tf2dij+RdESQgnGz/+CtqCpjwhI5bn+IfyHiPJ745+lt2SDOW3qL+/a569Y/9lsff/UtzKwAAKBLIAACQCc4bMVFTxhoeHXIgrFyKd498W/Sy39hWAw/cMG7Fv1vbjFyyPsv3E9D/x55HWZVNCL+CUtktW9W4/As+kEup7dl+Q3McvnffPeMl7MgCAAAdAoEQADoBIefvvLPnddEMgVj7TokzRV/nfR1Vwxen6Pwtykb3gj0n5L3v2dcMBqOEvEvboxXPHA/34rC3t5KLqe3Zeg4nyHGi6KY2ud7H3nVVcywAACgKwz4CQCgCzivF7ZTMFp9YMyHWhP/ijVO7hVf+ZNDDumC+CdJX3/XId9et27u07z0ZsnfZVgwGmEpjFhFTK96W9baFPGvrRhPM5dn3dty7B56YW8fuMHwQ8yuAACgUzUzPwEA5M4Rp17yaD8oKohTvBXlS21SfHrBvLnv+teTDrqjq7Fz+Pu//PBJuU/IuSOMisbmJTaWSJMYLxnnwhIZO8Yt45zelvS2NIogP/2+3MAd9J0Vx61ipgUAAF2AVYABIHuKQfHC8k8zEP9KFIy/ltOrL3zHoV/seuxc8J7Fv5B05CEf+Mrxkj4uaW71urOHlsiaY+q2JbLZaQpzNhD/ksrlxucu796WDTYP8YbrTPsq/KmSf6bkYr2MDQAAEAwswACQPdXtvxaFSGctkf859O5pX33HwV/sUwx97d2HnaPBYD9J11arO7FElv0Qlsgyh2fF3xBB2G97e/PDegWIgxZjvEqce+npz3rr545mpgUAAF0AARAAsubQM7+5m5z2qTzlt35tJxNL5Gw4r08svO/2fb/8zkXX9DGWvvbOQ6+ccnOeLq8LmhSM7ZLuW1E2YZvWW1G1f5SELZHhYjxQb0tyuc2+6G05W075wIETK3FNAQBA9iAAAkDWDKeKRSrVzxRL5CzCiPfen/yVdx78hvMmlq7rczx9412LbtvmMXcdJensJgVj5XIUS6RJnGOJNIsgY+htGSmX1ztwAr0tYwVnzVz+uHt+ff1SZlwAAJA7CIAAkDdei+IVjJaFSTKWyCnn9ccXvvOQ0wmmDZy3dOnU19592HIn/ycNCsbywYMl0uT7YYk0jCB6W+aYy+sdmN6WpXBO79bEBHUTAABkDTcyAMga5/xz4hSMM/w1b0vkWu/14q+88+C/IZI258J3H36K5N8oqahTMJY6dy1YIuOJfz5B8Q9LZLnd+CDBSG/LGHFOb8tAMf6EZ9y55+HcGQEAIGcQAAEgW4484+InSnponIKxc5bItd67Iy5858H/TCTNzNfeffjH5fQ6+z2391ZU+Bjf8EH6oZXZZ7aWyMjj5EEOvS0DxGZFnHPv4q4IAAA5gwAIANniC7fIqnjpmSWy8NLLL3znoouIovF8/V2HnS3v/xxLZPkxYYks8+G8LZHx4pwHOVnY23Ppbdkkzr32fdbJnzuQuyIAAOQKAiAAZIuX+wOLSqNvlkgv/5YL/+Tgc4mg8nz9PYe/10vnmFTdyYl/Vh+wjPHmcW71K2+8ByyRceOcBznZ2NsrHChne7svNvSGBQAAyBEEQADImWeNnfJjidwIJ3/qhX9yyEcJneps95i7XyfpX9IYDZZILJHN80Gw2Gyht2XfcnntfWVnb0+ut+WhTz/pM0/kjggAADmCAAgAWXL4im88XPK7zzrl75wlstzGMwsj7vyvvONg3l6oyXlLl07Nn5x6maSra5ejWCJN4hxLpFkE9XPF30zEP+ztSjDGpYEbHM8dEQAAcgQBEAAyZbhfuILRsnJJph/ajXNGw1fLOU/s1Of8iSPvGRSDF0u6p3LwYIk0+X5YIg0jqI/iX4Mxdbu3Jfb2CnH+iief/HdbckcEAIDcQAAEgCxxKvYNUzDO8Ne8LZGF88XLzz/5oFuJnOZc+GfPu1revaViwWivFWCJtNkXlsjEoLclvS3rf784vS39NlsUOpa7IQAA5AYCIADkmr6eGaZg7KAl0ut9X3nnoRcTM3Z8/U8PO1venVvq3GGJNInxsXFe58AJiH/e8OuU3g0r/prHZpRcXndM9LY0j/HC+xO4EwIAQHYVND8BAOTGgRMrR5J/Sp1CoX+WSP8fCx95+/uIGnvWT923zElryhaMWCIbHo1+aOrNir+5PMhpzd4uozint2WDGH/qM9782X25EwIAQE4gAAJAdizc2j9W0rzglXv+lshiUPg3nrd06RRRY8+qiaPv8PJvD38msURiiaz//fIQ/ywjht6W4zalt6VNjDunV3EnBACAnEAABIDsmCoGT95sKo4lcnOc/uqCdx36XSImHF9/9+Gfl9cl44pGk8Ka3pYyOzCWSJvYbOkN1/AxHj+Xm++L3pYxroAXPeoNH5vHnRAAAHIBARAA8sMVv4clcpww4m53U+vfQ7CEjkXn3aB4vaTJjU52Xy2RzdWECjFue1gskRX3jL3dLDiwtyvBGC8V59ttP9zuMG6EAACQCwiAAJBf4vL+92wKRsvKJTFLpNN7vvKuw28hWsLztXcf8V+SPl2yYAxfBJf5K5bIaf4ZS2TpPScn/qWay2UU55biH/Z20zh3xUu5CwIAQDZ1ND8BAOSGd+7JNgVjZy2RNy6891d/RaTEY/2k/4Dk78MSaRPjQfaFJTK1TF7pq2Jvj3y91IzxVuzt7fa2PGLvN//tttwFAQAgBxAAASArlnxy5VbyehiWyFl3c/p5E0vXES3xWDWxeI2X+zubkhZLJJZIo2Gx4m/eudzIX955e7v1FVQtPOfP0+CPuAsCAEAOIAACQFbce59/pCSXRsE45qPtWCJvu2/t6C+JlPgUXqdKmkpa/MMSOc0/Y4ksvXdr8a/x1l23t8sozrG3h4xxP9BS7oAAAJADCIAAkBfePRpL5Cw4fXzVxEF3EyjxufhPD/+ZpHNNYpPelkGvF8S/GnsP0dvSN/lznrk8m96WFeK8970tvQ7a/+1/vZC7IAAApA4CIABkhfd6ZP2yKV/xr6Qwsm7OcPRJoqQ9pgbFisZlbQ790ALsK6Ylsvb3S9gSGTDrit6W6V0v4zZNt7el0W7S6m05d926OQdzBwQAgNRBAASArHC+eFS9OiPFfmglj1ZeRfjy+ScfdCtR0h4Xv/vI/5T0X7XL2lz6oWGJHHsgVvwNFef0tiwX45bhbHk2OvqGq/NHcAcEAIDUQQAEgKzwzj3KrKzomCXSe/f3REgCMSp9IeC+q/21U/3QsESW202Xxb9Uc7mM4hx7e9wYt4tzJ79YExPUVQAAkDTcqAAgK7ymtwD33RLppTvWrh19mQhpHzdV/L2konIcYIm02ReWyPSydoXv3Xouz6W3ZRR7e/viX7CU8sAO7Xpb7vys2/d6OndAAABIGQRAAMiGJeeeO3TSbm0WjKlaIp3T/1s1cdB9REn7XDRx5HWS+2alOMASaVP1Y4k0iwPzFX9zsbcbn7uY4l/tb5Zwb0sfLN/Zv+Hqh34xd0AAAEgZBEAAyIZ7b9hhV0mj+AXjmI8mYIl0hc4jQtLByf+/0nGAJdLmi4wV/7BElt67tfjXeOuu53IZxTm9LePG+CafLvxzuPsBAEDKIAACQDYUU+6hjYqX7loi102N/LeJkHTw8heXOndYItu4Xhp8JEVLZIrin+WpxN4+blN6W9b/wpa9Lb309H2OP3sL7oAAAJAqCIAAkA3O6SGGpXiSBWNNYeQ/vva2Q39DhKTDRe9Z/GNJa8YVjM2iBkvkuM37YYm0y3VZrPibifgX9w1XelvGH+e0MT53zhZzn8EdEAAAUgUBEADyofAPqT1/77Ql0q0iOBLDOe82Oy9YIrFENhtTv1b8TfFBTuhcXifGLcOZ3pZNY9x79wfcAAEAIFUQAAEgH+5/AxBL5CY/iy9WEhzp4Wc7L75JxOT5VlSd3pZ1N8USWf8LpyH+WX3AMsbD5/J6I6G3Zem9x+ht6XQAdz8AAEgVBEAAyAi3K5bIzShGa9d9h9hIDz8aXDrt+aMfms2+sES28rOX2gm9Le1+bG984nLobWmfjaP1tvTSfvscf/Yc7oAAAJAiCIAAkA1e2jFWwZiRJfIX508ceQ/RkR7br7v7/yRNYonEEtlkdLlbIqv/El1+kGNz2M73tszb3r7FYMHcvbkDAgBAiiAAAkBO7Bi2YBzz0TQtkf9LWKTJeRNL18n5n1eJHyyRFtctlsjSe49hiay0da9zealN6W3ZRoxv8unxO9qbOyAAAKQIAiAA5MSOYQvGDC2RXj8hLBLG3y/QYom0u176aIn09oEZyxLZ6MPY26f55xTt7SmKfwpz7soMz7mncPMDAIAUQQAEgJzYMWRxFrNgtBJG/MD9lLBImp9giWx+vYzbvPOWSNN8l8mKv5mIf720t2fR27JVe/ve3PoAACBFEAABIAv2OfuKOZK2ti7obQvGkkczLBidFwJg2vy02ZnuuiWy+WGxRFbccw7iX4Mxdbu3ZSJvuBr8sB3vbflkTUxQYwEAQHJwcwKALNjxnnt2lORmnY330BI5cP42oiNhvGtwfrBEjtsUS2SUX3/2T9PbMuj1Qm/LGnsPYW+v9lMvfOavHv5IboAAAJAaCIAAkAVzp6a2mXVK31NL5OSUv5voSJfCu7vqnW0skeM2jSn+ddESaTLKHHpbZpLLe9nb0pz23nDd7NMOGzAAAKQHAiAAZMF6TS20LRjHfDQTS+TcYnQX0ZHwTXY4dVf1qMESOW7TpPqhGY2u45bIcn8N8SCnj/b2XHpbdtje7p0exx0QAACSq034CQAgB5x3C3N9K6p8wVhdGLlvVPAGYMIMC91lUJ9jiZx2D1giS++9fUvk+L926kFOy2+4VjgQ4t8so2wicnu3J3dAAABIDQRAAMgCJ7fQrmDsTj+0yftGvyE60mWq2NwC3LolMhfxD0ukTV5JxBJpH+PdyuWb/zO9LVu5Xip81Vk3cX4v7oAAAJAaCIAAkAXeFVtZTfA7ZIksVv35gVNER7oUIzdV/kx3ubelzWGxRFbcMyv+mgUH9nYlGOOWcW5tb3csAgIAAMmBAAgAWbDZG4BYIiVpcMiKr21BdKTLaNIvLF8w2oUGlsj6B0L8m2WUnVzxV0Zxbin+YW+PG+fecOsH/up3P3Dib+dzFwQAgJRAAASAPPAPEgCxRP6WkZ+7kOBIl6mBX1jrxGKJnOafsUS2kHgrfVXs7ZGvl5oxjvhX/+evEOODu+7SI7gLAgBASiAAAkAWOFcsaFowdtESuV7rEQBTvsk6Laxcimci/mGJNBoWK/5mnstt/OVdtLcHvYIy6G3p1os+gAAAkFZtwk8AADngCzcHS+Tm/zyaclsRHSnH7WBhXv3QSh4NS6R6Y4nMRfxrLZfLKM6xt8eNccs49zNVWbtyFwQAgJQY8RMAQLfzVbctkV5T2xAaCeP8NgoeZp3rbbnJHhD/Su89hCWy0Zmmt2XZXG73g3Rc/DPLMuF7Ww6825GbIAAApARvAAJAFjhpTp0JftctkYUGWIwSxkuPLH1yrfuhBdhXTEtk7e+HJTJZSyS9Laf75xR7WxrtJkRvS2+8k5BvuDqPAAgAAEmBAAgAWeArvwHYD0ukk3sM0ZE0j6lUMNYoYrFElvkaWCIrjzKEJbLmmOhtWebDlmcDe3u5TfyY3fMGIAAApAUCIADkgfMV3gDsjyXSyyMAps1jqxSMZtHZV0tkhQMh/s0yykCWyDpjyvpBToVc3ux3xN4eIggN7O07cQsEAICUQAAEgCxwhSspAPbLEunkHkt0pMnExMRA0qMqFoylgwRLZJl9WqmrKYp/CnPuElv0wyZsu2xvb1/8C5ZSHthhiN6WUeztWIABACAtEAABIAv8oIwFuI+WSP/IAydWsqBTgqzSM/eQtMC+KsYSWbL4DlP71x0WlsjKY/L2ZyFOjNfK5VEOPy5AjX7hntnbZ9jYYQEGAIDEQAAEgDzw5RYB6aElct7ceeueQoCkx3Aw9SzLgv6BD/Wht6UaX65YIs3zk/q+4q+M4hx7e9wY3+TTEXtbevkF3AkBACAlEAABIBPGWYB7bIn0Ooj4SJKDZjy5fbVEWu8rG0tkiuJftR8nnvjn6W3ZIM47I/6ZXYVt9rZ087gNAgBASiAAAkAmFKMUCsbyRWNES6RDAEyUg7BElo3zrlsirWjvrahK35belnZXb9Delka7CdHb0hvvpBV7u0cABACApEAABIAs8DO+AYgl0kkH7HP2FXOIknQ4eOLfdpf8o21iso+9LW0PhCVyllFGtESOO0q3c7lVOFuejZ7Y29vrbYkACAAASYEACAC5JKtRpRl4vyyRC3e+4/Z9iJJ0mHLuuZahgSWyzD6xRFbeV3RL5Mwf8hEHECuX09uyxt671dtyruQdd0QAAEiopgYASB+vTRcBwRK50WemiucTJQnh9AIbLQFLZLl9YomsvJPEVvy1+c5p5fLaP0oOvS1D3OVb6G2pwDH+qDd8fC43RAAASAUEQADIhVFp+aCHlkjv9NKJiQlyegI8+0Nf2s7JLbYIkl73tiz9YSyRlUeZmPiX1oOcdnN5Nr0t+2hvrzGwHbQ9NmAAAEgGikUAyAIv50rNw/triXzY5XOe9YdESvvMmyyW6sG9n1q3RMoozrFEltsFlkiTY/U1l1c4EOLfLKNMpLfl2uF6ai0AAEgGbkoAkBlYImfc58C9jPhIgOJB5wFLpM21l4Ml0lyY7aYlklxuF+exYjy4vd363CXU2xIAACAlEAABICOwRM76Ya8XHTlx/hbESXsc8r5/31NO+zctGOltaX74WTayfK8OSyS53PJybSByZ9Hbsvv2dgAAgJRAAASATCiwRI4//Nbr5sx5FbHSHlPevVmS65YlsvlhsURW3HOHLZHZ29vHin+JvOFq8MMi/imBBzkAAAB2IAACQN5gidz4H53esc/ZV8whMOLz3A9+cQdJr8ESaVgKVxBGuiH+WZ7JNC2RPuIA6G1Z//vlIf5ZRkyk3pYAAAAtggAIAD2iF5bIh+14660v4Vy3wPo5b5XXlnVjs7uWyBT7oRntJrAwYjLKTloi6W1ZIUDTuw+39IZr+Bgfk8sBAABaBgEQAPIFS+T0B3J658TEBPk9IodNXLC1nE4wLxg7YYm0um6wRFYeZS6WyD7m8lx6W2Jvt8nlAAAACUCBCAB50lrBmMVbUY+7fM6zXkSQxGPtcOokeW1rWjBiibQr37FE1vjtIlki+5rLKxwI8W+WUeZgbwcAAEgEBEAAyA/6oY0/kNOKQ067cEuCJTyLJs7fwxV6m2k80duy1H6wRM7yZXOwRJLLbb5fZr0tFTHGWfEXAADgdyAAAkBeYIkstUcvPcyt9+8iYCKE5EAflar2/rN8dwhLZLmNeCuqdPYwS15d7m0ZLZfHv7Vib28plwMAAIQFARAA8gFLZKWC0UsnP+99X3ksgROO50ycf4i8XmAazlgixx4I8W+WUebQD60TD3Kwt8eN8xTFP8tcDgAAEB4EQADoKFgiJc0thvoYsRCGAydWzh84fbLOScUS2SzOq+0PS2SjX8O6HxoPcurk8mBxTm9LJfCGKwAAQBwQAAGgg2CJ/B3ukEM+eOEJxIQ9Q3f3Ci89qp2CEUtk1CzCW1HhEleUXJ7ig5yGm9Pb0iaeEP8AAKBHIAACQMfAEjnNX89c9KELnkps2PHciX8/QtLrUi4YsUTW/2ER/xSmH1pr9nYZxTn29rgxbhnn+drbAQAArEAABIAOgSVyBuYNisE/HXXKvy0kRppzyPv/9WFy7rOSXDsFI5bIchthiSx3nBT7oXXoQU6FOEf8m2WUnbS3AwAAxAUBEAA6QoqWyDjiny+3v0ffNznvE8RJM/Y5+4o5U1PDf5K0feAqs/a+sESmWoljiUzxekkpl8eK8f71toxgb0f8AwCADEAABIDeQD80vfyQD3zlbURC7QBy265e/WlJ+1Y9oVgiy3wN3oqqPMrOWSLpbRk8jQWLccs4z9DeDgAAkAEIgADQAbBEVqj2Tjn4A195JTFTnee+90sfkNOrzaKzr5bICgdC/JtllD21RNLbsv4Pm53413jrFO3tAAAA7YEACACZ02VLZJCC0TnpnEM/9NXnETvlec57z18u6Z1VTyqWyGZxXjPGDXaDJbJxPGXc2zKTXB71a43dYYjelqz4CwAAYAoCIABkTNctkcEKxjm+8Ocd+v6vPoMYGs+i9/77Uuf1yXYKRiyRUbMIlsjKY/L2ZyFOjHcjlzc4Vs/s7Yh/AAAACIAAkCtYIhsWjFt5579xyAcuPJhYmpnn/MW/H+e9+/tq90sskeX2iSXSPD+p7yv+yijOsbfHjfFNPt253pYAAABpgAAIABmCJdKoYNxKKs4/5IMXvIiY2pzn/sX5b3Jyn5U0MoknLJF25XsQS2SK4p/lqcxzxd9sHuRUiPPOiH9mVyG9LQEAAGKAAAgAmYEl0ph58u4fD/3gBa8ltn4bPG7RX/z7hyV9RJKrekKxRJoffpaNYr1XV3HPWCIjn4EuP8gx2k2I3pbeeCed7G0JAACQDiN+AgDoGlgiK49p6L07++APfPWR69fPe8+qiYMm+xo7h01csPW6933pr73ci+qcUCyR9Q+EJXKWUXbOEsmDHOvfKl6MW8Z5H3pbOgEAAKQCbwACQEakY4nsYD80J/l3jObcd/Fz3n/+Q/oYXQdPfHnv9W7qSnm9yDQ6sUSOPRCWyFn21VNLJLm8/vejt6Wy6G0JAAAQGwRAAMiEtCyRtgVjw80N+6E56YChG1313Pd99Xl9iq5F7z3/5YUrvu2lR9U5qVgiy+wTS2TlnXTSEtnlXJ5Yb8sQ92F6W0bO5QAAAHZgAQaAToAlstmYNtnNjgNXfPngD1zw8dF6/dlXJg6/s6txc+DEBQ8dDqY+5qWjcygYsUTWHx2WSCViiYwc4yFyeS69Lftob0f8AwAAmBHeAASA7MESGaRgHMjrTZMj/XjRBy54eddi5sCJlaPnvu/8Nw0HU/8t6WgskdPtAUtk6b1jiTT5fjzICZLLE4rxTT7dud6WAAAAaYMACAA9AUtkzYJxN+f12YPff8GFz/3glx/ThUg4+L3/tv9wePeV8vqIpIVYIo0CLAdLpA+QV7BERv7heZBTM5e3H5qd722JWggAAGmDBRgAsgZLZP3RVSwYDxkU7n8Ofv8F/+wGwz/72rsO/XFusfKc939pP1f4dxbSYvn7l2bEEmnzzXKxRJoW6VgiLYMjbi6nt2XdOG8/xi3jvCVhGgAAoCUQAAEgW+KLf723RA4kLfHF1AsXvf+CC4Zu8OcXvvt5/5l6nCx6//nP9oXeocIfEbxuxxI59kBYImcZZU8tkTzIiZ7LI8d5hr0t6fsHAAAdBAEQALIkVj+0RvvKxhJZeT8DJx1R+GLxwe+/YKV3+uzk+gVfXDVx0N2pxMdhH7xgp3WT/iVy/hW+8E+zCw2foPiHJbLcbnyQXIAlMkac09sybozfv68Q9vZGZzrP3pYAAACpgAAIANmBJbJZ0WFYrjhJz3Fez5kzuveTB7//gn92Xn+3bmrBN1dNHDQZOy72PePcBVv+ZovD5PWKdZPFYZLmTBss9EOzifEZP9Z1S6SwRBrti96WAWLT6ty19IZr+BhPNZcDAACEBwEQALICS2SzMQV8K2oreb3CS6+YM7znN4ve9+XLnfxFzuui/Yorvj8xMVFYn7Yl5547/PWPt9h70mmR81qku/VsL80PU5xhiSz3YSyRlUfZU0tkFrk8lwc52NtbyOWIfwAAkB8IgACQDVgiEy4YN/6vLSUt8nKLvJMuHT795kXv+/JVkvuJ98WPndP/Dtycn3ztPYdeX2bvS849d3j7f2/x8MINHjsY+Me5wj/WOz329h/raV7a2nk1Pt9xCsZyH8ASWf/7YYlUx3pbtpzLKxwI8W+WUXbS3m45ZwEAAIgDAiAAdAwskXELxlLj3FnSIZI/xLkNi+8WflKL3vdlSbpTcnfL+7vl/F2S7pK0UF7bSNpK0la3/1hbaSANVGyoT12ZQ0awROYi/mGJtAlwLJHxElbnc3mK4l+gG0IO9vbWcjkAAEBcEAABIAt8KQMplsj4BWNjYWRryW8tl6ElMoeCEUtkCjE+/SitLZGZiH/Y25VgjFvGObkc8Q8AAFJlwE8AAN0AS2QnCsbGW2OJHLcplsg2YnyTT3euH1rJo0UX/8jlreVyelsCAAAkBwIgAHQALJGt/OYh+qFhibTZF5bIdHNUQv3QYg6A3pb1vx+9LdWxBzkAAADtgAAIAJljI/5hiWyrYMQSiSVSCca4ZZxjicy3t2UauTzoFURvS/vgAAAASBQEQADoD1gisy4YsUQ2jfGaX4K3orBENjjbWfS2JJeTyxuOibf/AAAgBxAAASBj8rFEdqNgtCzV0rRE+ogDwBJZ//thiRS9LcnlicR413O5DOMcAACgXRAAASBTutwPzWg3gYWRNApG27eiYsVmvpZIeluGivPwMb7hg/S2jJnL6W2ZVC5v7UEOAABAGiAAAkCGdL0fGpbINgpGLJH1f0feigoV5123RNLbklweMZcbZzXEPwAAyA0EQADIDCyR+RaMlmcaS+S4TemH1laMY4mkt2XXc7k33JoVfwEAAGKBAAgAGYElspXfHEukfWxa7QtLZLo5CktketdLTrncB4jNEA9yepjLgzzIAQAAiAACIAB0EyyRiRWMWCKxRCrBGLeMcyyRMXtbdj6Xm15hmeTyvj7IAQAAiAQCIABkApbIcrvpofiHJXKaf8YSGTfOsURm0duSXM6DnNRyOQAAQEQQAAGgW2CJTPeEJNQPLeYAsETW/35Z9rb0Tf6MJTKVXN4Z8c8sy3S9t2WKuRwAAMAWBEAA6A5YIu32jiUy3YKxR5bIoFcQvS3tg8NqX9k9yEk1l1vtjt6WiH8AANAFEAABoBtgibT7Ifsq/mGJHHsgLJGh4pzeluVzuVU4W54NcnlSudz43LHiLwAAdAUEQADoLIh/bRWMluVX1/uhYYmMG+cpin9WH9jwoS72QyOXtxXn9LZkxV8AAOgSCIAAkD/eeFKOJRJLZJQiD0tkuUul670tsUTGzeXti3/BUop5LrcaJ7kcAAAgBRAAASBvovVD462oyqPEEmlTMGKJTCzOsUTS29Iwl5vmu0xyeSbiH33/AACgayAAAkC+0A+towWjZZ2FJbLc4bFEhgjCflsiyeXk8hQf5KSVywEAAGKCAAgAeZKdJTLFgjHQCcESaVcwYom0iU0skZF/eHpbtpnLeZCTYC4HAABIAARAAMiPLC2RKRaMWCKTLhixRCYU45ZxjiUyWIzXyOXW100Kubz9GLfP5UEnD6FzOQAAQCIgAAJAXowV/7BE1ikYsUSGLhgt4xxLZNwY3+TTWCJt8gG9LdPN5bk8yMkhlwMAACQEAiAAdIguWyJTLBir/TjxxD+fYMGIJbLcbnyQYMQSGSPO6W0ZN8YtczkPcmLmcgAAgLZAAASAfOi1JTK1gnGTT9MPLWjBiCWyrXHS25LelmEzchq53OqrksuTDhkAAOg9CIAAkAdYIhMrGLFEYomsPzoskepQb8uWc3kuD3LI5S3k8rR6WwIAALQNAiAAZAuWyPpfGEtkswFgiaz//bBECkukZS6vcCDEv77lchnFOeIfAAB0AwRAAMgSLJFtjRNLJJZIo2DyAbIClsjIP3yX7e0pin+Bbgjk8piJCgAAoDUQAAEgO7BE1tg7lsiIBaPNYfvR27JnlshMxD/s7UbDIpdnnstDJFMAAID2QAAEgKzAEplAwdh4ayyR4zbFEtlGjG/yaXpbRohxcnmruTwX8a+1XB7sFgkAANAKCIAAkCFYIuMWjJbjxBI5blMskQnkFXpbBr1eEP8SyeWNzjQPcsrlcgAAgHRAAASAbMAS2VbBiCUy7ltRccQ/LJEhYtwyzuMK0/n2tkwjlwe9glrK5eFjPH4uN99XtLe4AQAAmoMACABZgCUyj4IRS2TTgtEynHkrKm6Mz/BXLJHkcnJ54Fzeod6WAAAAAUEABIBuU0EY6UbBaFmIYInEEln/+2GJFJbIaf85/BuuiH99y+UyivOWczkAAEBgEAABoLsE7YdmtJvAwkgaBSOWyHKbd7S3ZYgLG0tkctfLuE3pbZnAjTCHXJ7Lgxwf69oDAACwAwEQALpJ8H5oWCLbKBixRAaqV2cO0MTiHEukZXD01t5ufTmTy+1yuXFWiyn+0fcPAABSBwEQALoHlkgskcELxooHph9aYjGOJTK++Ie9PW6ce8Otu57LZRTniH8AAJA2CIAA0C2wRGKJNCqIzfaFJTLdJIElMr3rJadcnsuDHJ9CjMfN5Xk/yAEAAAgDAiAAdAcskelaIjMR/7BEKsEYt4xzLJFZWCJzyeXWVxAPciKfAcQ/AADoFwiAANBxsESGKBjz6odW8mhYIoUlsuzW9LYsF+fY28nlfcjlAAAAeYAACADdAEtkAgWjZYHXTUsk4l+NvXfaEklvyyZx3hnxzyzLdL23ZUdyOQAAQEsgAAJA/mCJxBKZWsHojYvPhC2RQa8gLJH2wWG1r+x6W6aay612R2/LLHI5AABAiyAAAkDe8FZUv8Q/LJFjD4QlMlScp2iJpLel9W9FLu/yg5xUczkAAEAcEAABIF8Q/9p5mzFYwTjmo1gixx4I8W+WUXbSEimjOMfenm8uT7G3JbkcAAAgRRAAASBPEi0Yg39pLJHmBXHSBWNfLZHWo8QSaRcUUeztieVyHyA2W+htSS5vMZcDAAAkAAIgAORHwv3QsETmUTBiiaw/OiyRorel1TfLJZeb5rtMcnkm4l/cXI74BwAAeYMACAAdAUtk3ILR6gOWBWPJo0UX/7BExo1zLJH0tiSXG2cPcjkAAEAHQAAEgLwIaolMsWAM9ONhiZThgW33hSUSS2RqsUlvyzi3slZyudXgLMW/dHK5/YMcAACA9kAABIB8CG6JTLFgxBKZdMGIJTKhGLeMcyyRwWK8Ri63vm5SyOXtx7h9Lg94o28tl9f+foh/AACQIAiAAJAHWCKxRAYvGG0GjyWyjRjf5NNYIm3yAb0t083luTzI6WMuR/wDAIBEQQAEgExB/DP+2SIWjBs+mF7BiCUybpx7w5oZS2S+lkhyeYgg7PeDHBb9AAAAmA4EQADoFK30QwvxLVp6KypOwUg/tHL77LolUv20ROYi/kWxRCbW2zLpXG71Vcnl8XM5AABAGiAAAkCGYImsPEoskREKRstwxhIZN8Zn+GtnelvaHLbzvS37mMvpbRk4lwMAAKQDAiAAZAaWyLgFo2WhgyWy3OGxRIYIQiyRzTalt2UbMR4hl9ccU7cf5ITP5QAAAG2AAAgAGYElMn7BiCWy3OYdtUT6ANcwlsjIP3yX7e0pin+Bbgjk8qDXC+IfAAD0AQRAAMiEwnDqjyWyjYIxLUukjfjXeUukaSGLJdIyOHppb8/iQQ65PMdcXvtHQecDAICMQAAEgKzBEln/u/XbEtn8sFgi24jxTT5Nb0ubfJCAJZIHOSFi3DKXe3J54NgEAAAIDQIgAGQLlshQ48QSGbRg7Lklkt6WzQZAb8v63y8P8c8yYuhtmVUuBwAACAwCIABkCZbIWcaEJbIzBWMXLZHtx7hlnMcVpultaf2bh4nxmLk8fIzHz+Xm+0L8AwAAkIQACAAZgiWyWcGIJbJpwWgZuFgi48b4DH/FElnlm5HLyeVBYryruRwAACAVEAABICu6UTBalg1YIrFE1v9+WCKFJXLafw7/VhTiX99yuYziPK/elgAAACmBAAgA3QJLZM2fJoIlMhfxD0ukeYxjiQycsKrui96W6d64yOXpXS8hczkAAEBEEAABIBuwROZRMPpIZzsLS6QPsDlvRdX4/bBElotxy+umfWGEXN6lXG6TTJPK5QAAAJFBAASALCjqVXvdLxgbb40lMljBWPFAiH+zjBJLZIQYr/klsLeTy6PkchnFeSK5HAAAoAUQAAGgG/TKEmn1VbFEBi0YsUTanDsskeldLzVjvBV7ey69LX0KMR43l/e2tyUAAEBLIAACQP7wVlSNsilf8Q9LpBKMccs4xxLZW0tkiFxufQXR2zLyGejYgxwAAIAWQQAEgLxB/KtRNqXYD63k0bBEit6WZTeJJP5hiRx7IOztfcrlPMgBAABIFQRAAMgXLJF2hUjr/dDSsUQi/tXYewhLZKMzTW/LcZsmZYnMQfwzyzL0tuxtLgcAAGgZBEAA6DW8FSX7fmgB9hXTEmlbMDbcvFe9LbFEmu8ru96WqeZyq93R2zLfXI74BwAA+YMACAB5giWy9YIRS2T9A2GJDBXnWCLLxbhlOFueDXJ5Urnc+Nz1trclAABAIiAAAkB+YIlssWAc81EskWMPhPg3yyixRAaVGrC3txXn3nDrrufy5odN6kEOAABAQoz4CQAgB5xzJzv57TS52V9q7a+QzX42ZzLgj9Dkz5v8darZ93ORzvuki/07OqNTPmV5BJuv6iyP7jba1aTF9TKplnB7Sf7sUmU9lshS+2nF3m6uxgR6kIO93WZfPbK3AwAAWIEACABZ8LV3HnolvwIAWHPAu77wZF8MN6rYsUSaH36WjSzfq+uZvT0T8S+uvT2O+OeNrxsAAIAYYAEGAAAAGFe3Y4kceyDs7bOMsnO9LUsejd6WAAAAyYAACAAAABDxrSh6WzYYkwKLfyYj3OTTnext2dIbrrPuIUV7OwAAQDogAAIAAEDPoR9auX223w8t7KIfVrtLd8XfWD8SvS0DxCYAAEBDEAABAACg12CJLPNhS0tkT1b8TUz8w95e/3dE/AMAgC6AAAgAAABQq+Kv9gEskfW/X3biX+OtvWloYG+vfyDEPwAA6AoIgAAAAACN6ncskeU28mmebB9ghNavYGay4q/5vrKztyP+AQBAuiAAAgAAANhU/9NvgSVSrPhb9vfLV/zD3g4AAJA2CIAAAAAAtSp+LJHlPor4V+7XsD133e5tyRuuAAAAVUEABAAAAKhcv2OJLLe/FMW/QEHjA0SN9Yq/9LYsNSbEPwAA6CIIgAAAAABYIkvt0Zv+jiV3w4q/lcfkI10U+fa2bLg54h8AAGQIAiAAAAD0GyyRpcbkI/2wiH8KI/61Zm+XUZyz4i8AAEATEAABAACgv6yr+gEskeU26rL4Zxkx3jQ00hP/8rG3I/4BAEDXQQAEAAAAKEWXLZFd74fW3qIflU5EJiv+mu+rR70tAQAA2gIBEAAAAKBa9T/9FjlYIhPuh8aKv/XHFFP862VvSwAAgA6AAAgAAAAwKx2yRFY4EOLfLKNMaMVfb7o/izjvYG9L3v4DAIAOgAAIAAAAUK7yj7evHlkiw/b9C3DuElv0wyZs0+lt2WhfiH8AAAAzggAIAAAAML7yn3krLJE2w2LF38pj8pHiPGZvyy7a2wEAAFIAARAAAACgJlgia45JiH8NB5bgir8yivNu2dsBAABSAQEQAAAAYPbqf/otsESq2+Kf5dnJc8XfbHpbVohzxD8AAOgrCIAAAAAAqlbwY4msOaYY566lRT8q/bIZiH9B9pVdb8vWdwMAAGAGAiAAAABAhbIdS2SzMfVrxV/bcxdT/KO3Zf3RIf4BAECKIAACAAAAlCzbsUQ2GJMCi38mI9zk0970TDcYnJX4V/Jokeztne9tCQAAkBAIgAAAAABYIkvuL0Xxz/IUprvir813TsveXvtHSVT8C5ZSAAAADEAABAAAgJ6DJTLqL8yKv5XH5CPFOb0tzSIIAAAgORAAAQAAAMYV9lgi1e0Vf73h1t40NNJb8bf5YeltCQAAEB8EQAAAAIDZCnsskUrTEmm56IfVOFnxd9ym2NsBAADaAQEQAAAAYKbCHkukbN+r69mKv5mIf3Ht7XHEP2983ZS/VBD/AAAgTRAAAQAAAKYr7LFEKtkVf3MQ/xqMKesVf7PsbZmivR0AAMAWBEAAAACATQv70nV8Pm9FdUb8MxnhJp/2pme6weAsxb+WFv2YdQ/0tgQAAGgLBEAAAACA5hJArU3T7YdmtJsQwog33kliK/7afOe0Vvyt/aPk0NsSAAAgExAAAQAAAB4Elsj6o8tuxd/ExD9v9TuZxLjNYTvf25K3/wAAIBMQAAEAAAAeqOWxRKo34l/jrb1paMRa9CMbe3uFAyH+AQAAjAcBEAAAAEBYImuPKfyZMVz0w+qr5rvir/m+srO3I/4BAEA/GfETQB845LQLt5wzucVcSfJz1m3t1vvh/cXeyLnBwpk/uX7svtfz89qxvhu/6PoujphAN/x11/c94JKK8Sk/eLSTxxJZd0wz7qZnK/5mIv5hb1eCMR5h7H5ipNV3PYV7QQ7VefFreRWSpPvm3S5J2vo+77b7yB38OADQOMXwE0BuHHLahTvP0dydC1/sLrldpWJXebebc9pZ0tbyfmvvtLWkrSVtt+HfNCyGazfM1aYkP3jwHK6YZao3GDuRLvcaLatEltrNYPxvnkPBOAheNFqvEjk+zseflubKRFctkYPNCkarl+/9Rrszs0T6Jmc6VWFk5t+8mviHJTKuMJKJ+Ke2Y7zk0aKLf9jbk+HGtdtopCuoIjKgeND9at79D6/WDuXXvFWSfi3pNkm3ybvb5IpfSfqV/OA2ueI6Sb+QG/5ct255vXvixDp+TADYFARASI7FH/rWdpqzfi/v9Uh5v5ekR0p64P/vLq85XoXcb2dhTvf/x4bJtLMqGMMWZ9EKxr6uEmk9SlaJtAuKPloifYDYxBJJLscS2UIutzoN1g9yWsjls+4B8Q8gANvc/397yd1fA0na6H/7QtrhrsKveetqyf9ccj+X9F/y7kfywx+53U+5jp8RoL8gAEJrLPrw17eZMxg+yQ3878n735PckyQ9yWvd9jO+lJdQwYiNJtXJNKtEJl0w9tUSKcs4xxKZby6PI/554+uGXB4mlwc4C63n8trfL+FcDpAhA0kPkdxDJO0vaYNI6Cbl17z1Djn/I8n9SF7fl9dl2vX0/3GOiwSgDyAAQhSO/uBFO9w7GjzTSc90TvtIepKkh/9ugu8aT6azttGM3QNP0lsrGBtv3fVVIpsfFktkGzG+yaexRNrkAx7kpJvLc3mQ08dcXvHHYMVfgEZsK+8OkHSAHijBfvnWu/wafVfefVsDXap1U992DzvzXn4qgO6BAAjmHDixcrTFAu0tp2fK+WdKeuZa6TGDwJNpm7oGS2ToyXS4Yh5LZPwfHktkmwVjGuKf5eCwROaSy/MQ/ywjpusPcuht2WYuB0iAhZIWyflF8pLmDNb6NW/9luS+rIH7stv5tJ/yEwF0AwRAMGHxmRftpanBIsktkvcHS9oWS2RLk2kskVgiGwYHlkijLBJYGGk/xu1zeUjhoK1cXvv75fAgx5z2cnn4GI+fy833xYMcgL4wT9IiyS9S4c/0q9/6v3L6suS/rNu2/hYLjADkCwIg1GLxmRftpfXuUDk9R3IHalI7lp8GYokMOpmucCAskc0KRiyRTWPcMpyxRMaNcctcjiWy6e9ILu9TLqdPcWgQ/wA2wekxkh4juZO0w113+NVvPV/OnaddfnGBc+dN8QMB5AMCIJRiYmJi8L2t/uCpzvsjvdwRmtQ+cm0WjHEn09nYaCpMprtoo8ESGSPOsUTGj3Eskb3L5RUOhPjXt1wuozi3FP/I5QA9Yls5HSf543TzHjf4NW/5ogbuPLfz6Zfy0wCkDwIgzMiSMy5bcI+/72Dn/ZHfkztS0i5+JtWv7mwPG41dwRjURmO0GyyRNieA3pZJFYxhwRJJLrfM5V23RJLLYz3I6WIuR/wDqHzRPFRyb1Th3+jXvPUqSZ9UcdcX3O7n3MOPA5AmCICwEUvOPXd433U77VvIHXdPse4YSVv/VvTDEhmhYLScf2OJzL1gTKu3pc1hsUS2EeOWcU5vy7xzeWoxTi6Pn8vpUwwAIe4Qfm9Jf6nBVqf7NSf9owr/Ebf7R/6H3wcgLRAAQZK0eMXF+zg3ePk91/kXS9plQzLHEoklsv73y65gbLw1lshgBWPFAyH+zTJKHuREiHFyeau5PBnxL9VcLqM4J5cD9JsZr5GtJXe8Bu6P/S9PulDSGW6XMy/i9wJIAwTAHvO8M1c+YjSl13jnXi7v9/AbzR6x0WCJTHUCHKgfGpZIm31hiUx3gp7Qg5zsc7n1vhD/Otjbkj7FTeIc8Q8gZUpdIwN5d5i8DvNrTrpK3n1Qu57x/5zjAgNoEwTAnrHk3HOH9/xip4PkdLymdLSXRpvPHLHRYKNJdTKNJdIyOOK+FRVH/MMSSS4nl4vellbxxIOc1nJ5rJ8G8Q8gdC7xktfekj9Xa076oV/tTteuW3/euYmC3xIgPgiAPeHI0y7Zs3D+j++5zr9KTrtZzaiw0bQ4ma5wIMS/ZgUjlsimMW4ZzrwVFTfGLXO5J5eTy8nlxkU2vS1TzeUAXaOG8Lc5T5b8Z7Xm12/1q9/yTrfbGRfwuwLEBQGw4yxecfE+TnpToeJYScMI8ynjgjH+ZDrMTdC4YOy5JTKNgtFycPS2jFIwYoms8dvR2zKVXI7417dcLqM4J5e3OV8B6AYm4t+DebLkv+xXn/QNTfmT3UM/chW/MUAcEAA7yMTExOCKLQ9c7J1/p6R9y6dsLJG9tERmYaPxRrvLrLdlgH3l29uy4eZYIm3iiQc5reXyWD9N/3pb0qc4bi5PrE8xuh+A8X2y0kX1XA11pV/95r/XSO9wO31kNb85QFgQADvEYR+7YOvBugWv/Z5zb5T3e7QzmcYSWa5gtLwPd91GgyUybsFoEzL2/dB4K4pcjiWSXJ5pLjc+d/S2NMzloSaVANlj/tbfTPsfSDpOkzrar37T+7XrvWc4d856fn+AMCAAdoAln1y51T336ESt0zskbVe9yscSiY2m6wWjZcRgiQxWMFY8EOJf33K5jOLcUvwjl8eNc/oU09sy1VwO0CWiiX8PZivJfVhrtjjWr3nT8W7Xj36X8wBgDwJgxjwg/N17r94hp+3aLxixRJbbvKM2mhCTDyyRyV0vQQvGnve2VMQYxxIZ+XrJKZf7ALEZ4kEOubwTuRzxDyDRuUSpTX2IYzxZ3l3m17z5rzSce7Lb6dS7OC8AdiAAZsjvhD/3duf89lgiQxeMNve1zttosEQmWzBiiVSCMW4Z51gisUQa5nLTKyyTXE6fYrurl96WAJnSylt/MzGQ1/GaXHeov+mNy93uH/sq5wfABgTAjDjsYxfMG0wueP2997p3Oee3n3XiaTyjwhLZ4mS6woEQ/0IVjJaFCZbIpgUjlkhyeb1cLqM4J5fnm8vpU1w+l1uFc9d7WwLkTvCFPpps/3A5d4Ff8+a/VHHPSW73c+7hfAE0Y8BPkENe9m7x6auWjNYvuNoVWiH57U2nL9hoIkymsUS2OqHBEpne9RKyYOxrb0ufQozHzeXZPMjpnSXSG2YZ+hTTpzjVXA6QfZFZcVNf8RryMhALnbw/Xm7B9/wv3/AUzhlAMxAAE+fw0y5+5uIzvvktJ3+u93pkWpNpbDTlCkbLezKWyPgFI5bIcnHeLUtk0CuI3pZRxAz7XI4lMv44eZBDn+JUczlA7iRl+VUJsfAJmhp8x9/0xjd5L8f5A6gHFuBEOezUbzxyOByeJuloqcBGY3k0LJHqjSWS3pbB54lYItuIcXJ5O7ncKpy7bonkQU6vcnkv+xQD5EwSC31U2/53f54vuY9o9RsP8rf5l7sdPn4n5xOgGrwBmBj7nH3FnCNWXPKm4XD4A0lHB0v4CdloYg4AG03XC0bLiKG3ZbCCsWKcI/7lkcuxRJLL6W3Zw1xe4UCIfwBtE+Otv2Di34P/4fla667wq096IucUoBoIgAlx5BkX/+Fud9/9Azn/EUlbBptM8yTdrmCMYqNpuDmWSJt4whJpd/WySmS0GMcSmVIu77olsp3eluTyruZyxD8A21zhK27auuV3mot5o394tPzU5f6mNx7N+QUoDxbgBDj81JW7DkbuVO/1MunBPQ2wRMYtGG3uczxJb6tg7LIlkt6WoYtrLJHCEmn1zXppicwkl9OnOKNcnlqMA+RKar3+SnzGl95+oaR/9qvfdKp23e5dzk0UnG+A2eENwFbzsXdHnLFy+XDofiyv4xRE/LNMx9hoghWMFSfTFIyhCkbLyiXzfmhj94AlMm6cY4nEEkkuN84e/cjl9CkG6HOxWXHT1N76K3UMJ+/fodW/+id/7Svnc84BZgcBsCUOPfObux1xxiX/Lu8+5aVtUplMxykYsdE0nUzH+mmwRApLpFWA5WCJ9AFiE0skubxHlkge5CSYy2fdA+IfQDepavkN0Luv6vZe4yy/4/b/Is1duNLf9NYdOf8AM4MA2AKLT1+1ZE5RXC3piLAFI5ZIbDSpTqaxRCZdMPbVEmma77BE5pvL44h/3vi6SSGXtx/j9rk8wFloPZfX/n697FMMkBudWeij+v6dniWt/aa/6U17EAcA00MPwIgcfurKXd1w8Gkn//x8CkbLeTE2muAFo9FkGkukOmaJlFGcY4mMG+OWuRxLZPlcbhXOPMiJP1+hT3GwXF7xx2DFX4DY1LkPtvzWn0ke2PQz7vFS8R1/w5sPdw/9yFXEBcDG8AZgJI44/ZIXD4buv2cW/wLdALBEmhdUZvvKxhKZYsEYuHLHEmlTMFaM886If2ZnEksklsj63y8P8c8yYuhtGTSXVzgQ4h9AbOq89ecr7j+G5VdWY9pNg6lV/sY37kdsAGwMbwAG5sCJlfO3WuhOkfwb40ymsURiiTScTFtPTrBEmp2BLloiYwVn8IIRS2R2ubz298vhQU6Hcnn4GI+fy8MU9znlcsQ/gLj5IbW3/oKNaRs5/zW/+o1Hut0+tpI4AdgAbwAG5KiPXPzYrRa670iKL/413hpLZNDJdIUDYYlsVjBiiWwa45bhjCUyboxb5nIskU1/R3J5n3I5fYqjSh6If9BLernQR9UxbSlffMmvef1ziBeADSAABuKI0y95eTE1uELSU+JNpqvl3/AFY9zJdDY2GiyRCRSMlpULlsgoBSOWyJZzOZbIJgdC/OtbLpdRnNOnOH4uB8iBHi/0Uf07bKFC5/sb37CIuAHAAmzOIadduOXcwbyzJP/ylCfTcQpGbDRNJ9Oxfhoskepvb0sskTaxSS4nl2OJJJe3mcut94X4B5B2/iy9aRcX+qi8/RZy/t/9jW84yj3k4xcRR9BneAPQkOeffsnD5g7mXyIpafEPG03TgtHyno0lMveCMa3eljaHxRLZRowHzuX0tswol6cW4+Ty+LmcPsUA0PTe1/mFPqpt77VA8v/mb3rds4kl6DMIgEYcvuKSP5iSv0Ly+1RNlthoGt4OsUSqN+Jf462xRAYrGCseCPEvVC6nt2W5GCeXt5rL6W0ZXBMglwN0iRQX+kjR8jt2qFtIgy/5G97wFGIK+goCoAGLV1xy/ND5iyTtHCynZTaZtvnOWCJDT6aDTlRa6G2pKDG+4YNYIpvFOQVjqFxudRq6aYlE/EsklycxXxnzUfoUjz0Q4h9AjGzIQh8Nk+Gm/7aNXHGBX/P6PYkv6CP0AGzAYR+7YN5w/RZnSf7V5dMUNpqkC0YskYkVjFgi474VFUf8wxJJLm8rl9f+UXppiaS3ZZjiuTu5PNZPg/gH/SS1t/5KfCalt/5m/8PuKvzX/c2ve7bb+aw1xBr0Cd4ArMlRH7lol9HklpdIenWrBWPjrbv+JN3qHoKNJvWCEUtkgHlSgIKRt6JCxLhlLscSSS4nl1vPx+htmWouB0iRqm/91bkuQlt+W3wTsWxy93qk1g++5NecvCUxB30CAbAGi8/81l5FMfqW9/6Z7UymA872eJJuVzBiiUygYLQMM0vxD0tkyDjHEikskS3lcsS/vuVyGcU5uTzf+QpAvLu9pr0mWOij/gTG76Opez/n/QSaCPQGgr0iR5zxzWe4YupyeT0678k0lshUCsZSR8nCRtP9t6JiTe7obZlqoYclMsXrJaVcHivG+/cghz7Fvc7liH/QC1joo9GN3tf8DtLRuunWDxB/0BcQACuw+PRLjpIvVqrKYh/YaGxvjdhohCWynYIRS2SgetW4YMQS2XYuxxIZtUQkl9vlcuOsRp9iw1wO0GlY6CPMjb7SeP7E3/S61xKL0AcQAEuy+PRLXu3k/1nSFu1MZrBEYqOp//2wRApLZMBSeLYDIf71LZfLKM4txT9yedw4p08xvS1TzeUAqRHjrb8A4l+jpGz0HZq99TfdmD7pr3/9gcQkdB0EwBIcecaqP3Pyf63KqyZ7ozkLNhpsNKlOgLFEhpnsWE4WjQtGLJHk8tRyufW+emmJbKdPcTzxz/Mgp0GcI/4BhJgPsNBHw+Rn+5295mhQnOtveMNDiU/oMgiAYzjy9FXv9V5/0d5kGhsNlshUJ9NYIi2DA0ukEoxxcnn8XI4lMv71xIOc+Gegyw9yUs3lAKnAQh+NtjcV/zZjJw2m/p+/eslc4hS6CgLgzJWKW3zGqjO89KdJFIyNt8YSGXQyXeFAiH/NCkZf78S2VDCWTTcxY7zml8ASSS6PkstlFOfk8s7l8ppjok9xhFxuMDrEP+hJgVlxUxb6GD9UY4HU65naZsdTiFXoKgiA08/g3JFnXPJR53VSu5PpgLM9nqTbFYxYIhMoGC3DrJuWSMS/PHI5lsg8cnlnxD+zLEOfYnJ5qrkcIJX5Lgt9NLy5h//OD+Dcm/0NJywhbqGLIABuwpJzzx0eccYlf+WlN7RbMAZ8kp6J+MeTdKNhYYmsPKYuWiJtC8aGm9Pb0iaeeJBjd/X21RJJn+Ke5/Ku9ykGSGROUWnTFu21Mw65Mwt9lMfpb/xNr3s88QtdAwHwQUxM+MF91+/8GUmvzqlgxEbTtGDs1mQa8U9hxD8skWMPhCWyT7mcBznhCiFyedBcbnzu6FOcai4HaJtUF/qoelF2aKGPamPaSt7/o//pG+YRy9AlEAB/N4NzV2z1zU966WXt3yysJtNWdQirREYpGPtqiUyiYLSca2CJzLdgTFH8s83lWT/IGbsHcnncOKe3JX2KU83lAK0XlhU3ZaGPAEm8+XfwerIWTH6QeIYugQB4P0ecccmH5fzyZCbTPEm3S+Y9epIedCKDJTKKmJFMwcgqkdFiHEukxWE7aon0AWKTPsXkcvoUA8SZA5TalIU+xg81skC68cdP8tefcBhxDV0BAVDS4tNX/amkt7c7mcYSmbeNhrei4sY5lshyMW553WCJ7GwuNz53PMgxzOWm+Y4+xeTyhrm8Vw9yAOpENgt92Ce76G/9bYqT01/6G07cgRiHLtB7AfCI0y850UnvbX8ybZXWsNEEKxgrHgjxL6QwYlWY0NsyeMFoFOdYIruWy61qBXJ5vrmcPsXZ5XKDHxbxD7oJC33UHlObC31suv3MH3+IVJxDnEMX6LUAeOTpK18p+Y/nNpmOUzBio2k6mY7102CJFL0trfaFJRJLJLncIgknnct5kJNHLudBDkAOsNCHwc3caP9mlt+Ztv8jf8Py44h5yJ3eCoCLV1x8qJf7S0mu3YIRSySWyFQn01giky4YsUQmFOOBczmWSLurt5eWSG+0u8we5GSey2t/vxwe5AB0Ahb6aLR9upbf2bb/uL/u9bsT+5AzvRQAjzzj4icO3OCfJI26UTBazoux0eQymcYSKSyR0/4zlsh8czmWyPK53CqceZATf75Cn+JguTyXBzm8/QfZw0IfjRJcegt9lP0O22gw+RHiH3KmdwLgUadcurv3g694aZtkbhxYIs0LKrN9ZWOJTLFgDFy5Z/BWVDa9LSvEeWfEP7OrEEsklsj63y8P8c8yYuhTHDSXVzgQ4h9A3WhmoY+GCS78dx73HZrNW5b465cfzbUAudIrAfCoUy5dWAwnvyzpYe1OprFEYok0nExbT2ywREY+A/S2bKVg7KMlMhfxD0tk1rk8fIyTy+PncsQ/ABb6aDCmPBb6KD8mp0/6X5ywHdcE5EhvBMAl5547LEaTn5fT3u1OplMsGMd8FEvk2ANhiQwV51giy8W4ZThjicw3l6f4IKflXN5LSyQPciyDg1yuBGMcICYs9BEmuSW50EfZHe+mkT+VawNypDcC4D3X7fwxSUe1P5m2SrtYIoMVjBUn01giQxWMlpULlsgoBSO9LVvO5VgimxwI8S9yLm91vlLyaPQpFiv+Qr9hoY9G2+e50EfZG8Rr/E0nHMA1ArnRCwHwyBWrjnNOr8ttMh2nYMRG03QyHeunwRIpLJFWJw5LJL0tyeUWSTjNXG597sjl6V0viedyxD/oBiz00ejmne9CH2XH5FQUZ3k/MeJagZzovAB41OmXPNU7nd1+wdhlSyQ2mtDFNZZI0dvS6pthicQSSS4Pemcll5PL+57LAfKGhT7C3LyzWuij7PZP0k1rlnPNQE50WgA8+hMX7VDI/7OkBd0oGC0rl8xtNGP3wJP01grGxlvT2zJYwVjxQIh/oXI5vS3L1w/k8tZyeS7iH7m8J7kcIAYs9FF7TF1b6KPs9t6/169+1U5cO5ALnRUAl5x77nD92tEXJO2ZzI0EG41dou+jJdIHiE0skZF/eCyR+RaM9LbkQU7975eH+GcZMfS2TCWXI/4BlI1eFvpomNCM9p+i5XdWttPk3A9xDUEudFYAvOf6XT4s6ZB2J9PYaLDRGE6mTUs7LJGWwRH3rag44p/5/ClrYSSzBzmZ5/La34/elvQpTuR6SSmXx/ppEP8gX1joo9H2XV7oo+z2Tq/y1x//TK4lyIFOCoBHrFj5Iif/1mQKxsZbY4kMOpmucCAskc0KRiyRTWPcMpzpbRk3xi1zOZbIpr8jubxPuZzelnnncoCQsNBHo2TW/YU+ym4/kNNHvZfjmoLU6ZwAeNgpKx8q586W6lyAWCIjfKFAk2lsNNFDE0sklshkC0YskXFjPIFcXuFAiH99y+UyinNyeZvzFQD7OzYLfTS8YYf/zuO+g2/hPMx0P/Z6pm5YdjTXFqROpwTAiQk/GM5xn5O0fTcm01gigxaMvbTReKPdYYnEEplqoYclMsXrJd9cTm/LpHI5fYrTzeWIf5ANLPRRe0x9XeijdF3lT/NXL5nLNQYp0ykB8IqFq/5MXgfmVDBiiWxaMFre+7FE5l4wYokMVK9mI4yQyy2Dg1yuBGO857ncOKvRp9gwlwMkDwt9hLlZRxZI21noY5r78LQvVeylhdu9lmsNUqYzAuBRZ168v+Te03T6go0mwcn0rHvARtNawdh4ayyRwQrGigdC/OtbLpdRnFuKf+RycnmqudyqbiaXA7QHC3002r5Vy2+Vj0cSSGf7iNOf+5++YWuuOUiVTgiALzhz5bZTxeDzkoYR5sERCkZsNOU2xxIZXxix+qpYIoMWjFgiyeWp5XLrffXSEtlOLo8n/nke5DSIc8Q/AKvrOLWFPlp+64+FPjbefvxHdtKC+97GdQep0gkBcP2UO9tJj2hvMo2NBktkqpNpLJGWwYElUgnGOLk8fi7HEhn/eqK3ZfwzQJ/i+LkcwHrm0YWFPgJ959qT0V4v9FF285P8muU7cw1CimQvAB5x+iUvdk5LkygYG2+NJTLoZLrCgRD/QgkjlooXlsimBSOWyBAxbpnL6W1JLs8sl9ccE32KI+Ryg9Eh/kE+sNBH7TGx0Mes9+CS32FLrZ96K9chpEjWAuDRn7hoB8l/tN3JdMDZHk/S7QpGLJEJFIyWYUZvyygFY2/EP8uI4UFOKrm8M+KfWZYhl5PLU83lAJZ3aBb6aHiDNtp/Zxf6KPudT/TX/PEuXJOQGlkLgOvWjj4uaZfqF3Nqk+l8xT+epBsNi7eiQleZaRWMUXpbNty8V70tsUSa7wtLZCs/e2dyOX2K7eYryedygLbuUSz0UW43LPRRc/9baq7oBQjJka0AeOTpK49w0ktyKRix0TQtGLs1mUb8E5ZIS2GkwoGwRPYpl/MgJ1xxQC4PmsuNzx29LVPN5QCBJ1czbspCH+N3w0Ifjc+Ddyf665c/hOsTUiJLAXDRh7++jXfuU5FuE4En01aDw0YTpWDEEtliwVhinhI9xi2FESyR8WO867lcRnFOLs83l9OnmAc5qeZyAKtrhIU+Giat8N953HfIcaGPchvPl6Z4CxCSIksBcP5ozpnyemiTyXQaBSOWyHKbY6NJXRiJUzBiiWwa57F+mv71tsQS2etc7gPEJn2KyeX0KQYwvm5Z6GP8UFnoI8B3XuavfeWuXK+QCtkJgItPX3WQnF7ZzmQaS2QWT9J7aaPBEmkZHFgi648OS6SwRPYtl5vmO/oU55vL44h/5g65VnI5QNPoZKEP+8knC33Yf2dJ8vM1Z/R6rltIhawEwAMnVo4G0kcluXYm01bpB0tk0Ml0hQMh/oUURqwKE3pbBi8YjeIcS6SwRJLLO5bL6VNcu5ZuK5cbjA7xD9KFhT5qb89CH7Pec8N8Z//A/3y9/9nx23D9QgpkJQAuXKg3e+n3cphMxykYsdE0nUznXzAGmlRhiUzveglZMAaxRGbQ25Jc3olc3sV+aDzIySOX8yAHoKV5apB5CAt9mHzncfekri30UW77bTS3OJ5rGFIgGwHw8FNX7iq597RTMGKJ5Em60bCwRFYeE5ZI88OHF0asryAskZnmcnpb1o3z9mPcPpfHEgDobRlzhgMQaybNQh/2xRULfdifh1m3f4u/9pXzuZ6hbbIRAN3QneGlbSpd3EkVjJbzYiyRuUymsUQKS6SlMFLhQFgiQ+VyLJG1a422crnB6HiQI/oUW+XyXvYpBogwR2Whj5JDZaGPKN95c3bVaM5xXNPQNlkIgIvPWHWAk45p9aaDJdK8oDLbF5bIaJbIeOKfp7dlgzjvjPhndhViicQSWf/78SBH9Cm2zOUVDoT4B/2FhT4MkpTR/lnow25M/q3eV1nLAMCe5AXAfc6+Yo7zOkulF/7AEpl0wYglMqGCsXqcxykY6YfWVBiJ9dMELxj7aInMRfzDEplYLrf6quTyfHM54h90BRb6qL09C33Mep8N850rCdWP1Q2vfh7XOLRJ8gLgbnf/5nhJT4o7mcZGgyUy1ck0lkjTkMQSKSyRieVy43OHJZJc3ih70Nsyo1yeWowDhLmvNYtXFvow+c7j7kP9XOijRKx6yetNXOfQJkkLgEs+uXIryb+n9JUV4kl6EgVjibzeSsGIJZKC0bJywRIZpWDEEkkuTy2XVzgQuTxULudBTvnamlwOEKaiYqEPgwQV9juP+w4s9DHDpg/e3h3if/7Hj+eah7ZIWgC89z6dLGnXlCfTcQpGbDRNJ9Oxfpo8JtNYIrFEJhybWCLJ5VgiW8jlVqeBPsW55HLEP0gyl5XalIU+xg+VhT6ifOdSsbrZZ5wG/g1c99AWyQqAh33smztJ7qS4BWOXn6RjowldXGOJFL0trb4ZlkgskVnl8jjin7mjiFxOLu9xLgdoHxb6CFNMsdCH/XeuM2eadftX+Otfsz05ANogWQFwsK6YkLR1fgWjZWGSuY1m7B54kt5awdh4665bIlssGCseCPEvVC7HElm79mgrlxuMDvFP9Cm2yuUVfwxW/IV+wUIftbdnoY9Z761hvrO5UL2FvHsVeQDaIEkBcPGZ39rLOf1xKzchLJF2CbOPlkgfIDaxREb+4bFEtlkw8iAnwVw+6x54kNNqLk9ivjLmo/S2HHsgxD/oFyz00TAp1fsOMvwOLPQxS6yW/Yw/wfuJAfkAYpNm0E1NfUjS3DiTaWw02GgMJ9OmxQKWSMvgwBJplEUCCyPtx7h9Lo9VMPEgJ1Uxgz7FKV4vKeXyWD8N4h+0ngtZ6KNpUgr/ncd9Bxb6mGHTyt/hkbru+oPICxCb5ATAI8+4+InO6UVxJtNYIrFEGkYQlsgWCsaSR8MSKSyRsXM5lsimvyO5vE+5nD7FeedyAOvrkoU+xg+VhT6ifOdSsVrzGM4fT26A2KT3BqAf/Pns42rHEhlP/PPYaBpMprtoo8ESGSPOsUTGj3Eskb3L5RUOhPjXt1wuozi3FP/I5QA2OZ6FPgwSksH+WejD/h7S+Dy8wF/zx7uQJyAmSQmAi8+85PFeemGKk+k4BSM2mqaT6Vg/DZZI0dvSKsCwRJLLyeUWSbjDwgi5PNaDnM7ncsQ/aCt3lY5NFvoYvxsW+gjznVsRqudq6F9JroCYJCUAuqJ498xjwkZjekvGRiMske0UjGn1trQ5LJbINmK867kcS2TU0pRcnnkup09x29cTQLP7Dgt9jN8NC31EPQ+zxqrheXD+eBYDgZgkE2yHnfqNR0ruxWUuTGw0CU6mZ90DNpr4wohVxGCJDFYwVjwQ4l/fcrmM4hxLZL65nD7F9ClONZcD1BQ7NtuUhT4CJFex0EeIWA32nffSddc9h9wBsUhGABwOhu+WNLItxkIWjNhoym2OJTJ1YSROwYglsmmcUzCSy4Pncut99dISSZ/iuDGeVy5H/INuw0IftcfEQh+z3kuDf+dSsRryPLhXkD8gFkkIgEd+9NI95PTSsJNpbDRYIlOdTGdiicxE/MMSqQRjnFweP5djiYx/PfEgJ/4ZoE9x/FwOMF3EsdCH/YSShT7sv3Od+0aE8+CKF/qfHb8NuQRikIQA6CfXv13S3CgFY+OtsUQGnUxXOBDiXyhhhN6W5edqWCLjxnmKudwnmsutahJyObm8D7ncKpy73qcYoOl1yEIf5XbDQh9hvnOyQvUCzVn3QvIJxKB1AfAFZ67cdvrXXtux0VT+ME/S7QpGLJEJFIyWYdZNSyTiX5vCSLX5fZxczoOcJnHeGfHPLMvQp5hcnmouB2h6r2Ghj3ITBxb6iHYeZo3V6EI1NmCIQusC4OSUO17SVuEKRiyRvXySnoWNBktk0gVjlN6WDTent6VNPPEgx+7q7aslkj7FPc/lKfa2BAh4b2ehjwAFEwt92J+HVN/6m+4z7gB/3SseSX6B0LQqAC4599yhnJanUjBio7G4lyUymTb4YRH/hCXSUhipcCAskX3K5TzIIZdnmsuNzx29LQ1zeahJJQALfdQfEwt9zHr/DP6dS8Vqq0K1kx8eR46B0LQqAN53wy4vlLRnmFINGw02mq4XjJYRgyUyWMFYMc4R//qWy2UU5+TyfHM5fYp5kJNqLgd4cGD1baGPVN/6Y6EP+3l/KkK1f5n3cuQbCEmrAqD3/k2zTabTKBgj2GgC7AsbTaoTYCyRKV4vQQtGVonsTy7HEpluLvcBYpM+xeRy+hRDL+jrQh9q/h1Y6EPNav3QC30kYE/feJNH6oaXP52cAyFpTQBcvOLifSTtZz+ZxhKZxZP0XGw0WCKTLRixRNYfHZZIYYnsWy43zXf0Kc43l8cR/7rRpxigzrXHQh/jd8NCH1HPg2msRhCqp9wx5B0ISWsCoHPupDCTaatLEktk0Ml0hQMh/oUURqwKE3pbBi8YjeIcS6SwRJLLO5bL6VNcuw5vK5cbjA7xD8JXSSz0YZ90UlvoI+Jbfyz0MSaJ+wdEkmO8XzIkB0EoWhEAj/7ERTtI7kVtT6bjFIzYaJpOpvMvGANV8Fgi07teQhaMQSyRGfS2JJd3Ipd3RvwzO5P0Kaa3Zf3vh/gH0eaaQeYSLPQRbkxVPh5JIGWhjzE/42bb76afb3kAeQhC0YoAOHnf6OWS5vEk3Tbx8CTdaFhYIiuPCUuk+eHDCyPWVxCWyExzOb0t44+TPsX0tow5wwGoEvQs9GFfILHQR9TzMOOmGQnVA2EDhmC0IgD6gV6ZlfiHJXKaf+ZJelxhhN6WWCLNIghLJLkcSyS5nFxuGIKs+Av5w0Iftb8DC33Mer+Mdh5m3DS5hT7KfIcl/uolc8lLEILoAuARZ67aV15PDnLDSshGE3MAWCK7XjBanh16WwYrGCvGOZbIPHI5lkhyOb0te5jLKxwI8Q/yxouFPhonmua/Kwt9BLo3JLrQx3i218KtDiI/QQiiC4C+8K/BEpl4wdijJ+lBJ1T0towiZiRTMGKJjBbj9La0OCyWyPi53OqrksvzzeWIf5BYfquyKQt9lBwqC33Yn4eOLfRRbvd/RI6CEEQVAJd8cuVWTlqKjSZmwWh5j+NJevyCEUsklsj6o8MSqQ49yGk5l/fSEklvS8vgIJcrwRiH/sJCH7XHxEIfs94rg3/nUrHaBaG6eAGrAUMIogqA997nXiKvha1OnIJOprHRNJlMUzCGFEasKhcskVEKRiyR5PLUcnmFA5HLQ+VyHuSUi3FyOUAFZaLEpiz0YTw5EAt9hJr7dEqo3lnXb7E/OQusiWsB9v7VbUym4xSM2GiaTqZj/TR5TKaxRGKJNIpNHyA2sUSSy7FEtpDLrU4DD3JyyeWIfxAsH5XalIU+yn01FvqIdh5m3DTLhT7Gf2evo8lbYE00AXDxmRftJemZzacvXX6Sjo0mdHGNJVL0trT6ZrlYIk3zHZbIfHN5HPHP/IUEcnmQXB5LTMj3QU4auRzAjjsrahAs9DF+Nyz0EfU8zLhptgt9lNn+Rd7Lkb/AkmgC4KAYvkSSwxLZcLrNk3RhiYxdMJaY/0QvGC3ndFgi48a4ZS7HElm7bmkrlxuMDvFP9Cm2yuUVfwxW/IVO06n+aSz0EWRMLPRRIlmbjumhuv64fUhOYEk8C7DXi81mfVgi7RIblsjEhJGAlTuWSJuCsUacd61g5EFOgrl81j3wIKfVXJ7EfMWylqW3ZVdyOUCzOGOhj3BjqvJxFvpoZUyxhOpi8AISFFgSRQA8csXKx3np97BEJlYwYolMrGDEEokl0iiLBBZG2o9x+1weUjhoK5fX/n45PMgJUf22lMvDx3j8XB6m4Gs3l7cyX0H8gwipj4U+yg6VhT6inocZN+2ZUD3wR5CowJI4bwB6fyyWyNAFo+U9jyfpqReMWCIDzOvaEkYMRoclUlgirXJ5Lg9yyOUt5HL6FAefLgfN5QDTBRwLfZT7aiz0Ee08zLhpRxf6GP+Rp/hrX/kIEhZYEUUALNzgxSY78k3+nOeT9GxsNBUm01200WCJjBHnWCLjxziWyN7l8goHQvzrWy6XUZxbin/kcoBawcZCHxUmAyz0Ee08zLhppxf6GH/AYXE4iQusCC4ALl5x8T6Sf0yMyXScghEbTdPJdKyfBkuk6G1pFWBYIrFEksstknCHhRFyeawHOZ3P5Yh/EDxVsdBHuaGy0If9eWChj5rbYwMGM4ILgE51F//AEomNpv7osESqQ70tLed3WCLjxnjXczmWyCi1Krm8I7mcPsVtX08Qn/Xr7plMYiBzRiMW+ig71MgCTxJv/W1+Twz6nUtt2kehesZYfY6/eclWZFSwILgA6DV4fruTaauZFpbIKAVjbyyR9LbEEmkYQX0V/7BEkstTyuXJiH+p5nIZxTm5HPJh/uRobRIDmdI8FvowT5AyWeijjfOw2f2QhT7GD7lFe7rXPP1mwXPJqGBBUAHweadc/Njq9l9sNFgiU50AB+qHhiUygjCCJbKV68Usl1udBiyRueRyeluKPsUt5XLEP7C87K88Z9n6JEYyGsw1FUeqXjks9CEW+iizaU8X+igjVDstJqWCye0g5M4Hg8FR1S8Yq4IRS2SwyTSWyHTfispE/MMSqQRj3DLOyeVYIlMVM+htGaagipHL6VMM2bEumZEUU/OlYYAAryOmhL7oUuv1V+d+EUkEy36hD+NYSumtv805hJQKFgR9A9AN/JGhLhgskS1OpiscCPEvlDBCb8vy907eioob5xmKf1giyeXk8sob8yAn1VwOCbE2mZEUc+ZFEy8e/GcW+hALfZTZlIU+SsTqw/31L3sUaRWaEkwAPPSMr24vr30tC53aH+ZJul3BiCUygYLRMszobRmlYMQSWeO340FOKrm8M+KfWZbpei6XUZyTy/Odr4AR6bwBOJya20gcqbo9C32onuVXtudhzHwv+HceuykLfVSarE7qYNIqNCWYADjy8w5XaYsxlsi4T9LjiH/m97mshZHMelsG2Fe+vS0bbo4l0iaeeJDTWi6P9dMEF0a88U7oU5xZLk+sTzG6Xx9I6A1AzbMJRBb6qLx9sFV+q871WOhj/JBbXehj/B+cW0RahaYEEwC91xFxJ9NYImvfB9uaTBuMDvFPWCKthJGKPwaWyD7lciyR5PJMc7nxuaO3pWEuDzWphJS4J5mReD+vsjhSNV5Z6EMs9FFmUxb6aFB/PMf7JUMBNCCIALjP2VfMcdLz4k6mreoQLJFRCkYskS0WjHXuN6Fj3FIYoR9a/BjHEkku73oup08xvS1TzeWQML9Kp+Ibzqsfx53on6aoAk+wt/5qfIfsF/pAqH4Q2+rn83+f1AqNbgchdrrrr+9+lqRt4hWMWCLLbd5RG02IigRLZHLXS9CCkVUio8U4lkhyeZSUYp7LrcZJLs83lyP+QWVuTehWvW0QsYOFPsRCH2U3ZaGPcrE65hhO2IChEUEEQOf8c3MtGHmSHqhezWYyjSXSMjiwRNYfHZZIYYnsWy43zXeZ5HL6FNtdvb3sUwxp4xMSAIsdWegj1JiqHI6FPloZU04LfYwHARAaEUQA9M4dZHVBY4lscTJd4UCIfyGFEavCpOu9LbFExo1zcjmWSHK5cfYgl5uGc9cf5EDqOLnb0hmN38E03lnoQ9VvNCz0Efw8lBpy4gt9jGc/v+a4LcmwUBdzAfDIifO3kPwzA86nAhSM2GiaTqbzLxgDVfBYItO7XkIWjEEskRn0tuxhLs/mQU6FOO+M+Gd2FdKnmN6W9b8f4h/4lATAgdvRJC+w0IdY6KPMpiz0UW6otc7DXN3rDyDDQu3bgfket9ji2VKJpeaxREYoGC2L+Thno73JNJbIpAvGXlsiU4vxwLmcBzl2V29fe1t6453QpzhSMqVPMXQL74t0BECvHRuLHSz0IRb6KLMpC32U+2oNxuQcNmCozch6h8Vw8JyxEzIskREKxm5NprFECkukpTBS4UBYIkPlciyRtWuctnK5weh4kCP6FFvl8l72KYacGKS0CIi0U+2rIxULpV0SVJy3/hR+TEkJfy3Hhlkez2FRGo8ACE3uTeaF0XNymkzb5GwskSEn03kUjA3nUkFi3FIYwRKZb8FIb8scczkPctqKcx7k0Kc41VwOueGc/3lCw9lx+mjtXf80sdBHiPzeor12xl1mvdDHuO2f7K995a5kWaiDqQD4gjNXbuukp4UrGLFEBptMJ/wkPRztCSNxCkYskU2FkVg/Db0t1d8HOVgiE8vlVl+VXJ5vLkf8Axvc1PAXCQ1nx8rXCwt9iIU+ymzakr121l12Xqh2cuufQ5aFOpgKgOsL/weShjkUjNho6h+It6JCCSP0tqw9B2xLGDEYHZZIdehBTsu5vJeWSHpbksvj3Vnby+WQIXdfec6yJCzA3k8MJG1X+qpgoQ+FX+gj1bf+MlvoY9pY7YtQTR9AqIdtD8DCHSAXovzCRhOsYKw4maZgDCmMWFUumfdDG7sHLJFx4xxLJJZIcrlx9uhHLqdPMfSbnyczkhtv213D4Yj+aWHuB9FEsOwX+jCOpZTe+ov1nTeGlYChFqZvADqnZ9dPnjEKRmw0TSfT+ReMCnPusETaXS99tET6ALGJJZJc3qN+aDzISTCXz7oHxD/oPD9Pp9ob7EX/tBpjMn/rr+aYKh0m4BtwXolaflNdkTrk9SNJ/lH+umN2J9VC5VuC1Y6WnHHZAi/3NNvJNJbI2nmnrcm0dSGHJbLymOhtaX748MKI6RWGJTLfXE5vy7px3n6M2+fyAGeh9Vxe+/v1srcl5Ixz7ucJDWavatcXC32w0Md0m7LQR7mhRhRI/WB/si1UxUwAvGdy3e9Lfi6WSJ6kN/l+WCLVMUukzXwQS2TsGLcURrBElotxy3Cmt2XcGLfM5fQpbvo7suIvpEDh/bXpjMbvWT6IWejD/r7IQh8m3wGhevNYLdyzybZQFbMegM7p2R5LJE/SrSrxZAvGwJU7lkibgrFGnHetYMQSmWAun3UPPMhpNZcnMV+xrIPpbdmVXA6Z4v3VyYzFaa/NwjP5/mktjMlH+s4V7nHRzoNpLRbgrb82zkO4G7RhrDr6AEJlzN4A9K7Y365gxBIZbDKdlSUyxYIRS2QXLZE+UnBiiRSWSKvv10tLZHu5PHyMx8/lYYrFdnN5K/MVxD+YrsAaTf4omcEU2mv2AE6xf1rENxGDWX5V/Ttkv9BH7uJf1RWpW7h+Nr5+n+x/tmQbMi5Uuj/ZzA+9k7SvTdhjiQw6ma5wICynYcNTAACAAElEQVSRoYQRLJG154RtCSMGo8MSKSyRVrm8l5ZIcrllcJDLlWCMQ4f41fc/8YabkhmNu18ApH+aWOij7KYs9BEmVs2F6qEG8/YVQAVMBMDFK1Y9UdL2Za6FeOKfx0bTYDLdmYLRrDjAEoklsv73wxIpLJGWubzCgRD/+pbLZRTnluIfuRz6hk/m7T9/0/FbSNqF/mnT5H8W+phmUxb6CDABVVCh2nv6AEIlTHoA+oH2d3Wu/2AFIzaappPpWD9N8Ml0Hy2R9LZMqmAMPLXHEkkuF5ZIcnmrudx6X4h/kD3uv5IZymD+Xirk4gkXY29+BscI3esv0ph8S+dhxk1bEoVn3ST3t/4ajqnMR13xB+RcqHRbMNmJ9/tjiYxRMFrOv7FE5l4wptXb0vJ+iyUyboxbxjm9LfPO5anFOLk8fi6nTzFA89rAJ9T/zz3ZXByZdfsq/dNijanKxyO9AedbOA8zbtqivXbGIbMidfkbnHuGv/aV88m8UBYTAdB77WedJrBETrcHnqS3VjA23hpLZLCCseKBEP9CCSM8yCk/pySXt5bLkxH/Us3lVrUTuRx6XFx598NkBuPcU1joQyz0MeOmLPQx/qu1vdDH2DHN02D9PmReKH2ParqDw09duaukR7Y/mcYSmUvBGJZA/dCwREYQRrBEtnK9mAkjVqeBBzm55HJ6W4o+xS3lcsQ/SJi126yd9/10bvNTTzERR+psz0Ifm9/TWOhjTIJloY9aQnVRHEDqhbI07gHoVBygB7eWaGUyjY0m0OEzm0xjibQMjrhvRcUR/7BEhohx+1we4Cy0nstrf79eWiLpbZni9ZJSLo/10yD+QY2ouXLVZ151XzrjcU8Jd+F0oH9arJ6I2b/1Z3zeUun1ZxqvMd76m+lPAxYCgdI0fgPQS/u3WzBaXrvYaEIXjFgi2y4YSx6tr/3QsES2mMs9uZxcTi43LjTobZlqLofu4i5LZSR+9Rt2krRruWjva/+0kLnEb0jCwd76q5O/U3vrL9aYqgw1wxWpnX+290uG5F8oQ2MB0Dm3v8lsjyfpdgUjlsgECkbLMMMSGaVgxBJZ47ejt2UquRzxr2+5XEZxTi7Pd74CKeK9vyydweipYYQLFvqoej+Ldh5m3JSFPgJMOJWQUL2Nrh09kQwMZWgkAB5y2oVbStq78fQNS6TddNx6Mp2FjQZLZFxhBEtkG7N4LJHpXS/lcjmWyFaul5xyOX2KbeYrIXI5uh9UZO6guDyZwTg9xTbAWeij9HdgoY8xf2ahD3OheuDpAwjlQqXZTW7OszRNH0EskRb30EQm0wY/LOKfsERaCSMVfwzeigoV51gia9dD5HJyeYikGjLGo+byBpuHyOWhJpXQVX72vbNOXJPMaPxM/f9Y6CPYmFjoo0RuZqGPIEK1d/QBhFI0WgTEF9qv8TQJS+Q0e8BGE18YsYoYLJHBCsaKB0L8CymMpJjLZRTnHXyQ08feluTy4Dc9cjnAZhF0aWIDepqN2BEsqTUfEwt9zLApC32EidcWF/oY/xneAIRSNHoD0EvPjj+ZxhKZS8EYeJKFJTLB6yVowUhvy2gxjiUy8vWSUy73AWIzxIOcHuZyelv2IZdD4mXV15K569/01h0lPW7joKZ/WpDtWeijxC5Z6COMPX2jzzzE//y4PcnDMPZOVfeDExMTAyc9s42CkSfp9X9H3ooKJYxgiaw9X2xLGLG+nLFE2uVy46yGJdIwl5teYZnkch7k2F299LaE7lK40ZyvpzOc9QdIckbCQgkRg4U+wnxnFvqwLzw6LFQXU7wFCGOpLQB+b8FBj5W0TbyC0fJaxhIZtWDsq/iHJXKaf8YSGTfOsURiiSSXG2cPcrlpOHe9tyX0B/f973/81bckNKBnmwoLLPSx+XdgoY8xf2ahj+hCtSv2JxfDOOr3ABwWz6iVgHmSblcwYolMoGC0DDMskVEKxr72tvRN/owlMpVc3hnxzyzLdL23JX2K883l0C+KCxOb5/5B+Dlop/qn1ZqjBf/OpTZt+a0/k3yc4lt/YecjYcbknkkuhnHUfgPQyT+98vQtE/GPJ+lGw8ISWXlMWCLNDx9EGAl6BdHbMoqYYZ/LsUTGHye9LelTnGouh77hBi4ZAdDf/LqtJO1tcnPrT/+0ctsn99ZfS/baGXcZ2V5b6tC9WpH6Sf7qJVuRkWE2aguAhXfPwEbTtGDs1mQa8U/0trQURiocCEtkqDint2X5XG4Vzl23RPIgp1e5vJd9iqGH3DVY7y5PZjTr3b4q7fKif1rp+xYLfYzZZe4LfaRqT6/0HYZa4J5GSobZqCUAHvaxC+ZJ/snh6xAskVEKxr5aIpMoGC3nWVgi8y0YsUSaXrtYIkVvS3J5Erm8woEQ/yBjvnrlOcvWJzMaNzyg3FXAQh9V71thvjMLfTS8QbUUq4kK1Ro8g5QMs1GrB6BbO39vSfPCTqaxRAY6fJDJdDiwRIa5SSRcMGKJjBbjWCItDttRS6T57aCd3pbk8q7mcsQ/SAfndG5ic+cDGlzwLQgXdebokUSw7Bf6MN4+pbf+QsRene1bX5RmszkWfQBhVmq9Aei8f0aMghFLZP1EhyUylDCCJbL2PbktYcRgdFgixYOc4Lm8weYhcrlpvsskl9OnON1cnsuDHOgj90xtscVXUhmMv+XtCyXtN/MVQP+00vesYJbfqm/9xToPVRNo7uJfR1ak9pu9pcobgDArtQRA79zTw06msdE0ORDiX0hhxKowwRIZvGA0inMskV3L5VZzT3J5vrmcPsXl66tEcrnBD4v4B4H48g9XvPw3yYxm/b0HS5pb6WJnoY+Nt2ehjzG7ZKGPpITqzdnDX3fM7qRmmIm6i4A8I1zBiI2m6WQ61k+Tx2QaSySWSKPYxBJJLheWyPYuoa4/yEmnTzEPcgCq4M5LazhaXPGGZiNEsNBHgDkIC32MH2ovF/rQWKF6yj+d3AwzUVkAXPThr28j6dGhijNsNBEm0wajwxIpLJFW3wxLJJbIrHJ5HPGvG5ZI38/elpnn8trfL4cHOQC23FNsueCCVAbjvZyk540VFlJ566/0zY6FPoKfh7FDZqGPrIRq77ABw4xUXgRk3nD0dC8/sJ8XY6PJZTKNJVJYIi2FkQoHwhIZShjBEll7/tlWLjcYHQ9yRJ9iq1yey4Mc3v4D2+vogqTsv6tPfKqk3evdzFjoI+gxSm/KQh/2sWowpvQW+hgDAiDMTB0L8DNDTaZtro90bDSN9pWNJTLFgjFw5Z7BW1HZ9LasEOedEf/MrkIskVgi63+/PMQ/y4ihT3HQXF7hQIh/0Bmc+0xi41lM/7SK9ykW+hiTNFnoI9GFPsbsv3i69xMDAUxD5cDwesBTjiUy2GQ6K0tkigUjlsgsCsa+9rbEEpldLq/9/XppiWwvl4ePcXJ5/FyO+Adp4qU12+6y+sKkBlXo8GoaCAt9BP/OpTZloY9yQ2Whjwr730a/+J/HkqlhOmoIgHo6lsjAk+kKB8ISGUoYwRJZLsYtwxlLZNwYtxRGsEQ2/R3J5X3K5fQpDg3iH4TGSX+7amJiMpXx+JuO31FOTw9UZImFPgKMiYU+Sg6VhT5q/a7ePZNMDdNRSQA85PRLHubkd7eb0WGJbDKZxhIZUhixqlywREYpGLFE1vjtsEQGzeUVDoT417dcLqM4p09x/FwOsIHhlPu7pAbk5x0laWgvpkgs9GE8Jhb6CDWJVK8W+hh7Hjx9AGFaKi0CMpqaeoac1cQXG03TyXSsnwZLpPrb2xJLZNbCSPgYJ5fHz+Vdt0SSy+lTXP/7If5BpDx1yZXnLP9xUkMa6NjfhjsLfWy+PQt9jNmEhT7yW+hj3DFYCARmul1UCTHnn2412cRGE2EybTA6LJHqUG9Ly3s1lsi4MW4Z5/mKf+RyJRjj5PL4uZw+xQBt4pz7m5TG429+3a7y/sDZLx8W+qj8HSy3Z6GPCrthoQ+T7+z9k/31SxaQsWFTKgmATpv0luijjWbsHniS3lrB2HhrLJHBCsaKB0L8CyWM0Nuy/HyUXN5aLqe3ZegUSy4HqM9tg0n3/5Ia0eRwqbyGLPSxyfYs9DFmlyz0kflCH+OYo7XDp5KyYVPKC4DeO0lPtZhM2xSMWCJDT6bDEagfGpbICMIIlshWrhczYcTqNNDbMpdcTm9L8SCnpVyO+AddxEmfuvKcZfekNU3wxwQRR6puz0IfM2zKQh/jh8pCH0HOgytYCAQ2o3QPwOd9eNXDNdJ2TQpGuykZNpp8J9NYIi2DA0ukEoxxyzjPrB9a5rm89vfrpSWS3pYpXi/B5is1cnmsnwbxDyKybjDlzkoqE9/0pj3kp57V/OKif5p9Dm7hPIz9c+Q+kKV2ldqiNJHG5KOcB/oAwmaUFgDdnKm95V3HnqRb5TJsNKkXjFgiLe7XvBUVN86xRJLLyeV553Ie5IQtbhD/IDb+H648Z/nqtIY0dYz04CUaWegj6DFKb8pCH8YCgM2Y+iZUD2S0fgN0idIWYOfd3jxJNywYe26jSaNgtBwclsgoBSOWyBq/HZZIcrllNKYo/qWay2UU5+TyNucrAL8rhoYfSXBUx8YTL1joo9ymLPRhPGkUC33UHJPXXv5nS7YhecODqdADUE+pO+3s7pN0bDR1i8Y0CkYskeU2p7dl6sJI+BiPn8vN90Vvy/Sul5xyOX2K083l6H4QASddfNVZx1+VVBZd88YnSXoKC31E+M6lNmWhj3JDZaGP4N/5wanLDZ9MBocHU2UV4BrB03VLZPiCsRs2GiyRcQtGm5Cht2UbMW4Z51gi887lqcV4z3O5cVajT7FhLo96hUFf8YVOT25QU8UyFvoI8Z3rzDFY6GP8UFnoI+p5+N3f9yaDw4MpJQC+4MyV20ras52CscXJ9Kx7wEYTXxixihgskcEKxooHQvwLKYxYpUB6W5LLLePcG27d9VwuozgnlwM0w1151dnLvpLSiPz1Jy2Q/EvDTgLq9E+LIPC08ybVDJu2aK+dccgtvomYzVt/kcaUhlD9FAE8iFKLgKxd75/iNmow2yAYsdEkVTAGnp5giQxyQ4khjGCJbOV6qfBVsURGvl5yyuW5PMjxKcR43FxOb8s+5HLoHIX/M8mlFWxu7Yslt124eWaiYkroYwS9z7LQR5QxsSL1phOPvUni8GBKvQHoXBXlOEUbjWVuwxIZv2DEEoklUgnGuGWcY4nEEmmYy62vIB7kRD4D9CmOn8sBZqyCknv7b8OwBsvCCQtd6J/GQh/RxsRCH5vEqk/Nnv4kf8Xxc8jl8ADlBEBfPMUkLLFEjj0Q4l8oYcRS8cIS2bRgxBJZ/7thiSSXk8vtzh19iiPkcoPRIf5BWzi5P03t7T9//QlPlvyzgogXlXQJFvqw/84lxsRCH2Khj7Kbekmap21//ViyOTxAKQGwkNs77mSaJ+n5FoyBKviE+qHFHACWyFQLRiyRcWM8r1zeGfHPLMt0vbclfYrzzeUAs+Gu/P6nXvvV9Kq3wfG2Ygf908ptykIf44fKQh9Rz8OssfqgzwywAcODwmHcBgdOrBw56QkpFYxBJtNYIhMTRrBEYolMtdDDEhlmchMjl2OJjD9OelvSpzjVXA4w7tot3p3e238nLZB0bDBhgYU+ptmUhT7KDZWFPqKehxk3nWb7omAhEPgtYxcB2WL+5OOlwfw4BWPZG3LMgrFbk2nEP4UR/7BEjj0QlshQcU5vy9pz1bZyucHoyOXiQY7VN+tln2KAsdfuN37w6RMuTG5gw/XHyWs7m4TIQh/jN2Whj/G7YaGP5GPVlXVzQh8YbwF2g73jFIwtTqZn3QPiX3xhxCpiut4PDUtk3DhPUfyzTIGZP8ghlycW5/S25EFOqrkcYCxTXv7NqQ3K+4mB/HTjYqEP0+1Z6CPUjVMs9BGqxhuzvdNTSevwAGMFwNlXAI5r8crXRtNwcyyRNvGEJdKuYGSVyGgxjiUypVyemCXSB4jNFnpbksu7mssR/yBX/Dk//PQJ/5XcsFbferSkx5uJHfRPm2FTFvooN1QW+gj+nUttWqqY2MH/9I8eSm4HqdwiIHvXmnL28Ul6xR+Dt6JCCSNYIsvFuOV1gyUyboxbCiNYIgMdPnwuN813meTyTMS/XubyXj3IgQ5z1xxXvDfJkXn/1vpiB/3Tym3KQh/jh8pCH1HPw6yxWuEzg3GuTugLgxLx9ZTKYdpXS2SFAyH+hRRGrAoTLJHBC0ajOMcSKSyR5PKO5fIUH+S0lMtz6VNs8MMi/kHrOP/+75114prUhuVXn/CHkvY1ERZY6GOaTVnoI8DEUCz0EUrDqLF/51gIBCSNWQTkiDO+8ZBiUjuGm0xjo8m3YAxUwWOJtLteemuJzKC3JZbITuTyLvZD40FOgrl81j3wIAfAkJ9te8/8jyU5Mj98m1QEz8v5WyjrzCNY6GP8bljoo7XYaHxf9A9MUBAAQdIYAXBqUk90LReMWCKNhoUlsvKYsESaHz68MGJ9BWGJzDSX09sy3OQ2v1we4Cy0nstrf78cHuQAtEWhE1Z95lX3pTYsf9PrHi9fHNboYg/i4U/xrb+qm6a40IfaGVOrb/01uvFkGKt14rXxd96bJA/SGAuwc+5xYQrGkmHbVxsNlsgWC0bLeyCWyNAFI5bI+mPqdi63Cmd6W8aNcctcTp/ipr8jK/5Cz/j8VWcv/3qaQ3PvULm+7dPnZPqnTbMpC30EKHyUnj295phyXOhj/Jge5X/60q1J9TAYM6N9fKngzthG02hfWCKxREYpGLFExi0YvWGWwRKJJbL+98tD/LOMmK4/yKFPcfw4ByjFr4qNFthIB7/m9XtK/thawgL904zqIhb6CH7eEKpniVWz8+Dk7v090j0MZg+hB94AxBIZ6PDhJ9PWpRuWyMhnAEtkKwVjHy2R9Lasm3GC5fKAJWVruTx8jJPL4+dyxD/IG+f09h9++oSbkxxc4f9cXnMqX+Qs9DHNpiz0UW6oLPRhfx4qbh9KqHYD+gDCGAuw/OOx0TQ/EJbIUMIIlsja9/a2hBGD0WGJVId6W7acy3tpieRBjmVwkMuVYIwDlMdJ3/r+Wcv+JsWx+RtOfIy8f2nlXNz64gl+Q3LM/q0/Y4Gnlbf+fIWhtiCQ9kaorjL8kOfBP4msDzMuArL4Q9/azmvdLrOGFJbIsQeiYAwpjFhVLlgioxSM9LassTWWyKC5vMKByOWhcjkPcsrFOLkcIAD3TKl4reTSDMCB/4D8bAs2stBHuU1Z6MN4IigW+ggVr8FXNn4caR9mvKm40drHzfrwBhtN4Iq8i5NpLJFYIhOOTXpbksuxRLaQy61OA32Kc8nliH+QCs67k3/46df9JMWx+etf/3vyxR9Z5eFoAk9y/dNC33wy6vXXdmyU/jhCdcAxPZ7MDzNagKe8fzw2mgiTaYPRYYkUlkirb4YlEkskudz2WOTynuZy+hQDJM7Xvv/p4z+d7OiGxYemr9NY6KPcpqkt9NFi/0FvdR5Y6CNcrEY7D7v6Xxy7Hem/38woADrnHherEsISWf/7YYkUlsiApfBsB0L8CyWMYIksP5cll7eWy3MR//rYp7jij8GKv9BDbh1OuVemav311y9/hrwOH3u1stDHNJumutCHwp+HcIWOWOgjwPZtCdXFfY/lFtBvBrNMch/ffHKOJTL0ZDpcMY8lMv4PjyWyzYKR3pYJ5vJZ94D412oub3SmeZATNJdXOBDiH/QT97orz1m2OtnhDQcfluRmnWew0Mc0m7LQx/ihstBHlO88dvgtCtXFABtwz5mlsawaqsPYaKJOpk2LBSyRlsER962oOOJfkPYdLQsj7ce4ZZzHFaZ5kJOqmNFeLg8f4/FzeZiCtd1cHuunQfyDhNLiZ6769LLzkh3eTSe8QF4HzXgR0j9thk1Z6GP8bljoI8xNL8W3/maFhUB6zrQC4GEfu2Ce7tOeISfTWdhoKh4IS2QoYQRLZO17fVvCiMHosEQKS2TwXN7gJyKXdySX09sy71wOUImf3LtuzhtTHZy/eslceXdq3dzLQh+h8hgLfVTeHqF6hk0TEKrleQOw50wrALp75jzGDx70N56k23w/LJF2x8ISOc0esETGF0asIgZLZCq5HPGvb7lcRnFOLm9zvgJQgrtdoT/6yd+85q5kR7jdzifL+0fzJlXZTXnrz3ji1/w7IFS3FKslPvO7P/MGYM+ZtgdgMRg8LlTBGGQyjSUySNGYRsEYwRJJb8ukCsawYIkMN/HoRi6PFeN5CCPkcnK5UWwi/kH72eyE75+9/L+THd/1yx8i79/JQh9lNmWhj3JDZaEP+/OQyUIfs9/T9/I/PWwed4X+Mq0A6B54NRRLpN1k2mB0WCIVxhLZSsFoec/vcG9LLJGVxoQlMnYuTy3GyeXxczl9itu+ngBKBONHf/Cp5Z9PuyIbnCL5rarpDCz0YT8mFvqotT0LfUwz/GSF6qHc/EdzY+gvMwmAj8MSaVgw9sYS6Q23xhIZrGCseCDEv5DCiFUK7HpvS3I5uTzVXC6jOCeXAwTiu+tv2/7tKQ/Q37BsX8kfW/7SiyQsJPXWn5Sm5Te1fn+RBVKE6hk2TVyo9g4bcI8ZTD/xrRoU2GhCT6YDTjvC9EPDEhlBGMES2cr1UneeGCzOO2CJtN5XLy2R7eTyeOKf50FOgzhH/IOecqP3/oVXn7d0XaoD9H5ioMHgI5JcODGlhrCQXP+0CG+PVdplSwLPrLvJ/a2/mmNCqC5xI97kM04sBNJjRjP8+2PamUw3j30skW0VjFgisUQqwRi3jHMskVgiDXO59RVEb8vIZ6DLD3JSzeUAlfhNMXBH/fCTy29MepQ3rlkm557BQh8zbcpCH+N3w0IfrcVG1Fgt8ZnS9nRWAu4zmwmAh5x24c4qtGXcgjGByXSFAyH+hRJGLBUvLJFNC0YskSFi3FIY8YbzQSyR5PIIubzmmHiQEyGXG4wO8Q8SopDcy374yWX/mfIg/XWv311u6oPtWyg3v5fYHyO0mBJgTL6l81BpV6m99RdpTEnFagvnofF8FQtwn9nMAjzSnD1DThDDTqaxRLYwfTEURqxOg6X4R2/LkHGeh/hnGTH0tkwll3dG/DPLMvS2JJenmssBKuL0jqs+texf0x/n5Fny2rY18eK3cyX6p40fMgt9sNDHTLGa5YrUj/V+YsDNop9sduKLqWJPq8DlSbrRsHgrKnSVGVgYSbG3ZcPNe9XbEktkmEnTTP+MJTL+OOltSZ/iVHM5QGX+9qqzlq9IfZD+xuXHyLnnV6jqwwgL9E8rkRdZ6IOFPqbbNGuhegtd+8OHcbvoJ9Mov/4RJjc2LJHCEtlOwYglsv6BsESGinMskbXnuW3lcoPRkctFb0urb9bLPsUA1XDShcMptyz1cfobTtxBfvARU3GEhT6aj4mFPsRCH2U3zV2o9lJBH8C+spkA6JzbM8nJ9Kx7QPyLL4xYpTAskcEKxopxjvgXUhixSoFYIsnllnHuDbfuei5vflge5AAEnWt+Z52betGV5yxbn/5oizMlv0s0oWC6+0f2b1JV3b7Km1SpvvUXUSBlRepZYrULQrUkRx/AvjLdKsB7hp9MY6NpZWqEJTKKmFH/pmJcMLJKZLQYxxJJLo+SUsxzudU4yeX55nLEP8gf5/Wj9etHi6/+6+V3pz5Wf8Py50h6WVThYob7h/0xWOjD4Eah+LHBQh/lNu3aitTFo7l79JNpBEC/p+QCFoyWORIbTfyCEUsklsj6o8MSKSyRfcvlpvkuk1yeifgXN5fHEf/MX9hoJZcDVOJno8HUId//6+W/Sn2g/mfHbyO5v9FmhVbuYkqdXJmamNLimHxL52G67VmR2iBWA4wpRKx6t6egl2xkAZ6YmBhI7mHhCsYEJtMVDoT4F1IYsSpMMrdE0tsysTjHEoklklxunD3I5abh3PUHOQCVuLEYDg/+3lknrslitPOHZ0l6+MYXEP3TwoypaiJjoQ8W+phu006vSP0IbiH9ZKM3AL+74A93l6bmhZzgt1owYqNJoGC0FEY6YIm03lc2lsgMeltiiexELu9iPzQe5OSRy3mQAxCU1QM3dfBVn1h+bQ6D9TcsP05exwYo4mffPus3qQK8eZX8W38tjMm3cB7GzOXzi9VAY/JB9/8I7+Wc40beNzZ6A7BwU3vWCWSepBsNC0tk5TFhiTQ/fHhhxPoKwhJpdga6aImMFZwxc3n7MW6fywOchdZzee3v18s+xQDlcdL1KvSH/3nWif+Tw3j9mtfvKe8+EUW8ePA9g4U+xuRBFvpgoQ+rWE10oY/ZWaBrj9qZO0r/GGz8H76yFxxLZP3JNJZIhRH/sESOPRCWyFDCCJbI2vPetnK5weh4kEMuN8vlvexTDFAF94vBlDvoqrOX/zSH0Xo/MdJk8fdy2jqawJOU5bdFoc1UTEnR8tvgO6S00EcwoTpVe3pCQvXUiD6APWSw8U1qsKf9ZBpLZL4FY/X7a/iC0fL+2aHelr2zRHrDLIMlEktk13M5vS3pU5xqLgeoxLXFcHDQlecs+1k2I77x5j+T/L70Twsxplb7p1Ubk59tHpOi5bcLQnXVWO2bUO2lQYEA2EM26gE48P4R3rVYMPboSXo42nsrKk7BSD+0psJIrJ8meMHYR0tkLuIflsjEcrnVVyWX55vLEf8gb7zTjweD9c/94SeW35TNmG9cvr988a7wiTo1MSXwMWpN2lrs6dbqW3+NJkcZxmqdeO3xitQFC4H0kdEmN9e9sETmPJnGEmkaklgihSWy7CZd7m3Zci7vpSWS3paWwUEuV4IxDlCJ//CFP/L7Z73h5lwG7G84cQf5qS9IGgYv4lnoY8yfWeiDhT4sYjXQmHzMuNjkM87zBmAPGWwSEI+wKxixRFIwWlYuWCKjFIxYImtsjSUyaC6vcCByeahczoOc8nUeuRzA9iLWvw2n3EE//PQJ+Yh/fmIgV3xe0h5BhQUW+iiRuFjog4U+rGI1y4U+Zv8O3j2Cm0z/+K0AuM/ZV8yR9JCQxVm0grGvlkjrUWKJtAuKPloifYDYxBIZ+YfHEkkutwwzHuTkkssR/yCRLPbX2+665kVXnrPsnqwGftOaD8j75wUVFljoY8yQWeiDhT5m2hSh+kHwBmAP+a0FeKdf3fIQDUbDqJNpLJGJCSNYIultaSiMyDLOsURaBkfcXB5H/AvibiGXK8qDnMxzee3v18s+xQClb1Pv/MGnlp+S3cBvPOEoef+OYEU8/dNKbJLiW3+KOybfwnmIHq8ZWn5TidXf/WkP7ycGzk0U3Hb6w+96AI7m7KbCx51Mz7oHnqS3VjA23rrrlkirOQKWyLgxbimMYImsPQ9uK5cbjA7xT2Ee5PQxl1f8MVjxF3rEvc7pNVedtfwfchu4v+G1j5H3fyfJBSnkWejDOO8ZCkIs9BExVuvEK0L1DP88V//3w90l3cCtpz/8rgdg4XeLVjCO3RxLZHxhJGDljiXSpmCsEeddKxjpbRlDGOFBTvwYD5TLG51pelsGzeUVDoT4B73B6wa5wR9+P0fx7+bXbSU3+KKkbcZfZV3onxaxj12pXbZk6/TKSPyLZDXFnl7i5trS9TPdPxdT2IB7xoMWAXG7RisYsUQmVjBiicQSaVSyBhZG2o9xyzjHEhk8xg1zeciKt61cHj7G4+fyMMVuu7k81k+D+Adt4qRvTU4Of/+qs47/XpZfYF3x1/LuiebCAgt9lEhWLPTBQh9WsdpDoXrAQiB947cCoPPapV7BaJlDeZKeesGIJTLAPKEtYcRgdFgihSXSKpfn8iCHXN5CLk/xQQ65HMCQcwZT7rn/9Vev/WWOg/c3LP9TSUvNhQXepBozZBb6SOqtPxb6GHNjTVWo9rwB2DN+2wPQDYpdvHc1CsZ8nqR30UaDJTKGMIIlMn6MY4mMG+MJ5PIKB0L861sul1GcW4p/5HIAA+5x3i///qdP+FyuX8DfuOzF8voLczElaIKmf5rBTSDueZhuexb6MIjVAGNKb6GPcX94BLeifjH63eTZ7Rb+BmJcMPbSRtNTS2Qu4h+WyKyFkfAxbimMYIkMHeN5CCPk8lgPcjqfyxH/IC5XTw3dS370ieU/yvUL+JtOOECF/6xmXPSDhT5Mtmehj6Y3iDDbI1SX2CQLoZo3AHvG7yzA8rsGm0xjo0lMGMnQEtlKwWiZg7FExo1xyzjHEpl3Lk8txsnl8XM5fYrbvp4ANo4797nhlHvGjz6xLF/x78YTHqvC/6ukedNfWSz00XhMLPQhFvoosykLfZQb6gx/cLwB2DdGD7oZ7xpsMj3rHrDRtFYwNt4aS2SwgrHigRD/QgojVikQSyS5nFzeTi63mk+TywEacmvh9OofnrXs/Jy/hL/hxB3kp86XtL2JsJCK8Fc7F6T21p/hmFoT/qrPZaOdt+wX+jCOpeTf+hvzR6+HeD8xcG6i4BbVDwb3z6KdpF2wRKY6AQ7UDw1LZARhBEtkK9dL3TlmsDjHEpllLs+lt6VPIcbj5nL6FPchl0O38Bd57/f+4VnL8xb/rn3lfGnq3yU9evOrKnPLLwt9lBwqC33YnwcW+ggXq2OPMUc/+8GO3KP6w0CSDj3zwu28n+4V9oZBiiUysYIxoCUyE/EPS6QSjHHLOMcSiSXSMJdbX0H0tox8BuhTHD+XA2zGnXJ681W7/PLQH3z6hBtz/iLeLxlqzvzPSdqvuZjiA4opdfJfaKGtqpgipWf5bUHg8ZG+c4X5S/DvXCpW+yZUewUVqgu/O7eq/rDBArxu7m7SVEC1IEwpPNuBEP9CCSMp9kMrO3GLWTBaCiNYIuPGuKUw4s3uzVgiyeXdz+U8yAlXzMTI5QCbRdxXJl2x7L/OOvH67L+Jl9NNO3xK0osaCwss9GF8H2ehj2BjYqGPEpt0YEXqod9d0lXcs/rBSJKcm9xV3kWaTGOJbGHaYiiMWJ0GS/EvHUsk4l+bwohVxNDbMpVcjvjXt1wuozgnl+c7X4GOcIfk3nHVp5af05lvdMMJp8r51zYu4umfNubPmfVPC7G9b+E8jJm75BergcbUVaHa6yHctvrDhjcAC+0sF6NgtKygsUTGLxgj9EMLsK98e1s23LxXvS2xRIaZcM30z1giW7lecsrluTzIoU8xgHWi+lzh/dt++OnlN3fmS92w7H2SP7lRkc1bfwFyGwt9BNseoXrMnzsmVHthAe4Ro/tP/+4ueMHYrck04p+wRFoKIxUOxFtRoeIcS2SjeUcbudxgdORy0dvS6pv1sk8xwAac1396+Tde9ekTvt2l7+WvX/Ymyb2nkbDAm1Rj/ozll7f+ZtoUoTpKrDq/G3ex/rDBAjxwu5i/mbHZHhD/4gsjVqkJS2SwgrFinCP+hRRGrFIgvS3J5ZZx7g237nout5pf8yAHoAK/ktN7H3Xr9p8477ylU136Yv7G5a+W15m1i2z6p5XYpAP905Jc6EOJxStCdaPtQwvV3mEB7hGj+yfXu7imAYWNJmthJE7BiCWyaZxTMNaPcSyRka+XnHK5DxCbIR7kkMs7kcsR/6AjrJfXWZo/b+Kqj7zqjqs69uX8DcuPk9dfSnK8SWW0PQt9NL0ZhNkeobrEJp0XqrEA94j7FwHRzo3mhNhoEisYsURiiVSCMW4Z51gisUQa5nLTKyyTXJ6J+Bc3l9PbEqAEhaR/Hripd/3np078vy5+QX/9CS+T/N9IflDrqqN/2pg/s9AHll+LWA00pn4K1btwa+sPD7wBuJ1LaTJd4UCIfyGFEavCBEtk04IRS2T974Ylklze71ye4oOcVHO5VTh3vbcl9Bd/kSvcyd8/e/kPOvsNb1i2XPKfrCX+8dZfgPs2C30E2x6hesyfeyVU7+y9nHNMFvrAhjcApe3sJ9NYIluYthgVjJbCCJbIKAVjEEtkBr0tsURGEEawREYPzc4/yEknl/MgB2A8TrpQhd7z/bNPuKLL39PfeMLb5ItTeZPKYHsW+hBv/ZXdFKG6/VjVHF23eFvpy7dzx+s+o/v///a2BaNlxYQlMn7BiCUymDCSlSUytRi3jHMskcFivEYujxWcMXN5+zFun8ttzk1aubz2j9LLPsXQMwpJFwxUfOA/P/W673T9y/rrT3iHfPHhsHmf/mlRx5TKQh9JvPUXI14RqsPMpyKN6d7hzpIQAHvASN47nXLRtlgi2y8Yu2WJ9Ia5DEtk6IIRS2T9MWGJjJDLDUbHgxx16EFOy7m8l32KoUes9XLnjqb0wSvPWfbjPnxhf8Py90rFnzbJ+9GFi2k3ZaGP8btioY+o52HGTRGq7WO14Zjc1M6SfsItsPuMDvuLryz080ej4DPt2AVjb8S/aj9Ov/uhYYmMG+feKpSEJRJLZPdzOb0ts8nlFQ6E+AcZcauTPj3l/cd/+OnlN/fhC3s/MdANqz8m+RMrX2n0TxvzZxb6wPJrEauBxoRQvfl/usHO3Ab7wcjPc9vbxW+3nqQHnHK09lZUnIKRfmhNhZFYP03wghFLZERhBEtk3rnc6quSy/PN5Yh/0AbuSknnDKf0+SvPWXZPX761/+kb5unG1Z+V04vr5vxWhIvNNqV/2vjdsNBHGvGKUB1mDm4kVDuHANgTRn7otndFi5PpCgfCEhlKGMES2ShPtyGMGIwOS6SwRFp9s15aIultaRkc5HIlGOPQYe6QdO7U0H3iR59Y9qO+fXl//Wu2l9b9q6QD6ub8aELBjJvSP63cn3jrr/1YbTk2zOaVXReqCwTAnjCS1zatFIwVJ9MUjCGFEavKBUtklIIRS2SNrbFEBs3lFQ5ELg+Vy3mQU37OTS6HXrLOSRfK6R+2uWfev6z6zKvu6+OP4K87/pFy7iuSHl0n3wcvykttSv804wlZ8zGx0IdRrAYYE0K1ygnVg524TfaDkdNgYSsFY18tkdajxBJpFxR9tET6ALGJJTLyD48lklxuGWY8yMkllyP+QQkKSZfL6Tw3nPuF73/81bf0+cfw1y9/hpw/X9LOpa8yxBTj/MVCH8HGhFBdYhOE6pk3K3bgltkPRt67rVwN8QZLZFvCCJbImOJf5y2RsoxzLJGWwRH3rag44l8QZwy5XFEe5GSey2t/v172KYbMWee9viX5f52aHJ33X3/12l/yk0j+xmXPl/dfkLRF6YuU/mlj/kz/NCy/FrEaaEwI1RU/PtiOO0U/GDn5hfXDmyfprRWMjbfuuiXSKl9jiYwb45bCCJbIRnPoNnK5wegQ/xTmQU4fc3nFH4MVf6FFbvZyFzrp/OGUvnblOct+zU/y21zjdNPxJ8vrQ5KGVfN8K8LFZpvSP8244BALfYSKV4TqcrtJUaj22wt6wch7beWcIgSusEQKS2ScHx5LZJsFI70tYwgjWCLjx3igXN7oTNPbMmgur3AgxD+IzK8lf5mXu2RQ6KvfP3v5D/hJprlWrn3lfN0472xJL6+T56MJBTNuSv+0ADcp8dZfqPsvQnX7sVq9lnrQRrwB2BPufwPQhZ9MY4nEEtkwOLBEGpWsgYWR9mPcMs6xRAaPccNcHrCMbC2Xh4/x+Lk8XPHRXi5vZb6C+NcnVku60kuXyrlvjyb13SvPWb6en2WWa+Wm4/dQ4b4oaR/7eQz906KOiYU+Iscrb/012j5foZo3AHvCyA3cVpsVnTxJz7pgxBIZYI7RljBiMDoskcISaZXLc3mQQy5vIZen+CAn1VyeWoxDQkxJ+pmkH8j5HzjvfzSYGl515TnLruOnqXCtXL/8QBU6V/I7lbqyeOvP+N7MQh/BxoRQXWIThOqa+9/W+4mBcxMFd5FuM/JyC8sETawn6Z0pGM2KAyyRWCLrfz8skcISaZnLKxwI8a9vuVxGcW4p/pHLIVlWS/5aOXet87q2kK5xbvBfw0l/9ZXnLLuHn6d2jnG6Ydnb5fwHNLbfH/3T8hRTWhiTbzEuZpiP5BergcaEUN10UvJgBvr5VVtLuoO7SbcZOV9s5R+wAGdnozHaTYjJdB8tkbmIf1gisxZGwse4pTCCJTJ0jOchjJDLYz3I6XwuR/xLidvvPxtrnfSAaHenpDu83G1Oxc1O7jYvd5vzxW1yw1tVFL+Yv8U9115+5lvu5eczzrI/O34b3ej+Sk4vyk9MaUEoCJKvWOgj2PYI1WP+3PO3/kp9vMT+16/fXgiAnWfk5ebXiuu2JtMGo8MSqTCWyFYKRsv8jSUyboxbxjm9LWvPUZLI5Rtxt6Q1km6V/K3S4Fbn/K2Sbi6kW538rQM//PWU9BtJ0kB3FpOakhusnze3uFuSRvN3v2vVxEGT3OIBALqPv+GEZ8kXX5C0Z9U5TDShYMZNWeij3J9Y6KP9WG05NszqJITqGRmwEEgfGMlpPjYasymIvfjXeGsskeXyN5bIuDFe/eYV550XLJGRcvntkq6R0zUq/DXe6RrnimumpkbXfO/Ml17DrRkAAErcQ51uWPZGqThVTnOrzF+CF+WlNqV/mnGB0XxMLPTRUqyW+AxCtYIL1d4t5M7SfUbyMwuAiRWM0aWAJonaG+7W9MNYIqf5ZyyRrVwvTeanQeK8m5bINsU/J6320lXO6wfe+e8XRXHVFlvvcQ1v5wEAQKN72y//eBfdNPyMnJ5XdY4eVSiYdlP6p5XbFQt9RD0PZvGKUB18TMFiFQGwD2wQAGcMGSyRdZI1lshmG2OJVIIxbhnn2Nvz7W056+bXSf4yOfd9L1019MVVl614+c3cZgEAwHSuc9Pxh2jSfVZeu5a6kfEm1Zg/s9AHC31YxGqAMfmWzkOlXXVIqPYFAmAPGMm5+ZtWo1gi6yfrZMW/BmPCEllmn9jb48b4DH8NIf61Zm+3mqsEyuVO18jr2867S9eP3Le/d8qxV3NLBQCAUPg1x22p9Qs+rMKdKD2wgmG5eUt04WLaTemfNn43LPSRRrwiVNvHqsGYwgvVCIA9YCTv55sVjFgibQrrEP3QagojPuIA+mCJDBXneYh/lhFDb8ty8xXDXO78j+T1De/dtwZu6tLLTuPtPgAAiDQnuOn4Z2vS/bWcHlN13hJNKJhxUxb6CDDpEgt9hJpPIlS3H6vVtQGbMWEB7gMjOS2o9eChVMw1EEaMVAbeipJ9P7QA++qoJTLCDS74lLu1N1zDx/iGD9LbcsZ93ifpUiddNFlM/st/nPGK/+WWCQAAUWcht71ha923/n0q/OslDarMWYIX5aU2pX/a+N2w0EdrsRE1Vkt8BqFarQrVnjcA+8BIXvM2DoNE3ooyKK4R/4Qlsto3M7sJYG8PFecp2tu709vSeV3v5S/wGnx5/VZ3fePKiWX3cJsEAIA28Ncve57uXXe2pD2qzlmiCgXTbspCH03m0cF+Ixb6MIpXhOrgY2onVhEAe8BI0ghLZI29Y4k0SUrZWCIrHAjxr9nNLD97u4zivLXeljdI+sei0D9+9/SXXsltEQAA2sRf+8ptNWfeKZJeqzK9/gLMT5vdn3mTqtxuWOgjv1gNMCYW+lAyQvVAW3EH6j4jeY023Fq7I/4FnpZgiQyWjK1uZjP9M70tW7leKnzV1u3tGfe2rLiv2+X1JS933sN+MbrgvPOWTnE7BACAVmcMXk43Hv9yyZ0iaZeqc/JWCubNNqV/2vjdsNBHGvGKUG0fqwZj8q3GBW8A9oCRH2hQy4OZcD80LJH1x4QlssyH45yNdmLcMs4ztLcbZ7WYvS1LfLPfSPo35wdfWHvnnV+78pxl6yXpO9wHAQCgZfyNy5+qG/3HJe1fZ64STSiYcVMW+ij3Jxb6aD9WW44Ns7ofodp8e7fx4rDQTUbyfhRIlmgQz4h/jX4NLJHT/DP29rhx7g237rq93WruMuMBf+ycPjMY6JxLP/zS27ntAQBAKvjrX7O9BnP+XN6fKGlYdZ4SvCgvtSn904wnWc3HxEIfLcVqic8gVCtZoboQAmAPGHlp6EziCUtkiJsTlkjj3zxQjCP+Gc4DgsT4hg/2qLflWkn/7r3O+c6Kl17ErQ4AAJKaDfuJgW5c/TLJrZD3O9WZp0QVCqbdlIU+yu2KhT6ingezeEWoDj6m1OzpXgu4O3WfkSv1tG1cTGGJDHHBY4m0yO3dsrcHvYLobRlogmY1cSsR417/5wb6q7VT7q+vPP3YW7nFAQBAcjOOG1+7SDeuPk3S3uXuhfRPK/dnFvpgoQ+LWA0wJhb6UBZCteMNwD4wkjRoFlO8FVV5lLmIf921RJodCHt7qDint2WV+YuXVjq5Uy9f8ZILJZeiwgwAAD3HX7/8GXL+g/J6bu0Ctc2Cmf5pFXbDQh9pxCtCtX2sGowpXaEaAbAHjFT2DUDEv3beZizz1071Q8tnxd/OiH+yinF6W8ayt9+/h0JeX3Ten3r56S/73oZ/Opa7GgAAJIW/6fjHqRi8V/IvklSh8xBvUo3/M/3TWOhjpk0RqtuP1er1Ucv2dATAHjAqdSPGEoklMqCY0ezmNt0/hxf/Yv40wXtbeuOd0NsydDJdJ+//Sd598PLTj/0xtzEAAEgRf+PrHiY/9R4VerVUZdFB+qeV24T+aa2ch+jxylt/Yeb8CNXTgADYA0aSClWxAY8JOCyRzW5UeVkiSx6tBUukTThbng3s7eU26XJvy8aHvdNJZ63T6KPfW7F0DbcvAABIEX/TiQ/X1NTJ8sXxkuYaF6jxingW+qiwK/qnRT0PZvGKUB18THnZ01kEpAeM6tTjiH9hLv78LJHprPjrm+wLe7vVldhwa+ztM2y6TnKfmZrj/+y7Hzz2l9y2AAAgRfwvTnyihsXbVUy9RM7PCVSgximaeZOqwm5Y6CO/WA0wJhb6UAeE6nncybrP7AJgXy2R1qPEEmkXFN44wBIV/0JcNzPdCHyAkDf5MPb2SXn/DyNN/fk3V7z8Wm5XAACQIv6m45+mYvBmaepYSUP6pxltT/80sdBHmU0Rqu1j1WBMeQrVQ0HnmVkAxBKJJbLBuYsp/tX+Zgn3tvRG10u4GLeM83zFv0D2du/k/p+bcu+59Ixj/pfbFAAApIi/6fhnqxi8Q4WOiFighpvssdBHhT/RP639WG05NsxqH4TqhGJ1JOg8I0lTkuaMjzEskSEu0H5bIq1yffg3tbC3N7vR0duy9KYXDAaDd116yjE/4PYEAACp4X92/DaaPzhOhU5QoSe0UKCG+Qz900IUDc3HxEIfLcVqic8gVKuDQjVvAPaAUbkYS9ESmaL4Zyk6YIksNzdJccXfFMU/yzNJb0v7N1zd/3lNnXT5aS/7ErclAABIjQ02X7dMcsfKayu51grUAHNMFvootyv6p0U9D2bxilAd/Lx1x57OG4A9YOQl72rGWbuWSLMpDZZIwzMQd8XfOOKfjxScMd9wbT/GLeM8396WXvqNk1+xzb3bfugrHz98LbckAABIBf/TN8zTgsmjJH+8Ci1KpEA1nmPyJlW53bDQR36xGmBMLPShjgvVzns555JcYAGMGDlpvWZd8hlLZOVRYok0vNkZD53elvS2bHDuDO3tXl5/P3DuHd8+9dibuBUBAEAKeC+nm5bvJ69jpfUvkbRdYgWq4fyS/mnjd8ObVGnEK0K1fawajKmLQvV/L5kjnbeOu2F3GUl+neQqCSOdEf9MRlj9xoUl0uKX7s6Kv3mIf5YR0/XelmM3/P7A6Y2XnnrspdyCAAAgBfzqZU/QpFuqG/VSSY9KukBtsj1iSqiJlOifFiJWW44Ns3oHoTqbWN3ilgF3xG4zkty6sP3QjHYToh8alkiTHynmir+1f5QcelvaT+dbe8M1fIxv+GBmvS3vlfxfPOTaOSvOO2/pFLcfAABodZZw0/F7yA+OkddLNaUnb9zXL+ECte5n6J9Wcjd9XOiDt/6SjlXTeEWonpW1W8+RdB93yO4ykte6KkGCJbL+zQtLpMU8xSt0CGJvDxXnve5teanT1B9/+9TjfsJtBwAA2sLf8Lq9pWKx5I5U4Z8uqeTbHiz0YbI9C300nXRnGKsx4hWhOvh5641QDV1nJKe1ZW9GWCLrfzcskRa5P/ybWoh/zW589LbcBKc7feH/7PItf/pxTUwU3HIAACAm/vqTFmhw3/6SO1LeHy0VD6t2w+RNKpPP8NafWOgjRKwGGBMLfajXQvXa+6hXOs7Ie61zVuV7ryyRVl+115bICrk/zoq/sWI8uL3d+tzR27Lyfpz0VafRsktPW3odtxoAAIhy5/YTA91w6xM1mPxDeXeodN9z5bVAqlPT0T/NZHv6pwnLb5lNeevPPlYNxtQ3oXr7bRAAO85oIK31FiHEW1E1fr9eWyIr5P844l8rC2Rgbw98w6y/rwYxfofk3vjtU1/yOW4xAAAQdE7hlwx13c6P07DYX9Ii3fjLg+S0o7zrboFaalPe+iv3J/qntR+rLceGWS2PUJ1frE7zmfvuRgDsOCPvtG62GyXiX7PEgCUyQP6vvU/s7XFjfIa/huht2Zq9fZPPOX136Pyxl3742Gu4vQAAgPkc7OfH76Z5w7015Z4m55+tG7W/hsXCXhWoYzflTarxu2Ghj9ZiI2qslvgMQrUQqh/Euq1oGthxRs7rPo8lMsiNDEukxS/dnRV/8xD/LCOmV70tpyT//odeM+d9rPALAAAm99jrXr+7hsU+kvaR/D5y2kdeu21w844rDnnrr7UxsdBH04l2mO0RqktswkIfScRqgPqm9PY338IbgB1n5OXvqR1KRioDb0Wp65bImpt3a8XfgCVCa2+4ho/xDR9Mu7elv875wcu+fdqx3+KWAgAApe8kfmKkm3+5hya1l7x7pJz2kvePlHN7SXqMVGy5WUFIgTrDprxJNX439E/LM1YDjImFPoRQPQMHHlhIq7hBd5iRpN/YhBOWyHKb9MsSWf8+YCn+YW+PG+cp2tsD9bZ0+me/bs7xl5259FfcTgAAwPuJgdbctoP81I7ScEep2FGF20XyO8r5nSTtIGlXOf8Irb55D3k35/77yf33FdegQKV/Wmtjon+aeJOqzKa89WcfqwZjQqh+EBNYgDvOyMvd7TYJCCyRjY5a7a/dtUQ2uBeEf7MR8a/ZpC0/e7uM4vy3G93rvXv95ae+5G+4jQQtpEe69Y6dNOV2lHc7ymlnee2ogXaU146SFsgNtr7/1Gwp+bmSBnLahl8PoEbCLGLMmIoaQ06sQPWaJ/ktJElO22qDfLdA0nzddMv9G7nffVc3zat7Gy3SkYOYklKBKt76Cyqo0D8tTM2DUN1+rKaYW5OypxfOCQGw44wGKu7xcq0II0Enu1giAyUQyxvhdP8cZ8XfWDHev96WEezt7fe2vF6DwQsv//Ax3+MWYhB9t71ha60dPUZuuJec30vSnpL2krSXfnnXHtJw9Nta+oH/78ecPKYuAKJ/WsAC1UX8jShQjeKVN6mCj4m3/lqK1RKfQagWQnWpTdcxd+o+G1mAeSsqlDDSI0uk9dyl9j7jnI12YtwyzjO0txvf+CrG+DdVTC657NSX38zto8bZuOXtu6soniDvnyivDQ3t1+txGmiAagcQ7A5EgWo2Icm9QKV/Wp6xWide6Z/WSh6LnltZ6CNEvdNjoXot86fu81sBEPEvpDBilLvStkQa3A9Y8TdunHvDrbtub5ckd87aO+58/ZXnLFvPraNM/jh+jm7e+vdV+APkdICkZ2lqasff/Zz8RgABrrwam2JLo0DNqkCNdx5K/Zn+aQjVFrEaYEwI1UKorhyvvAHYA0aFH/zGuRiTsxjCSIAJNJZI44Q00x4Q/+rcNHyAkG8vxjd8MMHelvd575ddftqxf8ctY5Zf6eqJudr+zv2lwR/K+QP0S/8syW+B0AfQwtyFAtVwLoUtrdWCGaE6oVitXiMhVKcQqy2OCaE68dy62fa8AdgDRhroNz6SBoclUl20RBoc1of4GtU3p7elTTx1q7flNVOFjv7uipf+kNvFNL/OTW/dUc4fJLkj5e46SnLb/O73R/kDiHp/oEDNu0BloY+WYrXEZxCqhVBddlOE6vZjNcXcmo09HQGwB4wk/Tp8IkH8qz8wb5hDrS2RFvcFVvyNG+OWcd7t3pbe+e+6qcmjvruCfn8b/S5rTvo9afB8SUdK+n3JDfhVAFq7Ii0m/JkVqNjSel6gthirLY4JoXrz7RGq04zVrHIrQvUmYAHuAaOiKO4YOBdokhZaFNn8omplgYcyf+1UP7R8VvxF/Gs2ietrb0vn/L+sXbDwZVdOHHkPtwnJ3/iWh2no/kjOv1zePY1fBCCJK5MCtdkkpKMFKv3T8ozVOvGKUN1KHoueW1noI0SNg1A9LbwB2ANGAze4o9xFjCWy9oXYLUuk0b0hvPgX86eht6U61Nuy+Ni3F/z0JE1MFL2WFn7xJ9tp/roj5d1xkp4ryclj6wVIKpeX3hRbGgVqZwpU2/NQ6s/0T0OotojVAGNCqBZCtWG8egTAPjAaTBV3FEMXYKI2026wRJYdU2qWSNsVf63ynOXZwN5ebpPO9rackvSWy0596cd6LS3c9NZ95PQmufXHyLs53CYBkrpCKVCbbI8tLWKBilAdZsKMUJ1GvPLWn32spphbeyZUO93LPKv7jNYP5twx1KTxzW+m3WCJLPuh1CyRtuIfK/7GjXNvuHVn7e33Oedf8e1Tjj23l5LCbW/YWpNzj5HXGyQ9iVsjQJJXKgVq7gUqC320FKslPoNQLYTqspsiVLcfqynm1g7Y052/m7lW9xnNXbjujqm7B4YJZabdYIkMNyGo/4EgK/5a7ytR8S/YTzTNTcS3+PPbx/iGDyZkb//VoNDhl6449ru9kxN+efKT5Ys3ar1eImkLbokASV6pYSf8SRao2NIoUNuK1RbHhFC9+fYI1WnGala5FaG69AcLIQD2gMFX3nj4Wkn3BZuqYomsPKaELJHVR2Pd988H2DyEyC3LOM/E3p6J+Dcmzm8eOPecS1e8pFfin7/5rc/2a956vry/SnKvkRziH0CaV2uEAjWA5Teq+OdnvkdlVaD68OfNt3AeZtzUq3Xxb9pY9e1cP76F8zDd9ikJ1b6F82CaW43PW0pCtW8xj1X6eKTrJzmhuuZ5cA4BsAeM7v//d0jaFUtkna27vuKv1Zwm/FuErPg75iZZO2pS7G1Z8miz7NNJa3zhDr50xTH/1QsZwcvplycfIfk/UaH9uP0BJH3F1tgUW5rxZEr0TwtZoEY8D6X+TP80+qdZxGqAMbHQh3ijOlZuxQLcB0b3n/pfOa9dTSvxZMU/S9GBFX/L3SfCr/jbGfHP7Ex2vbdlY5H7umIwfO7lpy79v87LCH5ioF/efYx+6d8l+Sdy2wNI/qqlQG2yPba0iAUqQrXBJLmFWK0+T0xPTIkRr9jT7WM1xdyKUP0gEAB7wEiSnHe3/C4IYr1XV/8iwxLZbOO4i36EF/9iBmfw3pbeeCc59LYMsC8/e2147Zxi+Nxvnrr02s7LCL88eZHW3HWqnJ7K7Q4gi6uWAjX3ApWFPlqK1RKfQagWQnXZTRGq84vVSGPqdB9VLMB94H4LsL+1aZGOJbL+mLq94q9V3rM8Gz2xt+fS2zKuvf1/BtKib65YelOnJYQ1b3mW5D4k7w+U40YHkMFVG3jCn2KBii2NArWtWG1xTAjVm2+PUJ1mrGaVWxGqTY7hCgTAHnC/AOhulQqbaSuWyEofSsgSafIrb7yH7qz4S29LdaG35X/NnfIHrTr92Fs7KyGsOflJkv+QpCO4vQFkc+VSoNbd3icgXgQrULGl5RmrdeIVobqVPBY9t/ZRqKaPalaxWvAGYB8Y3R8Tt9R9SwRLpOwtkbmIf974xCUq/gUv/OhtGSMR/N9wNHnIqlOP66T4529/87ZaN/gTeX+SpLnc2gCyuHJrbIotjQK15wVqlc/w1p8QqkPEaoAxIVSrn0J1ndo76DF+xdys+2zoAaip23wNBRBLpMJYIo0v6ixW/PUBNmfF3xq/Xyd7W15fDHTwZR88bnXn5AMvp5vfcpzWulMl7cItDSCbq5cCtcn22NLSLFARqhOK1epzQxb6SCFWWxwTQnXiuTXCeRi4O5ifdZ+RJBXO3eqahBOWSLuRxbVENpzgTffP4Rd7QPxrNsHrWW/Lm/3QH/KdDx37887JBze/5an6pfuEpP24lQFkdfVSoOZeoLLQR0uxWuIzCNVCqC67KUJ1frEaaUx9tadP6XbmaN1ndP8pv6V2n3jzYh5LZPwfvssr/qYo/lmeSXpbziL+3eqcf85lHzr2x52SDtacvKXkP6RCJ0oacBsDyObqDTzhT7FAxZZGgdpWrLY4Jt7623x7hOrMYjXF3IpQHXxMc4Z3MFfrPiNJGsrd4isEizeWMGa66LBENts47oq/ccS/IPeGUvVOuDdc249xyziPK0zPHOPujsLr0O+c+pKrOyUf3PzWZ2vK/7WcHsPtCyCrq5cClQLV7rzRP63lWK0TrwjVreSx6LkVoTpEDYNQHen6+fWIHoA9YIMFeDRY4yanqocJlshKY0rEEtkgERkP3Yc+Gz1Z8TeX3pbx7O33Ft4d8Z3TXvyfnZEObprYQsM7/0yF3ibHW38AGV29NTbFlkaBSoFaf4JD/zSEaotYDTAmhGqx0EfSuXWd+/3z72He1n0GkrTtnnf8UtJUpVDBElnpQ4lYIs1+5Y330J0Vf/MQ/ywjpnO9Lb13+uPvnPbib3dGPljzludqcNfV8u4dwvILkNPVW2PC37Kg4mVg+fU227daoFa5WUc6b5UOY3geZtw0RaG6C29SNexN2br45zdM0nyk71w6t7aUx2YccuQ8NnaoLVw/voXzMKY2ayWPbTT8VucBdzBv6wcDSTpv6dIped2SijBiMtnGEmk3Jm/8/RIV/4IXgi294Ro+xjd8MIXelt7p7Zef8pIvdEI6uHpirl998umS+7qkR3C7AsjqCqZArbt9KgVqMDGlxnlL7k2qCEV5pV0iVCclVMf6zqU2RagOE6u+WawiVCc4D/AsANITRg/8Dyet9tKupfIWlshKY0pvxV+re4g321+jzVnxt8bvl6K9vXFvy7+8/JSXrOiEdLD6zY+Qu+sLkvblNgWQ1dUbeMIfq0ANOZ5YBWqD7emfZlighozVFseEPX3z7VnoI7NYTTG3stBHa2Mq3C3M4frB4EFhsbrcnDBx8a/x1p2zRBokpen+OfybjYh/zSZ8+dnbVTvOvfSVuVvs+rpOyAer37JEbvh9If4B5Hb1RihQU3yTyuA7YEtroUCt8iZVqvb0lt5EzOatv0hjCmpPj5Vbja+fLN76i3j98Eb1LLGayBvVzv2SeVw/GD3of6+OPlEO0Q8NS6RhUprpn+Os+FttfymKf4EKyxzs7XF7W/7nvC2GS1dNHDSZtXRw8+u20tQWn5TzL+fWBJDV1VtjUxb6KFeghp4v8SZVuQI1pVhtcUws9DFrLZdfrAYYEwt9iIU+Mp0H+II3AHvCrAIglsj6Y0rEEtkwMRn+Qr69s1Gt/sHeXmVM3v4sVI3x64ajySNWTbzk7qzlg5tPepSKwb/I+SdxWwLI6uoNXKB22JaWVYGKLS2JAhWhGnt6a7kVoTqN3IpQHWwe4MQbgD3htwKgd26Nm2ld176KfxlbIptP+mb6Z1b8jRvn/5+9O4/X5KjrPf6t55yZ7AlbgKCAoGwzCUETBUKiiaJckB0zLAJe772CV+V6xSDgxiBrWLzgdhUXUNAAuaiIiEBIhszGkgFCMgnZgUAmO5mZZJYz5zx1/5g54ZzndD9d3V3VVdX9eb9e8YXn9POcfvrpp56q71TVj+XtU+7xfUZ6wca3vqzj2cueP8O3/PbTZHWepPvylQRk9ellgJr7AJVZf5Hu1YYD1FifH4Lq0v5t/Hs1xbZ1iEE1+6hm3w8gAByMewPAkdV3rClrw/q+JNJTG5DOksi2L8TfcxH+dba8vbvwzyaxt6W1+vUt73zxJVnHB7f89itk9edaPhsbQNqf3MAd/gCdfpalMUDtwwC163Ni1t/K4wmqM7tXU2xbCarTaFtXvG+30r8bhtkl/+ubWmBJZPMTS2ZJZPMXMqCKv0EHhpFmuIa/xw8+MIW9LY3Vn29554v/Ltv44Ib1h+vI3X8pq1/iawjI6tPLANX7AJVlaWkMUAmqw9yvBNV5tq3M+gszViGoTrYfMGIG4FDcGwAuaOabRvMeOgNuXx6DCv+iVfz19Z1Cxd9u73Gf93kv97bcetdRM6/ONj649TUP1vjuT8jqVL6CgGw+uQ0OZYDKAJUBavOODEE1QbWPezXAORFUi0IfPewH2AWKgAzEaPF/XPC6n90paWe7BtbtAxmlwIPLb/PeD81DI1X04/AVfwn/2g1WulrensLelka62R6YOXv7+nVzWUYIt7360RqPt0iW8A/I55PbYIBqaz5/gAFqq+9Nj68h6gC1zvepVWcDVBvhfSg9NMUBah+W/LbcmzJ6+GcPdsZsR6/ZuW2N1I6VnnLH7VjlqUb4/NgI70PFOCxKO9aqHxDgnOr2A1bN3Ex/bxhGE4PrbwXpOLMkMsCH3mcjVfbj8OFfl5dmeHtb+p3h6ue9aRVyH5DVuq3/Z913s4wQdvzWT2hhtEnSI/jqAbL55HYwQPU8oE1pJlUKA9RgYUqDAW3WA1SC6k4+0ykF1THbsRWHElSHuVdtu3uVoNpTPyB6UL3b/PAFO+nzDcNo4tb4Jksi651TIksiWzRSnq+QDf1uDKTiL3tbFvzOvGbzO1+8McsI4eZzniNjLpLs8XztAFl8amsOUFP91/5IAU9KA9QYQUFRHyH7Aarn9613QXWqs/4IqsO0rR22Y05Pk/usvxZta8x2bMWhmQbVVt+h3zccBTMAWRLp+qAUlkS2+1Kd9mMq/nZ7n1uPR/dvebuR/nPrO1/4J1nGCLf89q9K9mOSOZKvHCCLT22DAWrIwaDjALXzwSDL0vIboBJUB+jgKPysv47OiaDaYRCR4qw/guqon58+BNUj3UTfbzhml98m9lvpnSJLIoNU/PX9XImGf+07E+4dexvx8vu/xw+1CF7OsfWVuXXOzvyyZFJcsz39ld/y6lfL6l2SDF83QPKf2AaHUujDbYAa+jsj0TAl9r3Rqv9DoY9OzolCH5766hT6iH+vpti2UujD7U/YG+kDDseyANCM9S3rZZjKkkhfH+gg4Z/vff9sgMNDFP3wPVDMYXl7JuHflPvcWmv++5ffuS67jWntjnNeI2vfwdcMkMUnNvAANcCANpUwJasBakfBAgPUAP06gur87tUU21aC6jTaVoLqpPoB1rIEeECWzwA09pvtJ6qwJNLX67Mh0qsQRT9q/CEq/rbrDOa1t6XjX5s2pjR6z9Z3vOjfs4sSdpzzWhn7dr5igCw+sQxQcx+gphKmBOgLpn2vdjhA9XE8QXVpXzb+vZpi2zrEoHqIs/7oB2ikLAssopllAeDsyHxrftyyEx1hSWR34Z9NMPzLp+Jvb8I/+brH+763Zev7/PLDjtj3u9lFCTvOWS9j38DXC5D8pzVwhz9Ap59laQxQhzpAzfJerd/XI6iO9PlJ/l5NsW0lqE6jbfXw/JYAcEiWFQH51O8+4zZJ9zTuSEeaFVXzBm/8XInsh9ay0Sr6cfjwr8tLE7boh6+nY2/LivBvnzULL9mw/pf3ZRUn3PzqtxL+AVl8WjsYoFLoI40BKoU+Oh+gUuhDFPoI2bZ6/vxQ6EMU+nC9V/tQkbrwxwSAAzIq+FmDQiAsifQ6LOm84q+vsZPPd2MgFX/Z27LMa7ee+9LLsooTbv7t35XM6/laAZL+pKpemMIA1X2AGnIw2NUAtW6fwPZgJpUNeK9G/PwQVE/tw0Zpx5YdmmpQ3WE7FqxtbfEaBhFU0w9YYX7uBvqHw+EhAEwx/PP1gIMPSmhJpJervPwZ+lPxN7vwr/XRvd3b8gs/cMPMn2cVKdzy6v8p6S18pQBJf1JrHtqXf+339BqyGaB2FCzYSO9D1AFq3Y4YQXV+QXWqs/4IqoN/fgYTVIfsBwQ4p/D9gJ3m8Zu+Rx9xOGYLfvatOKfCksguK/42viiJhn/y/BTTvoy62ttSndzjBx+Y0PL2/TMLM//9/PPXLWQTKdx8zktk7Z/xdQIk/UntYIDq+XgKfYj901K4Vx0HqCncq17vV/ZP83+vpti2UuiDfVQH3w+4nj7isMyuvE3Mt4zzzcWSSF8fvi7Dv8avzAY4PETRD4/vXDbL2zMJ/6ruc2vM+o3vXndFNpHCzec8S7IfUPFsagDxP6WBO/wBOuQU+mCAygA1o3u1fv+OoDrS54dCHyKodj20h4U+yo9l+e/ArAgAR0bfdA6jWBLp5fXZAPsIBin6UeMP9abiL3tb+vtr1c956dz3dr47m1jhptecIY0/KmkVXyVAkp9SBqjeB6gRAtLoSyhTHKASVIe5Xwmq82xbmfUXYixCUD2UfoAIAAdm5RLghfENGplaXy4siQzyglo2YGU/TrHib4rhn893kr0tHcK/eTvSL2973ysPZBEr3HzOIyT7MUmH8zUCJPcJbXAoA1QGqNX93WEMUFme3uh4gmoP92qAcyKo1jCDavoB7u+DIQAcmBUB4Nx47qpVo8OcP7AsiWx3cLcVf7sJ/4LMJndqI8MV/Yh/j/u8z7sNph3v8XO3vv0lX80iWrjjVcfqgP2EpOP5CgGS+4QGHqCyf1oaA1SWpQ1qgJr1vdrROTHrL922laA68bZ1iEH10uPHBIADs2Lfqg3rn3eXpFtcPrAsiWz51zoN/3yOpXy+GwOp+JvL3pZxlrdfe9ze+7wpi2jBvmKVDqz+V0lr+foAkvuEJjhAzWjJbwqVKINVTW1QuTLrSpRUpO7kfcu2InWg942K1IHv1RafHypSe+wH9KEi9RKzMwSAAzNb8vOrJD3I560WLhjxdXLJLYmUj1DLtnmuRCv+5hH++bxj+r23pbULv/WpP33G/ixazFuO/VPJnsVXB5AS/rU/nQFqi+OZSeVxgOr5eAp9iP3TUrhXU2xbKfSRRttKoY+Gjxlr1TwB4MAUVq40BwPAlh9cP1+g0ZdE5hL+Wc8NRKLhX/BBZKQZruHv8YMPTHBvy89ufedL/z2LiGHHOa+R7Cv52gASa7eDD1D7sNTH1nhpEWbLeJ9J1fA1JDWTKuKspdJTjjgTMWpQnejelNnPpPL8+cli1l+Hnx9mVE+5V/swo9rD+zbWN80jNuyjLzkshTMArdFVK27KoS6J9PxhzKLirw1wOBV/G1y/FJe3e93bcs5o4VVZRAw7Xn2WjH0bXxlAMp/KBoeyf5rbADXk+dT/jmTWXwr3asRzYv+0ju9XZlTn2bYy649+QIN7dWSvpj85PMUBoEbfMBoXfnhZEtn8YGsDfLBDFP2o8YcI/9oNbPJb3i5P97mVld675R0vuyr5mOE7v/ODMuOPSHaGrwwgiU9l4AEqhT4YoDJATWaAmsW92tE5EVSn27YSVCfetg690EfJr6xJfhwG/woDwJmRrhovrPzwsiTSZ8Pos7NY9ONuKv6G70SWPU2iS4jb9FmC3OfJLm+/Zc7MviX5mMG+YpVuXjhPVPwF0mtnGaBGGqCyf1qe92pGA1T2T1t5PEG15zEG+6jmea/SD/B7rzIDcIgK9wA89od33SDZ/Vksicwk/KPir6fTouJv7XNKa3n7wYOM9Npt567bmXwLecvRfyyj0/mqAGJj/7R8B6jsn5bGAJX902r35dg/reReZf+06pdGReoo7Vhq/YDWbWvofsAMAeAAFQaA569btyBrr20fivgMRlLcD83xr3Ue/lHxt8kX1aDCv2jL2yVZ++XNR179weTjhpvPeZFkfoOvCSD6p7GDMIVCH/kNUCn0kU6YQlAd5PigQXXN4wmqa9yrBNVRPz8p9QNSD6qtCAAHaFT+Kx9rwvu+H1qkir9Tn4Hwr8kggL0tQ9/j33+usdXvav36cdJxwy2v+WHJ/jVfEUDUT6LqhSkMUAN8CSQ8QK37nW97MOvPBrxXUxygElR32maUnj5Bdbi2tcVrSGnWXwpBNf2Amveq3aM1p3+HvubwTAkAdVW7/CGz/dACPFeQ8M96fn0JV/wNOqhkb8tYn5eLv/CuX7wg6cjBrp+VHX9Q0tF8RQAR2+lah/ZlWZqn18AAtfQ7P8pgMMoAtW5fbWhBdcG9SlBd0rZGasdKT5mgOv6sv67a1pD9gADnlFU/wFxlTNoTMhDGbNkvjLFXja3pJBQZ/JJIL30nKv42+bJieXu7g2uH3GO9LvlW8dbdvyvpyXw9ALGwwXfLDkGE4KL+dyKFPjp4H7K8VyOcE4U+Sg6l0Ef8tpVCH/QDQt2r9nL6m8NUGgBqbL4hE/4EWBLp4zMevuIv4V+7gU5+y9vl6T5fep3Mx7e868Vbk44dbvrtU2T1+3w1AFE+gYE7/AE65J13+BmgMkD1NUCN+PkhqF55PEF15LaVoDqNtjXDfkDrtjVaP4AAcKBKlwDPjeca7gHIksgwDVzZj8OHf/WfL8XwL9AgNYfl7WnsbTkejcwbko4eblp/pGb0j5JW8dUARGxXgw1QWZaWxgCVQh+dD1DZP00U+gjZtnq+lyj0IQp9pNAP6KptDdkPmHZ/m8voew5TaQC4Yf3z7pJ0S5xgZEBLIn1/JzV+zm7ejVrf91T8rXVO1v+74PMeP2/TuS+6NOnW0Nz9Llk9hq8FoEvsnxZugNrhwIj90yINUAmqGx1PoY+C0yeoDte2tngNFPqI2A/oe1A92k4fdJhmK37/DUkP6j4Y8fGAgw9Keklk6885FX+bdLI8zU9seXTfl7cvc8COFtYnHUHc9JozZMa/ylcC0Oknr+ahLEtLZ4Ba5+HsnxbtnAa/5Jfl6Wm0rUPcRzXFtrXha2DJbx/7ATu15oIb6YcO02jqb425qvaNyZJIzw2vx+dKNPzz07i7fXHZiJff/z1+8IGpL2+30j9tffvLrk02grjmVYdpNP5LqYtdTwGkO0DNaE8qLzOpWJYW7l6lInX10+Q+66/hOVGR2mEsEenzQ0XqiXuVGdW97QdYXW5MkvtsoQMVMwDHV1aPiVkSGST8873vnw1weIh9/3wPMHOo+JtJ+NfwPrdmPHpX0q3g0at/V9Iavg6ALvCv/ekMUFscz0wqjwNUz8dT6EMU+kjhXk2xbaXQRxptK4U+oretxrL/34BNDQDtgi41I383M0sifXzew88ipOJvu45kXntbOv61xh1o88kt73pRslWm7I7fXiOj1/FVAHTyiUtsgMqytDQGqCxL83I8QbWGGVQ3+Rd+gur492r98QVBdcftWDb9gEavmwrAAzY13pu1s5cG++xU/TaDWVHWBvjgR67425vwz8sZ1v9yzm9vy7AzXI3VO5KNIuz6kaS/krSarwIg6KdNFPpIZYBKoY80BqgU+gj++aHQR8HpU+gjXNva4jVQ6CNiP2CgFamN/Qp90+GaGgB+ev1/uVPSd30EI7Vu9B7vh9b8Mx8+/Ovy0oQt+uHr6djbsuXy9i9tfueLNybb+t26+3/I6HS+BoCQ2D+t1fEMUFcOUGMOBqMMUOt2qIYWVLN/mnvbGqkdKz1lgur4+6h21baG7AcEOKd+9wMWNHfY1+mfDtfI4Wa5NFwwMsQlkZ76U42f0+e7MZCKv+xt2fQvvC3ZSOK23zlGVm/kKwAI+knrYIDquUNOoQ9R6CPEAJVCH528bwTVJYdS6KP6VAmqo7RjXvoBFPqo9zfsVebkz9xDH3W4KgNAI3NpuGDExwMOPiiXJZHNzqQ/FX+zC/9aH933vS1LD7xq65FX/1uyLd/8+A8lPZivACCEugPUVP+1vw8D1BbvW0r7p2U/QPX8+enrsrSm50RQPeVe7UNQ7eF9I6ieOmaK0o6l1g9o3bbmElQblv8O3GzVAWNjLjX3pgEsieyy4m/ji5Jo+CfPTzHti8x6fFqvDx7K8nZj3q3168dJRhO3/NYjZe2raP6BIJ+wBgPUlDr8Ec+JQh8RBqgh79UA50ShD1How/VQCn3Ev1frj50p9NFxO5ZNP8Dj3zDmq/RVh60yAJwZLVw6XhiJJZHdhn+NX5kNcHiIoh8e37lsKv5mEv55uM93Hr1w4J/SzSdG75Z0GM0/4PWDxQCVAaq/422HrzmJASpBdaPjCao93KsBzomguoN7NcW2lX5AFveqGRMADlzlEuDjfmTvNZLd4++26/uSSF+f//AztXpT8TeH8K/FOeW3t6X9+8+86+VJ7i1hd5xzpqTn0vQDHXyZTR2gsn9aGgNUCn1UH0qhjzD3KvunhWlbI7Vjpac88EIfSSxP76ptDdkPCHBOw+wHWM0tfI1+67BVBoDnr1u3IOkKP6EDFX/d+lYpVvxNMfzz+U6yt6W3Ga7jmb9OMqKwMhqN302zD0RqeSn0EWiAyv5paQxQKfTRyftGUF1yKPunVZ9qhKA6Zjt2771KUN3/foDrZ9TeYB6/6Xv0XYdt5HKQkS5tH4wMeklkje+rbsK/IDPRXfoCAYt+eDnLHPa2DPBcHu/xz29514suT7K1u/W3nydrfoxmH/DVrlDoI40Baov3jUIfHgeonj8/FPoQQbXrvUqhj+qXRlAdpR1LrR/Qum3NPKg2oy/Sf8Ws4211KUsifX5Zez51G/rdGEjF31z2tkx4ebu1+qskoworo1v0hzT5gKf2t/YANaUOf8RzYv+0CAPUkPdqgHNi/zRR6MP1UPZPi3+v1h9LUOij43Ysm35AF+e0QAAItwBwZMylY2v9fkyHtCTS+Rn6U/E3j/DP5x3T970tnQ68/T777vPPSbZ0t7x6naSTafKBcK0gA1QGqE2/x6MMBjsfoBJUNzqeoNrDvRrgnFK5V6O2rRT6oB+QWz+AGYBwXAI8Nz/39ea37OCXRDoe3p/wL/gANFLRj/D3+MEH5rq3pbH6m0/96TP2J3fH2PUjyfwezT0Qvh1YPkBl/7Q0BqgU+qg+lEIfYe5VCn2EaVsjtWOlpzyQ/dOmjSEo9EE/IP1+wJyO0Nfoz8IpANyw/nl3Sfp2/VuQJZFu/Szr7flaHU7F3wbXj70tFw8czyz8bZKt3K27XyzpJJp7wPMXmNcBqucOOYU+xP5pDFBrHc/+aRHCFAp9tBxAxWvHmg+wAt2rln1Ue98PaHlOVl8zj9iwjz4tRu63j/l6vVuQJZFu313hZ2oR/lUMihq/0+xtueTQL2x9+8uuTS62sOtHkv6Aph5o2lZS6CONAWqL941CH5kMUCn0QVA97V6l0Ef1SyOojtKOpdYPaN229jWotl+iXwupRgBoNL601YdggEsiq9uDbir+1m8kfT1NokuIm35/BLvNbKcnEGhvy/OSbOFu3f1sWT2Gph4I/T031GVpdQaoEQZGNsL7wABV6c3662qA2uI1DCKoTnXWH0F17fEDQXWEfkBXbWtv+wFfoG8LybEIiCRZo0uN0/c0SyIbf381fs5u5qjV6htQ8bfWOVn/70I39/jBwxcOaPb8REOMV0uGlh4I1uHvqoNd+0sowQFqlA5/nMFgwXe3/+fvaoAa8l6NeE4U+uj4fqXQR6vjKfSR8L1KPyCNe7VirGvEDEBIqhEAjqRLbeXtyJJI9zaBir9NvuQGFf7ls7flhV9+57qbk4sxbvqtU2XNGTTzQCoD1AAdcgaoDFAHM0D1+L4RVHd4r6bYthJUhxg7EFTTD0i4bb1Nj7s4ua2aEIfzEuDP/v4zr5V0V1dLIv2199GWRE55BsK/Jl9yUWYzuvx28Htb2n9Ks3UbvYYmHsh5gEqhj9oDVJalldyr7J9W/dLYPy1KO7bsUPZPC9BJFoU+6Afk0w9oeU7l53GxMUnuzYUYQ2TnI42xVvYr4YORbvfqC7Qk0u/rS7jib9DBaKSiH+Hv8YMP7MnelvtWH5j71+Tunpt+++GSnk8TD/RwgEqhD1HoI9cBKvunEVT7vFcJqoO/b+yjmmY/oHXbOrCg2ow20d/FolGdg401Xw4bjPRmSWTdV9bgZVDxt1Gns/Fdk+Ly9iT2tvzkhvf88l3JtWzG/C/V2OIAGCYKffgfoFLogwGqzzCFoDrI8RT68BymSATVAd83guoAbevA+gELIgDEvWoOkM2XV95hLIl0+y4LP1OL8K/ii9xz0xt/ebs83efN/7CRSa74h71h/eEyu/8rzTvg83uNDb49d1TE/mkpDVBD3qsRz4lCHx3frxT6aHU8+6gmfK/SD0jjXq0/vpXs3brdfI2+LxbVCgBHMwe+tDCenX7TsiSy4MfW45+3nbycem1vokuI2/TVq37re3l7LntbLj/8wKoD+z6d3Ft/5K5fkDX3o3kHYgxQe7zBt+3gbzBAHfgAlUIfed6rKbatBNUhxgsE1QPvB2TVtt57wFZz1oZ5+r9YVGsJ8Gd+/7k3StrRIgEpvUF7tCSyVfM3/cE+F6hS8dftkI6Wt3t+7zra23Jjkst/ZX6Fph3IZYDKsrTa32nsn1Zyr1Loo/qlUegjSju27FD2T3NvWztox2r9OQp9xO8HSBT6qNkPsHYj/V8sNar/EHOJt3v50IOyXhJZ+X1Gxd8mHTRPi5NbHt335e0t/6zVJ5OLN777O4+R1Rk07UDmA1T2TxP7p+U6QCWoJqj2ea8SVAd/39hHNaN+AEF1/ddAARBM3BG1H2Hsl1kSGaohVLLhX/tOjPuXnu3o8ncX/tle7m1pRgvJBYAajf+HJEPTDqQ6QKXQBwNUT/cqQXXAAWqL15DSrD8KfVSMBwiqKfQRox/QZJBGP6Bh27pfx819gb4wlmpQJbOgEAhLIv28Mhvg8BBFP3wPTiMV/aj1atnbcvLH1295x8uuSirm2L5+tczul9OsA00/52zw7TZATanD39E5sX9aIgPUkPdqVwPUDu4lCn2kea9m1bayjyr9gMjtmJ9+wBbz0K176RNjqdoB4OzCzJfmR2OrxVk2IcK/XJdEioq/bb740qj4m+Lelo5/rcvl7Ub/llxr9oDdz5DVA2nWATb49t/hZ4DKANVX/4pCH3neqym2rQTVIcYIBNUD7wdk1bZWXVN7EX1iTKq9BPjT6//LnZJuaBti9HFJZFcVf3sT/nk5w/pf7AFWlxc+yHZ4Al0tb198Bju26S3/tXoRTTrA/mlhBqjsn5bGAJVCH9UvjUIfUdqxZYdS6CPAoE8U+hhKP0Ci0IenfoA1n6NfjEmjho/7Eksii34cPvzr8tKELfrh6+nSrfjr5zWntbz90C/vue/++yZVUcretP5IST9Pk47hotBHOgPUFq+BQh+ZDFAJqgmqfd6rBNXB3zcKfWTUDyCo9vQ+3K3993yZ/jEmNQ0AG95Mfa/423DMVuMZrZ8/UO9ROVT8TSz8S2tvS5/fi1aStn7qT5+xP6mWzOz6eUlH06RjmCj04X+ASqGPJMIUguqAA9QWr4FCHyWHElS73asU+ojetlLoYwj9gIvNqdsO0EfGpNlmDzNfbnKD93lJZJ8q/mYX/rU+2nq9Nfq/vN0kNftPkjQy6wJWqgESxQbf4QaoKXX4Ozon9k9LZIAa8l7taoDawb1EoY8079Ws2lb2UaUfELkdC9oP0IX0k1GkUQB45Nhu22M07/743i+J9NRuxQ//5Pkppn0JWo9P6/XBLG8v+PH3fzkyNq3lvzefc5SsfTrNOYaFDb79d/gZoDJA9dWnotBHnvdqim0rQXXt4yn0QT+gVQbRl36AIQBEoUZLgD+x/ll7JF1Z5yZPa0mkn/Cv8SuzAQ4PUfTD4zuXTcXfTMK/bpe3L/vlgX1H3v3FtJqx8TMlHUVzjuFg/7QwA1T2T0tjgEqhj+qXRqGPKO3YskMp9BEuTKHQR//7ARKFPoL2A27Tmosvpb+MIqPGj7Tu+wCmtyTS1/dc+Jlavan4m0P41+KcBrO3pbVf3rb+lXvSasbMs2jKMQwU+khngNriNVDoo+RQgmq3e5WgOurnh0IfNV4a+6hGacey6AcQVAd+Hz5jjMb0m1GkcQBoRy4BIBV/HVMVTy8nxfDP5zvps+iHr5Mb1t6WNrH9/6xdP5L0szTl6D8KffgfoFLoI50whaA6zAC1xWug0EfJoQTVbvcqhT7SaFsjtWP0A+L2A4z9NP1mlJlt/MixviTTRTCS/JLIls/ZYo6ap4yuy6IfXs4ysYq/XQ3uU9jbcqRRWgVAbt55qszogTTl6C82+M43TKn7cPZPi3+vRjwnCn10fL9S6KPV8RT6SPhepR+Qxr1af/zq6ZysZC6g/4wyjWcA7jzhhMsk7S27GQezJLLt59PbZRpIxd/Ewr+BLW8fr57ftzmtFsxQ/AM9NtT90zy8BvZPizBATXEmVd1OEMvSkphJ1Yv90/owo7rOqfZq/7TE2lb6AY2PH+aM6q+aNRt30IdG6fC56QO3vfLUA5L9ctHNOKQlkc1fRvyKv3mEfz7vGOv11kgv/As7w9UYXbvhPb98V1r5CAEg+opCH2HCFPZPY4Aq9k8rOp6guuBQCn2EC1Mo9NH/foBEUB2lH/Cf9KExzajVo602Od/AuYR/1ucHVMmGf8EHrpGKftR6IzKp+Bumk1D242n3pv1aUnfZjb91P0mn0oyjXyj0kc4AtcVroNBHyaEE1W73KkF11M8PhT5qvDT2UY3SjmXRDyCojtKOGcP+f5hqts2DxzKbR87xgd+bO4uKvzbA4VT8bXD98g3/Elve/rW0Wq+Zp0p2hmYc/cH+afE7/F0NUEOeT1cD1JD3aqABaoz3IfgANaV7teE5sX9agP4++6cFOz77oNrzvUQ/IKV+wC7tuWcr/WlMHUK3G6rMb5Fmxzo0k3BoSyJ9DvAI/9p96fvcTXHaX+n33pYVC6gXEgsAjT2dJhz9wAA1zwEqhT7SGKASVIfoVxFUR/r8UOhDBNX0A/LpByTWthp7gTl12wH61Zim1RLgDeufd5ekK4e6JLL+c/racC7F8C/QYNgGuGt8V/zNeG/LOs+1aiGtJcCyIgBED7DBd+Pj2T8twgCVQh9pDFDZPy1M2xr588P+aWJ5Ov2A2scPs9BHsbH9N/rVqDJq/QzWbu7vkshuwr8oBTKo+Fv7nNJa3u5nfXmNV3brxve8LJmKUvbWXztaRifRhCNvFPoIE6awfxoDVLF/WtHxBNUFh1LoI1yY0oegWgTVlU+Ze1Ddm37AWHaeAiCo1DoAHI/MZi/3ucutndZ+aDUeTMXfRo1pq3e6o/Av2vJ2X308507yV9PKTY54slpuYQBEvIFFoY9UBqgtXgOFPkoOJah2u1cJqqN+fij0UeOlUegjSjuWRT+gD0F1b/oBXzAnffEW+tio0noAPTM2m8bGtrtvE1oSads8F+FfnNmMLr+1Af7WgPa2tKkVABmbp8ikuHwdSGGA6vl49k8ThT5C3KuBBqgp3KvRB6gh79UWA9Rk7tUU21b2T6PQR6x+QEZtK/2A8rbV6BP0seGi9QzAC9Y/83oj02JpYFpLIht/ABOu+Bt0IBup6EetK5tJxd9wndyiH9c8J6NvJHXrGfsUmm/kZYj7p6U6QG25LC16p78v+6d5njnC/mlKb9bfyr5ilHZsxb3K/mlh2tYWryGl5enMqKYfEKVtbdsPMOz/BycjP09jt4QKRpJdEtmiQaLib0Wj2viuSbHib4p7W9Y3o/F1ycQoVkbSj9N8Ix8MUBsfz/5pEcIUCn3kN0Cl0Id725pSmBLx80NQvfJ4guo0+wHe29YWryHVfoDRDWbtxivob8OFlwBwLG0OEYykvCSy6R8i/KvoBHhuIpvu++d1hrmX+zzu8vbx/Pj6ZFqtW875IUnH0XwjDxT6CBOmsH8aA1Sxf1rR8QTVBYdS6CNcmEKhj/73AyQKfSTfD2D2H5x52UR/ZLTJjkM2Cj4b1bIfd1Pxt37nwNfTJLqEuGm/yeW31vP9lMvelv6Xt+/betwNO9K5b8YnSYbWG4lj/7R0Bqgtjk9pgBozuFhxKPunxb9X6/ej2D+t43YsWtvaZBlI7ntTso8q/YAh9wMM+//BmZcZgHc9aMfXJO3xecMPtuKv72EnFX9rn5P1/y50c49X3udNl7fbG7R+/VipMDqZphtpY/+0xueUyrI05wFqHypR1r1Xh1aRmmVpte5V9k+r6JQzozqJ/dMGV5GafkB/+wHmDt0683n63nDlJQDc9spXHrDSl7wNnToP/6j426QB8jQ/seXRfa/466vP1+aimGT2/zv0Rfd4mm6kif3Twg1QOxwYUeiDAarLvcr+aTUGqDHCFPZPC9O2tngNBNU97Qd4bltjtmM59gOM/bg5a8M8fXC4Gvl6IrO4D2AnwUikJcRTHxI//GvfWXfv3NmOLn934Z9NMPxLY3m7NUpn/z9JGosAEAli/7TGr4H90yKEKeyflt8AlUIfYfq+7J8W/JzYR7Xn/QCC6qj9gLH5Z/rgqGPW2zMZbW67t0Q+SyI9Hx5i3z/fA9tIRT9qvdoMwr9wnQiP9/jEw4xNJwC0N60/Umb3j9B0Iy0pDlBDf++wf1qw49k/reLX7J/G/mk+7tUU21b2Twt2TjbS+5BNPyDFtpV+gIPdOnrmc/TDUYe3AHBsF7aONDNW4azCni2JdPxDVPxt18h2s5ti5hV/O9jb0hh9M5kWa2bXo2TNSEAS2OCbAWouA1QKfTBAjTZAFUF1jvdqF20rQTX9APoB7e5V80nziA376I+jDm8D6Q3rn3eXZLY3uflzWxLp8od6E/55OcP6HdgABXcLH2Q7PIGulrf73ttyrIWb02myzCNotpEG9k9rfE5s8J3BAJVCH2kMUNk/rfpQCn2EuVcp9EE/gH5A8v0AM/4Y/XHU5XkmzXiz7zCjeSNb9uPw4V+Qtsq1z+F72pr1/CSJVfz185rTWt7e+KKU3OMjs/r2hDIXAkBEvwkp9JHjAJVCHwxQG9yr7J/WfoAa9F5l/7QwbWuL10BQ3dN+gOe2NWY71pd+gNFezR/9KfrlqMtrALi8EIjbnZzjksiqZ7R+/kD9djz1ir+JhX/W13Xq+h6vvM/97m25fzRKJwCU/SGabUS8/wY6QPXQIafQR4QwhUIf+Q1QKfTh3rZG/vwQVItCH0PqBxBUJ9cPGNtPm5M/cw99c9Q16/PJFrRqw0juVahzXRKZQsXf7MK/1kdbr7dGehV/fY1XvM+6ndt27tm70mmyzCNpttG9JgE9+6fF7/BL7J+Wwr3qOECN8T7UehoKfeR3rwY4J/ZPE4U+cu0HpNi20g9o/DeMPkL/HE14nQG4Yf0zviOZ6/q+JLLVX/C075/Pp5j2BWo9Pq3XB1Pxt+DHQZa33y6ZcAWm6/shmm10q+bn0w5x/7RUB6gsS6s+lP3T3O7VDmfwsH9ayaER27HSX7N/2nD2Uc1sRrVVT2dUh+wHdHROfvoBe2RW/zt9dDQRoJqmvajyiMyXRDY+PETRj5bPNe0LNNmKv5mEf90ubw+zt6WVbkuszfohmm10h/3ThjNA7SBYoNCHwwA10ueHoDrEANVTmBKxHZvah2f/NIJq+gH96gdkFFQbfcKs3XA3/XQ04T0ANMZuaB+K+PyODD9TqzcVf3MI/1qck+3iz9S6z9Pf29IkFADaO197nKSjabbRwd0mCn3kOECl0AcD1Ab3KvunhRmgertX2T8tTNva4jUQVPe0H+C5bY3ZjvW9HzDWR+mro6lZ3084Nzt/4aoDsy1CEZ/BSPiKv70J/7ycoeS36IePBxx8kO3wBPq0t6WVTacAyPzc8UEmLQOdhymez4n90xR+1l+LAWpSYYri3Bve+kTsn5bnvZpi2zrE/dNanhP7qNIPcDk+q4JfWfYDdmv3mOq/aMz7aHrj771gh6Sruxt8lf04fPgXrI136i97nrZmPT9JYhV/u7pIfdvb0hilUwBkbB5Ak41wWJYWboDah/3T+lCJUt29D05PSUVq9k8rOpT908KFKX2oSC0qUlc+Ze4zqukHVPgXc9rWvfTb0VSQ6TRG2hA8GIm0JLLd3xpIxd/Ewj8q/ja/jnZs9qeTz4zuT5ONQDdXgw4/hT7CDFBbvAaWpZUcSlDtdq9S6KPzdsxLmEKhj+DvG0F1waEE1Xn2Azo6p5D9gBHVf9FOmPV0xl5YPxjJY0lk8/alz+Gfz2bUer010gv/Is9wrfGH7MEWYi6d5soyAxCdt0jdD1DZ4DvcALWDYIFCHw4D1EifH4Lq7gaoBNUJhSlD2z+tq7aVfkCe/YDcg2p9T/auC+i7o43ZEE+6f/XsZ1bvX1iQNNO3JZHOf8HTvn9BB72Rin7UeiMyqfgbpoNR9uMul7cnNANwpAck+VFCppp8HlPc4Dt0e8b+aQl0+MX+aSncqy3PKYl7tYv7lf3TWh3P/mkJ36t96Aek2La2fA2D6QdIkvl/Zu32hCZnIEdBZgBuev0zvyfpkl4uiax9EBV/3a5GvuFfn5e3m7FNaAmwZQkwwn6RTB2g9qESpdq/hl7vn5bqADWzZWmFHRj2T0tjgGrZP63yKalIzT6qfe4HMKM6v37AEsaw/BetBSupaa35dJgGuOzHHS2JrN3p9XAGQwz/WpyT7eLP3Hufd3mPN3wRLWa4jlNaAmzMsTTZaN+2sywtTJjCBt9pDFDV3fsQbIDq4TVQ6KPjASr7p4VrWztox5oPdMKFKQTVFU9JoY9h9AOWuUXbH7yBvjzaChYAGjP+tNcPQXYVf1MM/3wPpN1fqvXy3lQ/yHZ4AkPY29IkVQREh9Fkw1MD7djhp9BHmAFqi9fA/mklhxJUu92rFProvB3zEqZQ6CP4+0ZQXXAoQXWe/YCOzil4UL3C+Wbd+Qv059FWsADw/tvnviiZO/11GMp+3E34F6VABhV/Azbc7Z4r370t6x1uldISYLOaJhuhPtPdDlDZ4DudMIVCH2EGqJE+PwTVHQ5QCarTCVOGVugj1Vl/9AOCf36GUeijGMt/4UmwAPD889ctSPYCP42w548SFX97Gf6lV/HXV/8w3vJ2I5vQEmBLAIhwHfJOB6h1vwxYlhblfWCAKvZPSyVMGVpQzf5p4d63oe2fNsR+gOe2NZV+wCCC6tJB0He0ZtMW+vXwYRT02Y0+3f7DNu0Z+lPxN4/wz2ezar3eGumFf/nMcJ32F4wZJbT+3LIEGAxQuxgYUegj8QEqhT6SHaDGeB86H6Cyf1qre5WgevnxBNUB+gF9CKqH1g+oerrxR4zRmL49fJgN+eSjOX1yvEpj3Rs05r8ksroDnOAgOFLRj1pXNpOKv2E6HGU/TmRvy2SwBBihPn8phimKc07ROvxNvmM6et+y3z/N872UUpgS+96oNUDt4H3L+l4NcE420vuQVNtqGzy8D2FKikG1Ertf6Qek0Q9wGQKJ5b/wJugMwM+99Tm3SPqSzzFc42CkZmNGxd92DXJeFX/dDu6+4q+vz038vS09YQYgAnT4KfSRxgCV/dOqD2X/NLd7lUIfUQfNFPpwfGnsnxatHVt2KIU+8uwHdHRO3Rf6KHK1OXHLl+njw5dR8L9g9W9+g5F4+6FN7wR7OIPeh3++HnDwQdbr81X8tc7Dv0SWt6dlVkA2A1Q2+A43QO0gWKDQh8MANdLnh6C6wwEqQXU6YcrQCn101bbSD8izH9DTQh9FjD5AHx8+BQ8ARyP78d4tiUw+/As0qM6h4m+A9DFIxV/fzxV8b0sgVRT6yHOAOtQNvhmgtrpX2T+twwEq+6e1Op6guuW92oegOmQ/wHPbGrMdG1w/oOYJjRbOo68Pn4IHgJ9b/9wrjLHXBGmXYgUjnoas7Tr57l+0g6r46/lLIUj419ny9haHE/4hCxT6aPwaKPQRIUyh0Ed+A1QKfbi3rZE/PwTVotDHkPoBBNX59QMaucg87gvfpL8Pn0Zd/BFr9Yn2fT4q/jZpvDzNT2x5dN8r/voa26S4vH2BVhIJYllauDClD/un9WGAqu7eh2ADVA+voddBNfunhbtXCaqjtmNL71WC6oqnzD2oph8QlLEfpM8P3zoJAI0ZfTxIalL7IfHDv/ZfRu4dQ+vxaZv/Os+Kv9YGuDcjL2/vR1VrgP3T0hmgtngN7J9WcihBtdu9SqGPztsxL2EKhT6Cv28E1QWHElTn2Q/o6JzSKPRREKBor/bu/xf6/fCtkwDw/tv3b5Yxt3UWjARfEtnVvLrmX7ZdFv2o9WozCP/CdZY93uNS4L0tgRSxf1r2A1T2T5tyr1LoI78BKkF1p+3Y1H45+6exjyr9gCz6AUHa1swLfRT/uX8xp27bSd8fvnUSAJ5//roFa+3HOgtGavwhKv5WdCYaN4V+37suw7/uK/76up19vhukgUgJhT7yHKCyfxoD1Ab3KkH18uPZP63iKQmq2Ue1r/0Az21rKv0ACn24MYblvwhi1NkfMqPz67VR/VoSOazwz9cDDj7Ien2+ir/WUYWMPu5tCYRBoY/Gr4FCH4kPUCn0kewANcb7UHSvsn9axVOyfxpBdZ/7AR5eA/2AjvsB3tyiW2cvYAyAEDoLAH9SX9kgox1u/b9+LYkMW/QjwCA7sYq/ft6btCr+Nr4ohH8YDJalhQtTGKCmMUBVd+9DsAGqh9dAoY+OB6jsnxaube3wfSOo9ti20g+gHxAwCGjUBbYfMmdtmGcsgBA6CwDXr18/ltW/NGqnYgUjHs4uu4q/iYV/1td1qmxnA9wDA9rbEvDc82nQ4Wf/tPwGqOyfxgC17wPUBu/boIJq9k9rdDxBdcGhFPzKsx/Q0TmlWuijjBmx/BfBjDr9a+PxR6s/yv2ZFZVd+Nf6aJ9FP5RgxV9f38f92tsS6OTDwwDVrYFh/7SOB6h171WWpeU3QCWojvb5odCHKPRBP6DWORFUd9wPCGK7OXHTpYwHEEqnAeBPzXx9o6xu8vqhy2FJpPe2xOe+f77Ok4q/bv3HFJe3E/4hBeyflucAlUIf4Qaont83gmqxPN31XiWoDtO2tngN7KNacihBdZL9AAp9tOkOf4AxAULqNABcv379WEb/z1swkvCSSNu64XL78k224m8m4V+3FX+7Cf+8f+cCHfR2wocp7J8WfBDCsrSCQwmqkx2gxngfiu5VguqKp6TQB0F12b1KUN3/fkCLtjXY8wc11sL4PMYFCGnU+R8cjz7kLRip8SGm4m9F56Jx0+j3vcu64u+A9rYE/LXX7J8WJkxh/7Q0Bqjq7n0INkD18BpYltbxAJVCH+Ha1g7fN4Jqj20r/YA8+wE9LvRRfDr/aZ6w9buMDxBS5wHg59707C9Luvz7H7nws6J6E/55a658Fv3w1Zb6DP8iFf2Y+gxU/AXad/gp9JHfAJX90xigxhoMdjVAbfAaKPRRccoE1QTVRYdS6CPPfkBH55RboY8iM6O/ZnyA0EYx/qix+sd090Pz9DTei374erp0K/76ec1pVfxtfFEI/9BrDFBbdfjZP63jAWrde5VlafkNUAmqo31+CKpFoQ/6AbXOiaC6435AZ3Zoz55PMkZAaFECQI1nPihpwd+4Mf6SyOwq/iYW/llf16nqiBwq/ia8tyXQ/sPC/mn5DVAp9BFugOr5fSOoFvunud6rBNVh2tYWr4FCHyWHElQn2Q+g0Idvf2NO3XaAsQJCixIAXviWZ31X1l7kJxiJPysqu/Cv9dE+i36os6If1ga4ViGKftT4Q4R/yAf7pzV+DRT6SHyAyv5pyQ5QYwQFRfcqQXXFU1Log6C67F4lqO5/P6BF2xrs+Ts31szC3zFWQBdGsf6wNfqH9u1C35dE+iz64eul5lvxN0znpOzHKS5vJ/xDpHaM/dPaNig9HqA2eN8o9FHxa5alEVQXHUpQ7d62dvi+EVR7bFvpB+TZDxhYoY9inzaP+8I3GTOgC9ECwMP2HPnPknaH+NxS8bei8W58/fIN/wZZ8Ze8D9FR6KPV8SxL63CASlCdTphCUJ1GmML+acHfN4LqgkMp9H86OHkAAIAASURBVJFnP6Cjc+pDoY/CUzUU/0BnogWAn3nX0+6xRuf5HlgS/lV0jBs3xX5n2dku/sziU3Ye/iVS9MPDhV0Q4LeNZoDq2Jiwf1rHA9S69yrL0vIboBJUR/v8EFSLQh/0A2qdE0F1x/2AqG7W/r3/zrgBXRlF/eNj+xe+g5H6nRBfTxOmoUkj/PN5cj7Dv0gVf6c+Q38q/jKBEM0/DRT6yG+ASqGPcANUz+8bQbXYP831XiWoDtO2tngNFPooOZSgOsl+AIU+uug3U/wDnYoaAF70pudfKumSzoIRT+1Bl0U/vJxlYhV/A7wLxUeEGMBaz69vkHtbor8o9NH4NVDoI/EBKvunJTtAjREUFN2rBNUVT0mhD4LqsnuVoLr//YAWbWuUcWaHHWerDzB+QJdG8W9781edBSMeGonsKv4mFv6lV/HX1zgo/JdOtOXtgPcwJcUBKht8s3+azzCFQh/5DVAJqr3dqxT6EEF1qLaVfkCe/QAKfZT4tDlpy3WMI9Cl6AHg6r1HnGelXdWf4cSWRCYb/vn82vJZ9CPF8C+fir/Rwj82AUSQDj+FPvIboLJ/GgPUWIPBrgaode9VCn1UnzJBNUF10aEU+sizH9BV26qeL/lddvoU/0DnogeAn3nX0+4xxvxTk1Ck62Ak6AA6UtGPWg12JhV/w3Ssy34cPvxTh/c4q4fBALWjzi/7p0UYoNa9V1mWlt8ANdVlaRT66LRtjdmOBW9b696rFPpIox9AUB2/H5Ccm7V/3ycYS6BroxROwozHf9nkc0zF34qOR+Prl2LFX7eDu6/46ysz6ebdiHOPo38o9JHnAJVCH+EGqJ7fN4JqsX+a671KUB2mbW3xGij0UXIoQXWS/QAKfUQKQPR3FP9ADEkEgBe96fmXympDnUaE8K+io+y5aY5f8dfhr3Ue/vW04i/hH6KHKRT6CD4IYVlawaHsn5bsADVGUFB0rxJUVzwlhT4IqsvuVYLq/vcDWrStYQek6TFa0PzM3zCmQAyjZM7E6r1eP+TJh3+BBuQ5VPwNkD4Gqfjr+7lyWN5O+AcfHUH2T6vxNBT6SGeAqu7eB6dfsyyNoLroUIJq97a1w/eNoNpj20o/IM9+AIU+nI3tJ8zJF9/A2AIxJBMAnjl76b9Jus5bMOJpuBsuGBlwxV/PX7pBwj/f+/7lsrwd8Nbhp9BHfgNUCn0wQI01GOxqgFr3XqXQR/UpE1QTVBcdSqGPPPsBXbWtGt6S36WM+RPGFoglmQBw/fr1Y0l/VtWQUPG3+WtLIvyLVvHX13d3+FmE/Vjejv5ggNqq0WD/tI4HqHXvVZal5TdApdBHtM8P+6eJQh/0A2qdE0F1x/2ALGzX2s0bGF8gllFKJ3Ng/+hvJbuzVRMwmPCv/hij1m9tgFOJFv7lU/GX8A/poNBHbwaoMd6HXg5QPb9vBNVi/zTXe5WgOkzbmlKY0rRtjdyOrTiUfkCS/QAKfaTUv36vMQy6EE9SAeDmdzxnt2TeHzsYCTqgjlT0o1YDbps/V5cVf8N0tMt+HD786/LSEP7B/wA1ZGe2qwGqh9dAoY/EB6jsn5bsADVGUFB0rxJUVzwlhT4Iqsvu1T4E1fQDgrWtUcaByfmeFo7+J8YZiGmU2gmN7cyfSJqv3QxQ8bdBM+o3aOsy/Ou+4q+vDMXnu0HFX/jG/mnhwhQKfaQxQFV370MyYQrL0uIPUAmqw7WtHb5vBNUe21b6AXn2Ayj00bKf/T5z8mfuYbyBmJILAC9+87NvkPTh5t+1hH+trkbDff+s1+er+GsdVfy1bZ4r0Yq/hH/w2+FnWVp+A1QKfTBAjTUY7GqAWvdeZf+06lMmqCaoLjqUQh/0A2L1A7I0LzP6C8YbiG2U4kmNrd5qpXGQ9ijrYCTdir9+3pu0Kv42viiJhn8hPjfoC5alterws3/a8uNZlhZ5gEpQXWuAGrMdW3EohT7C3Kvsn5ZGP4CgOvjnZxAFv7Ltan/ErN30bcYciC3JAPDiNz//SiP7b/1YEhmg4m9i4Z/1dZ2qjugw/Gv8ymyAw0PMcB3SFy48DlAp9JHsADXG+1D0XceytAQGqHVOlWVp0dqxFfcqQXX107B/WpR2bMWh9AOS7AdQ6CNtM6M/ZtyBFIxSPTErvbWLYCS78K/10X2v+Ovruzx8IRIq/iJ6Kxs8TGGD7/wGqCxLC3evsn9alKCg6F4lqK7oJLB/GkF12b1KoY/+9wNatK3Bnj/7PvfnzJqNX2HsgRQkGwB+/k0v+LJkLggdjIQLRXzu++frpVLx163vGb7iL+EfInZCxP5pDFC9vm+DKvTBsrQ0BqgE1emEKQTVQY5PZR/VVm0r/YA8+wEU+vDOmHcz/kAqRml/WMZv7SwY8T3AzqHibybhX7cVf8OHf13enIR/aPc5YVlangNUCn1ECVOyGaCqu880+6dNaVsjtWOlp0xQPZygus7pE1TTD4jVD+iNb2jN5v9kDIJUJB0Afv6PXnCRpA0ViUZiwUgm4V+Lc8q64q8NcOo29LtBxV94apuCD1A9d8gp9CGWpbneqwTVDFCr+2RR2rEVhxJUh7lX2T8tjX4AQXXwzw+FPvJi7DuMYRCGdIzSP0H7+1MSjcSCEeuxqfNZ9MNXO+wz/ItU9GPqM/Sn4i/hH5oPUCn0kewANcb7UNThZ/+0BAaodU6VZWnR2rEV9ypBdfXTsH9alHZsxaH0A5LsB1DoIzc3Sjv/kbEIUpJ8AHjRm16wWdJ/ZrMk0np+ksQq/vp5zWlV/G18URIN/4B2A9SQndmuBqgeXgPL0hIfoFLoI9wAtcX7RlDtsW31/Plh/zQRVLveqxT6qH5pBNUdDYozZ841a7fPcR2QklEeJ2l+Xx4W1mZX8Tex8M/6uk5VR+RQ8dcGOJyiH/B6w1PoI8wANeRgsKsBaoPXQKGPilMmqCaoLjqU/dPCta0tXgOFPugHtLpXCar9vw+9dLN2LfwdlwGpySIAvOhNz9sm2Y+3aVCyC/9aH+2z6Ic6K/phbYBrFaLoR40/RPiHbrEsrdXx7J/GALV2Q0tQzf5pZW1rpHas9JQJqin04aMfEOCcCKpFoY+eMeZd5rSte7kQSM0om8/Q2PyBZMddjo2bfIlbj0/r9cGZVPwN07Ep+3GKFX8J/9DlZ4P905IboLIszdMAlaB6cAPUmO3YikMJqsPcq+yflkY/gKA6+OeHQh+5u0Mz9n1cBqQomwBww1uff7mkD/kZEg+s4m8m4R8Vfz2dFuHfALF/Wm8GqDGCgqLvNfZPS2CAWudUWZYWpR0rvFcJqqufhv3TorRjKw6l0EeS/QAKffSAeY957ObdXAekaJTTyc7Yhd+VdE8awUgm4V+Lc7Jd/JnFp+w8/KPiL/oi00IfnQ8GWZaW3wCVoDrcALXF+0ZQ7bFt9fz5Yf80EVS73qsU+qh+aQTV/p9/EO7Uvr1/ymVAqrIKAC98y7rvyph3pxaMpBH++Tw5n+FfpIq/U5+B8I8v9T5gg+9wA9SQg8GuBqgNXgOFPipOmaCaoLroUPZPC9e2tngNFPrw2LYOsR9AUM04oSGjd5lTt+3kQiBVo+w+UzPz75S0I3owYj09T402tMuKv/4CioojQnTQrOfXl2j4F5blez1pLEtrdTz7p6U5QGX/tMD3KoU+wrStkdqx0lMmqKbQR9HpE1TTD4jVDxiU2zWjP+MyIGXZBYAb1q+720p/UC9bSbzib2LhX3oVf319z1tvz9fq8OSLfhD+pY3901o1BBT6WH48y9IiD1AJqtMJUwiq0whT2D8tjX4AQXXwzw+FPvrH2Lex9x9SN8rxpC+evez9krZ1G4qsbCSjFHhw+a0N8LeihX+RK/7W+EOEfwjfErB/Wi8GqDGCgqLPOfunJTBArXOqLEuL0o4V3qsE1dVPw/5pUdqxFYdS6CPJfgCFPvpoh/bu/0suA1KXZQCo9evHRuNzum2J4hX9qNXYZ1LxN0ynvOzH1uOf95Wuphj+IV0U+vA/QGVZWhoDVILqcAPUFu8bQbXHttXz54f900RQ7XqvUuij+qURVHc7tusz8xZz6rY9XAekbpTriW9489kbJPOP3QQjVPz1+QXRfcVfX3lLN+9GrX5/D2a4wmeYwgDVfYAacjDY1QC1wWug0EfFKRNUE1QXHcr+aeHa1havgUIf9ANa3asE1f7fh4EyukGHHfM3XAjkYJTzyc+OZ86RdFfYYCTF8M9nG+2z4q/DX+s8/KPib/f3Oby9J7XDFJal5TdApdBHlDAlmwGquvtMs3/alLY1UjtWesoE1RT68NEPCHBOBNWi0McAjfV686hP7edCIAdZB4Cfe+tzbjHG/kEeSyIzq/gbIH0MUvHX93PlUPGX8G8A2D+tVYefQh/Lj2dZWuQBKkF1k++iKO3YikMJqsPcq+yflkY/gKA6+OeHQh8DYL6kEzd/lOuAXIxyfwEbZi7/C0lfSjsYybDir+cvxyDh31Ar/npF+JcW9k/rzQA1RlBQ9Nlm/7QEBqh1TpVlaVHascJ7laC6+mnYPy1KO7biUAp9JNkPoNDHMJjx643hwiEf2QeAWr9+PLL212W1QPhX75zSq/jr63ufir/d3uMIelN7DVMo9JHfAJX908KFKRT6iBIUFN2rBNUewxSJ/dNCnBNBtXvbmlI/QCKoDvH8OOTjZu2WC7kMyMmoDy9iw1t+4RJrx3/hdSAeIRjpJvzzOf7wGf7lU/GX8A/+P/ls8B1mgBpyMNjVALXu55pCH9WnTFBNUF10KPunhWtbW7wGCn3QD2h1rxJU+38fIEkyWpDR73EhkJtRX17IntWHv07StWkFI76eyGf4123F3zADyrIfhw//urw0eextiW7vfZal5TlATfVf+yn0kcYAVd19ptk/bUrbGvnzQ1AtCn2E6AcEOCeCalHoA7L6S7N283YuBHLTmwBw2/pn7RkZ+ytqm9wkV/HXb9DWZfjXfcVfX/mLz3eDir+IOUD13CGn0IdYlhZigEpQPbgBasx2bMWhBNVh7lX2T0ujH0BQ3f9+QBdtKybcqZkDb+AyIEejPr2YDW8+e4OsGi4FTjH889lmW3/9Ope/1lHFX9vmuRKt+Ev413fsn9abAWqMoKDo88z+aQkMUOucKsvSorRjhfcqQXX107B/WpR2bMWhFPqgH1B2r1Loo3PGvN487kt3cCGQo1HfXtDhc3tea6Xr4g7uG36XuvzWtjyn1s+XVsXfxhcl0fBPnp9iWoeWr//I7YPzADVkZ9ZxgNr5YJBlafkNUAmqww1QW7xvBNUe21bPnx/2TxNBteu9SqGP6pdGUB1hYDFUX9X2E/6Wy4Bc9S4A/My7Xn6PrH1l7W/YoVb89fzF1GX41/iV2QCHhyj64fXLmvAvLjb4DjdADTkY7GqAWvezTKGP6lMmqCaoLjqU/dPCta0tXgOFPugHtLpXCar9vw8ovZBGv2nWnb/ApUCuRn18URvfevbnJPveboMR6/Hovlf89dUPCF+IhIq/CHYTTw1TWJaW3wCVQh9RwpRsBqjq7jPN/mlT2tbInx+CalHoI0Q/IMA50Q8QhT5Q4INm7eaNXAbkbNTXF3bUrqNeJ+mrUYKRAVb8tTbAxYlc8bc34Z8C3ONIaIDquUNOoQ+xLC3EAJWgenAD1Jjt2IpDCarD3KsU+kijH9CHoJp+QPy2FRXulJ3/HS4DctfbAPBTf/qM/TJ6oaS7XRrRZCv+ZhD+hesElf04fPjX5aUJW/SD7/842D+tNwPUGEFB0XcV+6f1fIDKsrRw9ypBdfXTsH9alHYstX6A6AdQ6ANTvNqc9MVbuAzI3ajPL+7iN//CNTL2nKov/WTDvxbnlHXFXxvg1G3od4OKv2gzQA3ZmXUcoHY+GGRZGgPUhvcqhT5EUB2qbfX8+WH/NBFUZ9QPoNDHAPsBcHSR1m7+By4D+mDU9xd48ZvP/itJHylrGNMI/3y24T7Dv0hFP6Y+Q38q/uYR/o1pJUN07Njgu+YAtcOBEcvSIg1Q2T+NAaqvtpVCH+Ha1havgUIf9ANa3at9CKobvG+Ef/EZ7ZW1v2IMFxj9MBrCizywavxrVvqW3/Yx3Yq/fr4T0qr42/iiJBr+hcXMvyjXvNahLEvLc4DK/mmdDgazG6B2+PkhqJ7StkZqx0pPmaCaQh8++gEBzol+gCj0gUpjvcGctOU6LgT6YhAB4Nb16+60o9FzJLvXe8XfxMI/P81/Tyr+2gCHD6riL52JdAaonjvk7J8mlqWFGKASVOcZprQYoMZsx1Ycyv5pYe5Vguo0+gEU+gh6ThT6QLFLdPuq/8NlQJ+MhvJCN73p+ZeasX1l++bSejzaZ9EPUfG3xR8i/KND0ewasX9aGgPUFu8b+6d5HKB6/vykNOuPoHr58QTVDm1rhM8PhT6m9ouitGOp9QNat60U+gh3r1LoIzH7NLK/bM7aMM+lQJ+MhvRiP/+2dR+UzPu8NZe+q1JQ8bfgxylW/E0x/FOY944tAD0OUEN2Zh0HqJ0PBlmWxgC14b3K/mli/7RQbavne4n900RQnVE/gKB6gP0ANOvqm9eZNVsu50Kgb0ZDe8H33H7Hb0h2c+tBv++Kv5mEf4Os+OvpezaPoh9sHuitY8cG3zUHqB0OjFiWFmmAyv5pDFA93asE1QHb1havYRD7p9EPCHevUujD/99AQxt14qY/5TKgjwYXAG573ysPGLPwYlndGjIYaVlmwvmcbBd/ZvEpOw//Ein64eHCEv71AfuntTqeAWrHYQqFPtIIU9g/LUzbGqkdKz1lguph7J9GoQ/6AZ77ASz5TY8xOzWyLzOGdVDop9EQX/TFb3nxjeOR+XlJe0IEIwEK7hY+yHZ4AkEq/k59hv5U/M0j/EP8AarnDjmFPsSytBAD1B4H1eyfFiFModBHq7Y1ZjsWvG2te68SVPe/H9DynCj0AbfL/b/Mmi3f4kKgr0ZDfeGb3/ILl8jaX1LlLmfpVvztKtgIEv5Zz68v0fAv9DdUkKIf9DNaDFAp9BFugNrifaPQh8cBqufPD8vSRFDteq9S6KP6pRFUR2nHUusHtG5bKfQR7l6l0EfazIfNiZv+geuAPhsN+cVvfNu6/2dl/9BXKNJl+JdexV9ffQTr7flaHT7Uir/0MzoOU1iWlt8AlUIf6YQpBNVhBqii0IfXMEUiqA54L1HoI0DbGrIfINEPCPGa4cHVmrWv4DKg70ZDvwCb3rruLUbmfWGjAp9FP1IM/yJX/K3xhwj/Kjr0EPunhRygdjgwYllapAEqQTUDVE/3KkF1wLa1xWug0EfEfgBBdZb9AMK/HOyTzDrz2M27uRTouxGXQLpj9fhVVvaiMMFIvhV/www+y35sPf55X+lqiuGfwrx39DUa3s/sn8YAtWKAGnMwGGWAWrdxpNAHQXVZ2xqpHSs9ZYJqCn346AcEOCf6AaLQB9p1/82vmxM3XcqFwBAQAEravn7d3IHVc8810iVNgpFaO81lEv51X/G30SVp+26E+Q5pPZBx7/hS8TfYOxdogOq5Q06hD7EsLcQAlUIf6YQpBNVRPj/snyaC6lD9AAp9BD0nCn2gvr83J236Oy4DhoIA8JAvrn/prtHqA0+X7BWN+4gBgwnb4Ql0H/5R8bdJZ8LT/ERQ6COhAWqL941CHx4HqJ4/PyxLE0G1671KoY/ql0ZQHaUdS60f0LptpdBHuHuVQh/5DAHsV7Rv369xITAkBIBLbFj/ktvnjX5O0jezqPhrPT7Xve1giC9Dz8+VQ8XfZMO/gG9lnt/8gd9TlqXlOUCl0IeX49k/TRT6cD2UoNrtXiWojvr5odBHjZdGP4BOePJu1njhOebUbXu4FBgSAsAJW9+y7rszY/2spB3Nm+yOKv56/mINEv4NteKvVxT9CHJN2T8t0AC1w4ERy9IiDVAJqhmg+rxXCarDtK0tXgOFPiL2Awiqs+wHEP7lZr9Gep45+Yvf4VJgaAgAC2x4+7pr7Xj8dEl31m+yOwr/olX89dVnoOJvk8Fal+Fff7sm7J/W6ngGqB2HKQTVaYQp7J8Wpm2N1I6VnjJBNYU+fPQDApwT/QBR6AMe/YZZs/kLXAYMEQFgiU3nvuhSSWdIutn9a8Fn0Y8Uw798Kv72JvzzcyuJ8K/LAarnDjmFPsSytBADVAp9dPK+EVSXHMr+aZ47eyKoTqkfQKGPoOdEoQ+0YfQuc+Lmv+FCYKgIAKfY+LZ1V8xodJakmxo16plU/A3TYSr7cfjwr8tLE7boh6+nI/yj0EdKA9QW7xuFPjwOUD1/fliWJoJq13uVQh/VL42gOko7llo/oHXbSqGPcPcqhT7yZD6sNZtfy3XAkBEAVtjwtl/4xnhGP22k77YsM+H8JdFl+Nd9xd9Gl6TWM1o/f6B+nyz1ir+DDv/qDlA77Mw6nTLL0ij0kegAlf3TRKEP10MJqt3uVYLqqJ8fCn3UeGn0A4bas87UhTrsmP9qjMZcCgwZAaCDzW9ed5VmdIaVvhm2vbf+vmNd/lrn4V9/Kv5mF/4NsovC/mnhBqgdDoxYlhZpgEpQzQDV571KUB2mbW3xGij0EbEfQFCdZT+A8C9fRts0q+eaR31qPxcDQ0cA6OjiN6+7YWZGPy2rqyob9xZFP/x8f0Sq+Ov7uRIN/8J+t9swhXoH1wdh/7RWxzNALf1MRhkMRhmg1m1LKfRBUF3WtkZqx0pPeeBB9WD2TyOoph/guR/Akt9cXafx/M+bx27ezaUACABrufjN625YOFynyWhT6RdIiIq/nr/UgoR/vvf9swEOD1H0w+M7R8Vf+buOwQeonjvkFPoQy9JCDFAp9NHJ+0ZQXXIo+6dVnyr7p0Vpx7z0Ayj0EfScBtMPQGDf1tj8nDnpi7dwKYCDCABr2rp+3Z3H7D76qZL9fz7b/PQq/vrq74afRdibir/JhX+5dWIo9JHOALXF+0ahD48DVM+fH5aliaDa9V6l0Ef1SyOojtKOpdYPaN22ElTn2w9AYDdqbM4yj990PZcC+D4CwAY+9afP2H/CteZFkv2/7bMSm2D4l0/F396Ef17OUBruzD/+td//AJX90xig+gxTCKrzG6Cyf1q4e5WgOurnh0IfNV4a/YAh9ab7w3xH1hL+AQVmuQTNnH/+ugVJv3bG6z/yHWv1JjUKU7ut+BumA1X24/DhX5eXJmzRD19P5zP8y6Uz0+R+TfFf+xXnnKJ1+Ovfr/nPTOlqgBryXo14TjbS+9B4gNrBvZR1mBLgnFK5V6O2raHv1RTbVvoB9AM8H0/4lznzHZmFs8yJW6/jWgArMQOwpY1ve+FbrdGzZHVX3S+Zflf89dWX8blAdSAVfwn/pgxQ2T8tjQEqhT6qD2VZWph7lUIfYdrWSO1Y6SmzfxqFPugH0A9ocK+y5Dd318uOzzRrt17LpQCKEQB6sPltL/yP0XjmJyRd6fql4S/8S6fir23zXIlW/M0u/Gt9dJ/Dvw47s4MYoLIsjQFq4PeN/dOmfmdEaceWHcr+aW6nSqGPKO0Y/QARVKfSD0BHQ4PLNT/+SXPSFmb+AVMQAHpy8Tt/4Ro7PvyJVubjjb80cgn/rOcvxUTDv9DfUv6Kfvh6qTl0aCj0kc4AtcX7RqGPTAao7J9GUO3zXiWoDv6+sY9qmv2A1m0rQXW+/QB0wtjPa/++080Ttn6XiwFMRwDo0eZ3PGf35sOveL5k3yJpXPbF5OeroycVf22Aw6n42+D62fb9qODGiQ1QKfTBALVHA1QKfYhCH66HElS73at9CKobvG8E1QHaVvoB+fUD0KGPa6d9ujl1204uBVCNANC39evHm97+ot8fyfyspJvCjGt6VPG3xh8i/Kvo/Dd+p3vUqenN/mldDVBDDozYPy2NASpBNQNUn/fq0IJq9k+rda8SVNMPqOqrDiKoRmeM+RNd8ZAXmNO27uViAG4IAAO5+O3rLjTGPEHSJxe/PKj46/Kcvir+phj+Kcx7ZwPcNTn2ddjgO7EBap2HU+ij08EgA9Ty4wmqp7Stkdqx0lNm/zQKfdAPSLsfQKEPBDMnq/9h1m76TbPu/AUuB+COADCgjW9bd9umt697lqz931aaa//d5XZwtxV/uwn/vPdxXcfCQ6z4m3X412FndhADVPZPY4AaeIBKoY8IYQoVqVt2fOK1Y7X+HEE1/YCI7djg+gHo0O2y5mnmpM1/y6UA6iMADM7YTee+6L1Go9MkbQ/93dJt+Nf0JOs9o/XzB+qPLwj/0kehj8AD1BYdcgp9ZDJAZf80gupp9yoVqatfGsvTo7RjqfUDWretBNX59gPQoUs1sqeakzZt4FIAzRAAdmTT29dt23fnzh81sq/TwWnL3r/wglT8nfoM/an4m0f45/OO6Un4x/5pDqfK/mkMUMtOmUIfFPooO5Sg2u1epdBH1M8PhT7oB0TtB6BTxn5Q+/adZtZs+RYXA2hulkvQnW3ve+UBSec++bUf/Y+Rxn8r6cd9fSEFCf+s5y/JRMO/sOIV/aj1RuTU57FddrBD3399CFNafWjDHB+8w5/irL+6h+S+119XA9QO7qWsw5QA55TKvZpV29rR+5bUvUo/II17tUn/tKP3jfCvH4zZqbF9pTlxy0e4GEB7zACMYOu56y5bdcSDTpM1vytpX9svJBviO8v3vn82wOFU/G1w/TLv4LB/WuYDVPZPS2OAyrI0Cn2Uta2R2rHSU2b/NAp90A9Iux9AoQ8E7fd/QfOjHzUnbSb8AzwhAIxkw/qz5je/44Vvm5m1j7ZGH2z6pWdrfcH5GLuFr0JM+FcxGPDcVcqm38OytEADVPZPY4Aa+H2j0MfU74co7diyQ9k/ze1UKfQRpR1Lvh8gEVSLQh/wbb+sfk9XPuR0c/LFN3A5AH9YAhzZxW958Y2SXn7a6/7pA2Y8eq+MTvT/pZRXxd/6gwRfT5PoEuKm4yeX3/a675P7srSuBqgtjh/Ekt8m05dZlhb/Xq3ffvZjWVpqYUqKbWuT6ma5L/lleTr9APoBA+n89oDZImN+xZy48QquBeAfMwATseXtL7lw1ZEP+lEj/W8ju9Pp64uKv35Oi4q/PUOhj3QGqH0o9FHn9Cn0kc4AdWjL0ij0Ee5epdBH9LY1lUIf9AMG2A9Ah/ZI5nW64oSfNGsJ/4BQmAGYkA3rz5qX9N7TzvmH80azq37PWr1S0mGFX1+dh39U/G3SESH86xozqeJ3+Ds6Jwp9JDJADXmvdjVA7eBeYiZVmvdqVm0rhT7oB0Rux1LrB9R+GOFfwj4hY37DrN30bS4FEBYzABO05V0vv3XT21/8m/N24UeM0Z9I2r/s6yvIF6/n58qh4m+y4Z/Pd2co4V+PN/hm/7QIA1QKfaQxQKXQh9dzotCH46lS6CNaO7biXqXQR5i2tcVroNAHvDJXaqSfNydufjbhH9ANAsCEffEdL/3Opre/+Dft/Pgx1up9kuaDhH9DrfjrVbyiH7VebW/DP88dcpaliUIfQxqgenjfCKqnfidEaceWHUqhD/e2tYN2rHkHKNC9SqGP6qckqKbQBzy6Xdb8b11xwklmzeb/4HIA3WEJcAa2vPsXvyXplU/5nY/+sTQ+R7IvU8nSYF/ZCRV/mw/00qj4O5QODxt8B79GFPqIOEAN3TayLC3Y8RT6iNy2Uugju7aVQh/0A6Leq+jIbsm+V7PmHeaxm3ZzOYDuMQMwI5vfse6qLe940a9ofOBhkt4o6Y72na2yH4ev+Ev4124ga728N1UWEv00UOgjnQEqhT6iDFAp9CEKfbgcSqEPt3uVQh/R21YKfdAPiNYPQAd2S/ZcmfEPmRO3/IF57GbCPyASAsAMbXnXy2/d8o4Xrz96fODhRuZVkq5r1tkq+3H48K/L7++wRT98SbHoR6odqNSWpXU1QA05MGL/tDQGqATV4QaoHQQLWS9PD3BO7J8mgmrXQwmq4/cD1IN+QMp918G6Q9a8UWPzcHPilteZtVvv5JIAcbEEOGOfedfL75H0Z1q//i9O3/vo08bWvOzQ8uAjvPY5Gn/f+lygSsVft0P8hn/jpO54lqV1ck5Uoiw5NPclvyxLy/NebXK/UpHa/73a8pySuFdTbFtZnp5n29qHfgAC+4aM/QvNmA+w1BdICwFgH6xfP94kbZK06cz//f7Xzq1evU4y/1PSE+r3kftT8Te78K/10X6LfuTdlWL/tDwHqOyflvQAlaC64wFqhvuntW5bCarzvFdTbFsJqukHoGNjWV0oY/5Eazf9uzG8MUCKCAB7ZsN7fvkuSe+T9L6n/M6HnmRlXixjXiCrHwjyBZpo+Be2X+Bz3z9f5+kz/LP9Dv/Y4FsU+nA9lEIf8e/VoQ5QCar936sptq3M+otyTvQDRKEPeHSdrPmQFhb+2jxh63e5HEDaCAB7bPM7XvoFSV+Q9JtPee0/rbXWni2Zl0r64ZVfn77Cv5aHhyj64bWTkEnF30GGf/xrPwNUBqjDHqCyPD3aORFUi6A6RNs6xKCafkC4vwGP7pDsx2RGH9SaTZuZ7QfkgwBwIDaf+5LtkrZL9o1Pfu2Hn2zG9jmSfs5KJ0vW+PtLVPwNMVDwuZvitL8ynPBviANUlqWlMUAlqGaAGuteDXBO7J8mgmrXQwmq49+r9fuf6fUDfPd9UcNNkv5DZvRhbX/wBrPu/AUuCZAfAsDBMXbrudoiaYuk157x+o8ePz9/4ExJT5X0DEk/2Py7t+fhn7euh8+iH776RT0O/1iWxgB1MANUlqXlea82uV8Jqv3fqy3PiUIfke7VjPoBWbWtFPpgyKgFSV/T2Py7rD6hkzZ9hZl+QP4IAAdu49vW3Sbp/IP/WXP6az/0+IWxOd1KTzLWPElGP+L2/Ru/2kTYoh++ni7dir/54V/78xygsiwt6QEqQXXHA1QKfeTZthJUp9G2ElTTD4BHByTzVZnxVllt1N79F5hTt+3ksgD9QgCIJYzddK4ulXSppD+XpDNe/9HjDxyYf9LI2CdZ6Ymydq1kHuz6pVz/63ogFX8TC//y61axfxoDVB+D0xQHqATVBNVlhxJUuz0NhT7yu1cDnBP9AFHoAxVukrRNRltl7Gbt2X+JOXXbHi4L0G8EgJjq0AzBTxz6T5L0E6//+/vPzK860cqukbUnyupxxuhxkh7crp8xkPCv9dE+i35U9EtNanck/9rPAJUB6rAHqCxPj3ZOBNUiqA7RtlLog36Az7+BFYxuk9Xlkq6Q1eUaabsWzOXm8Zu+x8UBhocAELV96W2/dIekzx/6715nrn//4Xt2jR42o5mHjkf2YUZ6uKx5uDF6iJU9XtbcV0b3k3Ssn8FEaD6Lfvh6qR1V/E2yz8UA1X+Hv6NzYlkaA9Sq49k/zdO9GuCc2D9NBNWuhxJUx79XU2xbCf4C2SOZO2X0PVl7h4y9UVbfkvRtmdGNkvm29u75JrP6ACxFAAhvNqz/5X2Srj70X6kz1180u3DHbfcdH7H/fnY8c7+xDhx16Ov+qNHYrD541OiYsbH1709z7/9paUEaFzy1DxVPNK7z4Mb1t8ZOr8lKm7K4+ViWxgB1MANUlqUFOKfvSvaPmjX2dQ5eCHJo83MaB37+1i+kxp+uc07j5n94HOE1Tzsn08Frdnq5Hb7moO9znb+x4O9UQ73mcUKf6WDtag/ZsZUZ3XXoTfz+/7bad2/gt+roO82jPrWf0SeAoM0xAETrD+34zYsknTl9nM+/9rMsrexQlqW5Pc0gg+qvm0d8+GRaWQAAAPQZMwAB5In900ShD9dDWZYW/16deEy2QTUAAACQJwJAAPlh/zRR6MPlUPZPC3O/DnF5OgAAAJA3AkAAeaHQR4OHU+gjyjUiqFY/Cn0AAAAA+SMABJAH9k8ThT5cD6XQR/VTEVQDAAAAQ0IACCAz7J9GoY+yQyn04fY0uQfVzPoDAAAA6iIABJARZlJR6KPsUAp9xL9XJx5DoQ8AAAAgGQSAADIxlmTqD/zbHk+hj5WPodBHxa8p9EGhDwAAACAtBIAAeoZZf8HOiUIfDodQ6CP+vdrkfgUAAAD6jQAQQI+wf1qwc2LWX8UhLE8fTlANAAAA5IcAEEBPsH9asOMp9FHxawp9DGN5OgAAAJAvAkAAmRviTKohzvqL8D5UHkKhj+EE1QAAAEDeCAABZIxCH/7P59BjWPJb8WsKfQwjqAYAAAD6gQAQQIbYPy3YOVHow+EQCn3Ev1e7ul8BAACAfiAABJAZ9k8Ldk7M+qs4hEIfFPoAAAAA8kQACCAj7J8W7HgKfVT8mkIfFPoAAAAA8kUACKCnKPThdDyFPioOodAHhT4AAACA/BEAAugZCn04P4YlvxW/ptDHMILqMc0mAAAAeo8AEECPsH+a0/EU+nA4hEIf8e/VLu5XZgkCAABgGAgAAfQAhT6cj2fWX8UhFPogqAYAAAD6hwAQQObYP835eAp9VPyaQh8sTwcAAAD6iQAQQMYo9OF0PIU+Kg6h0AdBNQAAANBvBIAAMkShD+fHsOS34tcU+iCoBgAAAPqPABBAZtg/zel4Cn04HEKhj/j3ahf3K+EfAAAAQAAIIBMU+nA+nll/FYdQ6IOgGgAAABgWAkAA+WL/tJXHU+ij4tcU+mB5uofTBwAAADJDAAggT+yftvx4Cn1UHEKhD4JqT5cUAAAAyBABIIC8UOhj5WNY8lvxawp9EFSXHUoCCAAAgGEgAASQD/ZPW348hT4cDqHQR/x7tYv7tYugGgAAAMgXASCAzDGTKuo1otBHjaciqO70ffB6vwIAAAB5IwAEkCn2T4t+nSj0UeNpKPSR370KAAAA9AcBIIAMMesv6jWi0EeNpyGoTuN+JfwDAADAsBEAAsgI+6cFf81Oh1Low+1XBNXx79WmrxsAAADoFwJAAJlg/zT/z1/zMRT6cHwaguron2lm/QEAAADLEAAC6CFmUnk9nkIfNZ6KoLrT98HP/Tpjv/WS+4Zvl3bSNKeCt4IL2pWTNt1lDP8aAQBIAwEggB5h/zTvx1Poo8bTUOgjv3tVkuxazc/dGf5ePaz7zw9BdfG9eljH70O0trWrGdWHZXyvBu4HfO3M+0ob7qJ/BgBIAQEggJ5g1p//wWmKA1QKfRBUlx1KUO3/Xk2xbWUf1Tzv1RTb1i6CagAA0kEACKAH2D8t/gC1x2FKVgNUgupo50RQrSSDavZRTbdtJagGAKBTBIAAMsb+aQxQBzJAZdZfpHvV4TEE1SKodj2UoDq/e7WrdgYAgPAIAAFkigGq/wEqhT4YoMa6V7u4Xwmqg79vBNWR7lWHx7CPaqL9AAAAukMACCAzDFAZoMYaoLJ/Wp73aoBzYv80EVSn0rYy6y/PfgAAAN0jAASQEWb9+R+cMkBlgFpx/KCCapanp9G2ElR7OZ6gWiz5BQDg+wgAAWRiLMk065BT6MPTAJX909IYoBJURzsngmpR6COFtpWgOo22leAPAJAXAkAAPcOyNAaomQ5QmfUX6V51eAxBtQiqXQ8lqM7vXu2qnQEAIC4CQAA9wrK06kMp9MEANda92sX9SlAd/H0jqI50rzo8hkIfotAHAADlCAAB9AQDVAaoPgao7J+W570a4JzYP00E1am0rcz6y7ofAABAIggAAWSOZWluhzJAZYA65XgKfVQcQlBNUO3jXg1wTgTV6kdQDQBAeASAADJGoQ//A1T2T0tjgEpQHe2cCKpFoY8U2laC6jTa1i76AQAAdIMAEECGWJbGADXTASqz/iLdqw6PIagWQbXroQTV+d2rKfYDAADoFgEggMywLK36UJalMUCNda92cb8SVAd/3wiqI92rKbatFPoI07YCANA9AkAAGWGAygDVxwCVZWl53qsBzomgWgTVqbStzPobTj8AAIA4CAAB5IdlaSWHMkBlgOprgEqhj/zuVQ/nRFDt4V4NcE4E1WLJLwAA7REAAsgHhT48DVDZPy2NASpBdbRzIqgWhT5SaFsJqtNoWyn0AQAYBgJAAHkYM0BlgJrJAJVZf5HuVYfHEFSLoNr1UILq/O7VFPsBAACkgwAQQA8w6y/KObEsTeyfFup+JagO/r4RVEe6V1NsWyn0kU7bCgBAOASAADLHAJUBasTBYNABKkF1nvdqF/crQXWebSuz/mo/ZjBBNQAA4REAAsgUy9IYoDJAbX6vdnG/MuvP/73q4ZwIqj3cqwHOiaBaww2qAQDoBgEggAwxQO10MBhtgMr+aXneq5HvjcJDCKqZ9RerbSWoTqNtTbEfAABAtwgAAWSGASoD1AQGqOyfFuledXgMQbUIql0PJajO717tSz8AAIDuEQACyASz/qKcE8vSxP5poe5Xgurg7xtBdaR7NcW2lUIf6bStAADEQQAIoIcYoA5jgMqytDzv1QDnRFAtgupU2lZm/dV+DIU+AADoBAEggJ5hWRoD1B4PUAlTHA4hqCao9nGvBjgngmqx5BcAgHgIAAH0BIU+8hygsn9anvdq5Huj8BD2TyOojtW2ElSn0bZS6AMAgGkIAAH0AANUBqgBzon90yLdqw6PIagWQbXrobkH1cz6y7cfAABAWggAAWSMZWlejmdZmphJFep+JagO/r4RVEe6V1NsWyn0kU7bCgBAeggAAWSKAeowBqgsS8vzXg1wTgTVGmZQbRsczvL0+PfqxGMo9AEAQHQEgAAyxLI0Bqg9HqAy68/hEIJqgmof92qAcyKoFrP+AABIEwEggIww6y/PASr7p6UxQCWobnU8s/46vFdTbFsJqtNoWyn0AQBAUwSAADLBAJUBaoD3jf3TIt2rDo9h/zQRVLseSqGP+G0rhT4AAEgdASCAHmJZWvWvGaAyk8rX/cqsv+DvG0F1pHs1xbaVoDqdthUAgLwQAALokSEOUFmWlsYAlf3TvBxPUC0KfeTathJUU+gDAIC0EQAC6AmWpTFAzWiAyqw/h0MIqgmqfdyrAc6JoFrM+gMAID8EgAAyx7K0NAaoFPpIY4BKUN3qeGb9dXivpti2ElSn0bZS6AMAgBAIAAFkjAHqMAaoLEvL8151eAz7p4mg2vVQCn3Eb1sp9AEAQM4IAAFkimVp1b9mgMpMKl/3K7P+gr9vBNWR7tUU21aC6nTaVgAA+oMAEEBmGKDmOUBlWVqe92qAcyKoFoU+UmlbCaprP4ZCHwAAZIsAEEBGWJbGADWjASqz/hwOIagmqPZxrwY4J4JqMesPAIB+IQAEkImxZE3GA1QKfTBAjXWvRr43Cg+h0AdBday2laA6jbaVQh8AAHSNABBAHqz3AxmgJjVAZVlanveqw2PYP00E1a6HUugjfttKoQ8AAPqKABBAj7AsjQFqnweoFPrI716deAxBdaR7NcW2laA6nbYVAIBhIAAE0BO5D1BZlpbGAJX907wcT1AtCn3k2rYSVFPoAwCAfiIABJA5lqUxQI04QGXWn8MhBNUE1T7u1QDnRFAtZv0BADAcBIAAMsaytE6vEQPUDgeoBNWtjmfWX4f3aoptK0F1Gm0rhT4AAEgJASCADDFAzXOAyrK0PO9Vh8ewf5oIql0PpdBH/LaVQh8AAAwRASCAzLAsjQFqnweoFPrI716deAxBdaR7NcW2laA6nbYVAAAQAALICIU+4g9QWZaW570a4JwIqkWhD9dDCarj36sTj6HQBwAAg0MACKCHGKAyQPV4PLP+HA4hqCao9nGvBjgngmox6w8AAEgEgAB6h2VprY5ngNrhAJWgutXxzPrr8F5NsW0lqE6jbaXQBwAAuSAABNAjDFDjD1BZlpbnverwGPZPE0G166EU+ojftlLoAwAALEcACKAHWJbGADWnASqFPvK7VyceQ1Ad6V5NsW0lqE6nbQUAANMQAALIHLP+/A9QWZYW7d5oda8GOCeCalHow/VQgur49+rEYyj0AQAAliAABJApBqgMUD0ez6w/h0MIqgmqfdyrAc6JoFrM+gMAAFUIAAFkiGVprY5ngNrhAJWgutXxzPrr8F5NsW0lqK59fBL3alf3KwAAqIMAEEBmGKDGH6CyLC3Pe9XhMeyfJoJq10Mp9BG/baXQBwAAcEcACCATLEtjgJrTAJVCH/ndqxOPIaiOdK+m2LYSVKfTtgIAgKYIAAH0C7P+HJ+G/dOi3Rut7tUA50RQLQp9uB5KUB3/Xp14DIU+AACAIwJAAP3AAJUBatXxzPpzOISgmqDax70a4JzYR1XM+gMAAG0QAALIH8vSGKBGHaCyf1qrxzDrr8N7tcn9SlDt/15teU4U+gAAAA0QAALIGwPUQANUlqV5P56gusbTEFTnd6920bYSVFPoAwAANEUACCBP7J/GADX6AJVCH/ndqxOPIaiOdK+m2LYOMahm1h8AAENCAAggP8z6c3wa9k+Ldm+0ulcDnBNBtZj153ooQXX8e3XiMRT6AAAAHhAAAsgHA9SEBqjM+nM7lKDa/73axf1KUB3lnNhHVRT6AAAAoRAAAsgDy9JqPA0D1E6DgtJDKfRR/VQE1VHasc7bVoLq2sdT6AMAAHhGAAggE8z68z9AZVma9+MJqms8DUF1fvdqim0rQXWe9yoAAOgaASCAHmL/NAaoEc6HQh+J3KsTjyGojnSvpti2UugjjbYVAADEQAAIoEdYlsYANcI5Uegj4P3KrD//92rEdqz0kMEF1fMH++AU+gAAAN0hAATQEwxQg58P+6eVHMr+af7v1S7uV4LqKOfU70If85K9XkbfkB1dJdmrZO3VsqNdWj2zWwt2p2ZX320e9an9kmS3n3m0xjNHSfZozdr7yI7vJ2seI6PHytrHSHq0pIdR6AMAAPhAAAggcyxL6+ScmElVciiFPqqfiqA6Sju24lCCav/3qhYk+zVJF0i6QEdok3nE5/e5Ptis3XC3pLsl3bLkx59ddkaX/txRWjX3ZGn8VFnzVMn+mCTj/V4i/AMAoPcIAAFkjFl/wYMF9k8rOZT909yehqA6v3s1xbY1qaD6Hkn/LOnDOrDq8+bkz9wT8lvu0PNfcOg/2UtPe6BmZ35O0i9K5mclzaR7rwIAgJQQAALIFPunBb9GFPooOZT90+LfqxOPIaguOZSg2u1pnP7GNhm9T2buPPPYzbtjffOZk7fcKulDkj5krzjjBMmsk7W/JOlH02pbAQBAaggAAWSGZWmdnBP7pxUcSqGPMPcrs/7836sR27HSQ7IMquck/b0WzLnmpAuvS+3b0KzZuEPSeyW9115+xlNkzO9J9ulO14jwDwCAwSEABJARBqjBz4f900oOZf80//dqF/crQXWUc8q/0MecrD6g8cKbzUkX35jDt6M5ceNmSc+wl53xeI10jqRflDTqvm0FAACpGnEJAORh7H+A2npPKtv+eKvMZlL1YcmvrXloijOpbMB7dco52QjvQ9HxVgmEf1ayde7XwJ8fG+F9cDrliEG1rf0axrJ6n6x9uFl70StzCf+WMidt/LpZu/HlGutHJV3YXdsKAABSxwxAAD3DrL/aj2H/tJJD2T/N7WlY8pvfvRronPIu9PF1GfM/zZoLt/Thm9CctPHrkn7GXn76syT9haQfDPc+AACAHDADEECPpDbrz/sA1dPxCYZ/tS5twBlwnc76qxP+dTT7sva92uFMxGCz/hq8huyD6gBLfm3HbYa/GdV7ZM0bZR/w4+Zx/Qj/ljInbvqE9h1+ooz+REYLft8HAACQE2YAAugB9k9rdDz7pxUcSqGPMPcrs/7836sR27HSQ7KbUf0VLZh1KRb48MmcesFOSb9pr/jJj8mOz5P0ED+fIQAAkBNmAALIXOj906IPUEuOZ/80r+c06P3T6syk6vjzk8Ssv8X7NUKbMfVejRz+pbKPavO29YM6Zt/pfQ//ljJrLr5Yc+YJkvlMu88DAADIEQEggIxR6KP28RT6KDmUQh/VpxohqI7xPqy4Vwmqq085q0IfuyX7YrPmopebh27dO7RvTfNjG2/T2o3/RdLrZOwC/QgAAIaDABBAhtg/rfY5sX9ayaERg7bSp8xq/7QwxxNUFxyawKy/1m1r9KD6JsmeZtZs+PCQv0GNkTUnbjpXY62TtJ8+BQAAw0AACCAzFPqo/Roo9FFyKIU+3O5Vguqonx8KfdR4aVP/xg2y9qfMmg2X8z16kDlp8z/Lmv8iaRdXAwCA/iMABJAR9k+rfbz3mVTsn+btXiWoVr2gusNZfwTVU54yy6D6co1mTzdrN1zL9+hy5qRNGzQ2Py3pVq4GAAD9RgAIoB8o9CEKfbgcSqGP6lOl0EenbcbUe7UPy9OjFvqQZLfqsJnTzWM/exNflMXM4zdt04J+UtIOrgYAAP1FAAggbxT6EPunuR7K/mnVp0qhj07fh9JDU5v1F/Hz0y6ovkL2sGeaH75gJ1+W05mTN1+l8fhpku7iagAA0E8EgADyxf5pYv80l0Mp9OH20giqO3sfSg+l0Id721rpu5J5hln76Tv5snRjHr/1MlnzPFEYBACAXiIABJAf9k8ThT5cD2X/NLd7laA66ueHQh81XprT39ipsX7erLnwW3xh1mNO2rRBVr8kaczVAACgXwgAAeSF/dNEoQ+XQ4dY6CPE/mmePz8U+ig5lKDa7V51+hsLsub55sSLLuULsxlz0uaPSOYNXAkAAPqFABBAPij0IQp9uBw61EIfdU6VQh+dvg9T71WCaq9tqzVvNmsvvJAvzJbWbnqrjD7LhQAAoD8IAAFkiEIf7J9Wdij7p1WfKoU+On0fSg8lqK4+1drvw8Vac/838R3ZnjEaa96+VFQGBgCgNwgAAWSE/dPYP63sUAp9uL00gurO3ofSQyn04d621nr+2zRjXmLM+Qt8V/phTt5yq6RflBHXFACAHiAABJAJCn1Q6KPsUPZPc7tXCaqjfn4o9FHjpTU6p1eYx1z4Xb4r/TInbr5I1ryXKwEAQP4IAAH0EIU+ggUL7J9WcRkp9EGhj7JDCard7tUG74PRf5o1G/6V775AZu16GRGuAgCQOQJAAD1DoY8g14j90xxOmUIfFPoou1f7sDw92aB6v+z4f/HdF4557ObdsuY1XAkAAPJGAAigJyj0Eeyc2D+t4hAKfVDoo+zQ1Gb9Sb0Lqo3eZtZcfA3fgWGZEzedJ4nqygAAZIwAEEAPsH+a/3Ni/zS3p6TQx3CWpxNUh2lbW70PN+hwnct3YEfM6FWS5rkQAADkiQAQQMYo9BHsnNg/reIpKfSRzPJ0gmqHp0wtqPb2mt9qHrFhH9+F3TBrN14how9zJQAAyBMBIIBMUegjWLBAoY+Ky0ihDwp9lB1KUB3mXi18zHdlj/8Hvgs7Nl54q6QxFwIAgPwQAALITE/3T6PQR8GhFPqoPlUKfXT6Pky9Vyn0EaZtLf3du83a8+f4TuyWOekLV0r6BFcCAID8EAACyAj7pwU7J/ZPqziEQh8U+ig7lEIf1afq/X24Q9b8Nd+JkZjxW7kIAADkhwAQQCbYP83/ObF/mttTUuiDQh9Fh6a6PH0QQfX/NWs33M33Yhxm7dYvSdrIlQAAIC8EgAB6iP3TnI5n/7SKp6TQB4U+yg5NJKiO2Y5VvrSAnx8z80G+56Jj/0UAADJDAAigR/pS6MPDa656DIU+Ki4jhT4IqssOJagOc686P2aredznrub7LrLD5j8qo71cCAAA8kEACCAPtvZ0mJgDVFHow/VQCn1UnyqFPjp9H6beqxT6CNO21jr+Q3whxmce9cVdsvp3rkSFhd2WiwAASAUBIIBcHKg1QKXQx8rj2T+t4hAKfVDoo+xQCn1Un2onn+k5zZiP8nWYCGP/kYtQ4f7H7OciAABSQQAIIBf7ag1QvQQFFPrwfjyFPmq8NAp9dPY+lB5KoQ/3trWDdszoQvOYDbfzdZiKnZ+SRDGWaX5owxwXAQCQCgJAALmY636A2mJAy/5pJYeyf5rbvUqhj87eh9JDKfRR/dI6X55+IV+F6TBrt89J2sSVKO+3GKMxlwEAkAoCQAC52J/FANXp4eyfFuWc2D9NBNWuhxJUh7lXWwbVC+YivgpTY3lPKvstAACkYZZLACCPMYbmZFIMU+o+PPe9/mo+xkZ4H5wOyT1MaXlOSdyrXdyvqd2rDo9J5V5Nr23dqROP/ypfhskhACxHAAgASAozAAHkwRR0pCn0sfJ49k+rOIRCHxT6KDuUQh/Vpxq1IvXFxpy/wJdhYq74ga9IuosL4dhvAQAgIgJAAHmw471uY0oKfXQaFJQeSqEPt5dGoY/O3ofSQyn04d62dtCOlf05azfzRZges+78BUlf4EoU3tIEgACApBAAAsiktTK3hxmgthjQsn9ayaHsn+Z2r1Loo7P3ofRQCn1Uv7RE9lE1upIvwkQZexUXoei2tndxEQAAKWEPQAC5dKRvkzWeBpuBBqidDuIPPSbrMCXAObF/Wgf3asNzSupejXxvFB4S8fMT7V6deMy0h8/MEDIl+/08urrZe99zZnQbFwEAkBICQAB5GNvbZEyEASqFPtwOpdBH9dNQ6CPavdHpverwGILqum3rvBZuvYEvwkQZc9XBpfRYfl0sASAAICkEgAAy6Ujr1sQHqBrmTKoEZv2tOCRiwENF6g7v1S7uV4Lq4Ofkdq/eYNZun+OLMFFjc7UMl6HgNicABAAkhT0AAeRhZva25SNGCn10FhSUHkqhD7eXRqGPzt6H0kMp9OF2qslWpL6GL8GEnXjxd2S0lwux4ta9nYsAAEgJASCAPMwv/ks6hT6CD8qdDqXQR/XTUOij0/eh9FAKfVS/tEQKfZSek7mTL8F0GSMrq7u4EpMXpmjlAgAA8RAAAsjDD31gp2RrzjDIfdbfocckF6ZEmrVU+pQdz1py+tME1Z2+D6WHElSHuVe7blvt3XwJJs5oFxdhcpQ1YgYgACCtryYuAYAsxhZGVtL1nQQLyeyfZgOGKTXPKckwpatzqnOqHQc8LE+fcq8SVFf/6VyCarObb8HEWfEerbgm8zdxEQAAKSEABJAPo2uDBwspzaTqalBeeWgC+6etOIT905Iq9EFQXfGUBNWtgmo7JlxKH7M0V7qWSwAASAlVgAHkw9rrVFpqsGXlylTClNoPyz1McXhM8lVTI5xT9L3+Dj2GitSR79Um92uGFalHzC7LAO/Rct8za7eydyUAICkEgADyYXVtcf6XWpjS8JySClMiBAWVh0QMeKKFKROPIaguOZSg2v+9mlLbapqcPLo15hIsw+w/AEByCAAB5MPOXCcz9jdATSJMOfQYZlJV/DpiGJnNTCqC6mjnRFAdum09mi/A5B3DJVjmGi4BACA1BIAA8jEaX+NtQJvS/mldDcqdDk0tTIl4TqnMpGLWX6R71eExBNXqJqgmXEqfObrhe9tX13EJAADJDae5BACy8fAf/pak3ekV+mi4oT6FPioOodAHhT7KDqXQR/Wpdvz5CVqReswMwOTZY7kGSxmWAAMAkkMACCCf7rRZP5a1X0tvgNpgQJv9TKoAS35thPfB+aVFCEgJqgsOTSCoLrxX+xBUt3jfQgfV4xEzANP/hiakXWZ8JdcAAJAaAkAAmbVaZluYAWpHwULQmVR1w5QIQUHlU0YMeKLN+pMIql0O7Xj2pdMpE1R3ElQbex++/FLHe7TEAR21+jIuAwAgNewBCCAz420qLgVcPCKl0EfJoeyf5vYrCn3Ev1cj3xuFh1Doo9u21T6S77502cue+CBRqGWpy80jNuzjMgAAUsMMQACZjTRG26YPHlPcP82yf1rlU+a+f1rLcwq6f1rN45MLqiMtry19yogzEbNZ8uv7fTCPsvbsGb4AUx1NzD6ai7DMNi4BACDJr2wuAYCsPPyHr5K0u3LwyP5pBYeyf5rbqVLoo9P3ofRQgurqU+1ToY+pDtNVtzyML8BEjUUAuOyWtl/hIgAAUkQACCArxqwfy+ir3Q9QGwxoKfRR8Wv2TyOoLjqUoNrtVHtW6KPKwvgxfAMm+8VMALhsdDUiAAQApPkVxSUAkJ2xLmo2QKXQRydBQeVTUuiDoLrsUAp9VJ/qUINqZpkly455b75vXjsXvs5lAACkiAAQQIbMRentn3boMeyfVvGU7J9GUF12aIqFPgiqkwiqD+6j+kS++1L9SjY/wUW493a9xJy2dS8XAgCQIgJAAPnZs2+rpHvcx5IU+ghzjSj0Uet4Cn1MuVcJqqv/9ICD6oPO4ssvPfayJz1O0kO4EosjK/M5LgIAINmvKS4BgNyYtefPydot7J9WdCj7p7mdKoU+On0fSg8lqK4+1cEU+lh5/PKHnGAvfQr7AKY3lDiTa7DU+EKuAQAg2W9tLgGAPJmLOhmU1xugKto5UejD8aVR6KPT96H0UIJqt1MdWKGPpfeqLey1Mgswua9iw3vyffu0027lMgAAUkUACCBPY10QfFDeZIDq5Zwo9NHqePZPW/kaKPRRccoE1VkE1SPCppRYKyPpp7gS99rC/n8AgJQRAALI0yP/8RIZfSfIoLzNANX3oLzyUPZPcztVCn10+j6UHkqhjzD3am8KfVQd9l/slicfwRdgIrafcZqkB3Ih7r0/2f8PAJA0AkAAWTJGVmP9W3ID1K6CBfZPczxVCn10+j5MvVcJqqv/9OALfVQ5VsfNPJNvwFS+iO0vchGWXY/PchEAACkjAASQrxn9M/unhTynOqdMoQ8KfZQdSlBdfaoU+nC/v+1L+fKLz15yyipZezZXYpH5jtZuuYTrAABIGQEggHw9bG6DjG4PHixQ6KPi1+yfRqGPokMJqt1OlUIfNV/D0+1VZz6AL8DIjjjsGZJ4HxaZ8ceMqf1BAACgUwSAAPLtb5vzF2T1iQQHqH6Pp9BHjadh/7RO34fSQyn0UX2qBNUNX/MqHZh/Id+AkVnD8t+lFmb+hYsAAEgdASCAvI3NPyc4QPV3PPun1ThV9k/r9H0oPZRCH2Hu1aEF1dNO2v6GtfRhY7HbT3+YpOdyJe51q77x4E1cBgBA6ug8AcjbvrnPSLotvQGqh0Ez+6c5niqFPjp9H6beqwTV1X+aoNrD8z9W2097Hl+AkYztOZJWcSHuvV//1aw7f4HrAABIHQEggKyZtefPSfqQlwEt+6dVnDKFPij0UXYoQXX1qVLow+v7YMzr+Qbsnr30tAfK6L9zJZbeiyOW/wIAskAACKAHLZn929YDWgp9VPya/dMo9FF0KEG126lS6MP7+2B1ir3sKT/LF2DHZs1vSjqSC3Gvm3Xr7AVcBgBAFsNmLgGA3JmHn7dd0pco9OHpnNg/TRT6cDmUQh/Vp0pQHeY1Lzb++gO+Abtjtz/5frL6Na7Eslv3/easDfNcCABADggAAfTE+P1pDVDZP63V8eyf1vJepdBHZ+dEUD1xr4beR3WZM+xlT6EicGdm3izpPlyHJTfwaPx3XAYAQC4IAAH0w3jhPMnsSWOAyv5pjY+n0MfK4wmqK56SoLqnhT5ce7LvttvPPJovwbDsFWf8mGRfwZVY5vNm7dZruQwAgFwQAALoBfPD5++Uxn8fd4DK/mmtzolCHyvvVYLqiqek0McwguqpT/UDsnO/z7dgONbKaDx+j6xmuBpLOx76Gy4CACAnBIAA+mNs3yNpHGeASqGPxq+B/dNWPoaguuKUKfQxnKDahfkt+/UnP5YvwUCuOO2XJJ3BhVjmLu0c/zOXAQCQEwJAAL1hfvgjV0v2E90OUCn00ep49k+buFcp9FF9ygTVgyr04Wa1RqMP2u1rV/NN6Je97CcfKmvexZWY7HDor81pW/dyIQAAOSEABNCz0Yre3d0Alf3TWh3P/mlqd69S6KOzc0ppefrwCn24OlW6z5v5EvT4dXrRmbMyC+dJuj9XY5kDkvkzLgMAIDcEgAB6xTzywxsl+0UKfbg8JfunUeij7F4lqK7+07nP+mt4TunM+iv6c+fYy09/Ft+EnjzwwBslPYULscJ5Zu2mb3MZAAC5IQAE0D/WvjvsoJz90xqfE/unLT+eQh8VTxl51h9B9fLjUw7/DjKS/Rt7xRkn8EXY8mt0+xk/I6vXcSWKbmzzx1wGAECOCAAB9M8jHvcxSV/vLCgoPZT906pPlf3TOn0fSg9NNahW+Peh1qkSVId5H7x6oMbjf7GXnHIkX4bN2O1P/hFpfB7jhAJGF5gTN13KhQAA5IgvdgD965+b9WMZ+4f+Bqjsn9bqeAp9LD++F8vTCaqDf34o9NHGE3X4YR+xF505yzdizXf80tMeKDv6T1kdz9UoMNY7uQgAgFwRAALoJfOIj3xc0he9D8orD2X/NLdTpdBH8NfsdChBdZh7lUIfCXwLPFMPPPB+a2X4RnR8Fy855UjNmn+V9MNcjUKbzUmbP8tlAADkigAQQH+Z0Rs6CxYo9OF4quyf1un7MPVeJaiufhoKffh//g5ZvVTbn7KeL0OHS3XJKat02OHny+rJXI0S49HvcREAAFkPj7kEAHo9qLn+RRsk+1PBBsyNgj8PQUHlr0OHBFMek02Y0tE52Ujvg7f7tYtZf5E+P9Hu1YnHpHKv1n5YwuHf8vM815y4hYIWZVfnmqcfprld58nqeVyNUv9pTtz8dC4DACBnzAAE0PNWbuH1qp+Q1DiU/dOqT5X90zp9H0oPpdCH26lS6CPM+xCTea3d/pT/ay393hXv5FfPvI/27/os4V/FDT9i9h8AIH/MAATQ/5779S/8B0kv8zZgtl0GBXUOYSYVs/7KDk3tXo14TjbS+1B0fPS9/rq6X1P5MrD/qsOPe5F51Kf2880o2cue+CCZ2f+U9ASuxtTR0kfN2s0v5EIAAHLHv4QCGEBLt+q1knZ7GdCyf1qNU6XQR/DX7HQohT7C3KsU+siOMc/V/p2ftF85Y/AVbu1lZzxeZnazCP+qHNDI/AGXAQDQi2ExlwBA35kf+tAOGfOW1oNmCn04niqFPjp9H6beqwTV1U9DoQ//z5/0N8LP6LDxV+3lZzxlqN+J9vLTXy4z3iqq/TrcLnqPedymq7kQAIA+IAAEMAx7Fv6PpKsaDbKT3j8tUsDD/mnLjw++f1ruQXWqs/4Iqv2/Dxmw+gFpvMFedvr6Ie0LaG8483B7+Wl/Jdm/l3QkHYNKN2v1/Ju5DACAvmAPQACDYb/5wqdrrP9g/7QWx7N/2srHJDfrT3HvVypSa7gVqbP0CS3M/5o5+Yvf6fX33+Wn/bjM6G9l7Un0Bpyv2ovNiVs+zHUAAPQFASCAYXXnr1/3QUkvdR/7Uuij+mko9BH8NTsdSlDt/171cE4U+sjBHsn8kW6bfbc5a8N8r77zLjnlOB1xxB9J9tdlNUMvwNlGrd38U8YM78MAAOgvlgADGBYz9ypZfbd67Mv+aW6nSqGP4K/Z6VAKfYS5Vyn0MRBHSvbtOv7AJfaKpzypLy/KXn76s3T4EZfL2v9F+FfLvOzoNwj/AAC9GwpzCQAMjb3uhc+XsR8rH18zk6r6aQY666/2w3Lf68/hMcnfqxHOyUZ4H4qOZ9ZfE2PJfFSj8VvMmi2XZ/kdd/mTnyaN/kDSU3g7G42O3mrWbv49LgQAoH9fcQAwQPb6F35Ysi9cPvZl/zS3p2L/tE7fh9JDWZ4e/16deMxgguphfE1I9pOy5o3mpM2XZHHCV5z+VC3YN8noSbx9jV2ho1adYh6xYR+XAgDQNwSAAIY5srvm7OM1Y7ZLOp5Zf65Pw/5p0e6NZYcSVIe5XwmqUXKRjPkPjfW3Gn3vk2bt9rmkTu6rZ95Hq+fXSfYVsjqFt6uVAzLjJ5q1W7/KpQAA9BEBIIDhjuqufeHTZewnJVuzLWQmVZhggUIf1YcSVPu/Vz2cE4U+huIuyX5UZvRBs3bTpmjfXVYjXXn6T8uOXy5rni/pKN4aL6OiN5i1m/+ICwEA6O9XHQAMmL3u7PdI+s2gg/Jav44Y8GQzk6oP+6fZBoey5De/e7WjcyL4i/HtcY2kz8qaz2k03mDWbr0z6F/bfvrDNNZTZezPSHqqpAfyHvi8wPYr2r//SebUbQe4GACAviIABDDwIdzTD9PM0Vtl9aOdD+Ip9CEKfbgcSqEPt6chqA5zb8ChN70gq69K2ijZK2XMNzS76krzmA23174DrIyuPO1hWtBjJD1WZnSiND5TMo/iQgd7//bK2J/ItegLAADuX3kAMHD2uhc+Whpvk3R0J8EC+6eJQh+uhzLrL/69OvEYCn3A3R2SuUqyuyTtlsxdkr1b0t2ymj34nWOOltExsvY+Mrq/pEeLJb0ddwL0P8xJm/+WCwEA6DsCQACQZK9d90sy9gPBB/HsnyYKfbgcSqGPMPcrQTWAZUOhD5sTN72Y6wAAGIIRlwAAJPMjH/17yfxV0EH8iplUfVjy2+KcnB7eRZhSJ1AJ/L7ZLt4Hh+OjBNW2xqlG+PzYCO9D4f0a8jUDQ2Kv0ax9BdcBADAUBIAAsOh793mVrP18kJlUrZZRegwWos6kqrOMsqOAx3b4mp0OTXHJ79CC6oJ7dRBBNTAo+2S0zjx2824uBQBgKFgCDABLh83Xv/hBsgcukfSDXgbxFPoQhT5cDqXQh9vTUOgjzL0BDG0EZP+bWbvl/VwIAMCQMAMQAJaOCR553i0a22dL2tNqkF0466+D5YG1TjW1WX8dnVOtS5vqkl/5vZeymPXX4ecn2Ky/Bq+B8A/w/U3/x4R/AIAhIgAEgMmhwaM+9lUZ86uNB/Hsn6Zh7p9Wd8lvxKCt9JQ73gfS6U8TVId5H4ABsvoPXXHC73AhAACDHOdyCQCgZJxw3QveKJk/rDWIbxWmNAwKaj3NQJf82g5fs9Ohqe31F/GcqEgd4X4FBjnsuVL79j7ZnLptJ9cCADDIb0IuAQCUDKutjK5/wV9L5r9ns3/a1F+xf1qn70PpoSkW+gh5PlMek8292tE5EfwBodwhM36SWbv1Wi4FAGCoWAIMACWMkdW37/hVyf6H+zg88v5pXpb8sn+a9+NthPfB6SlTW54u5b88veE5Ef4BoeyT0fMI/wAAgx/fcgkAoGKofdOzjtS+VRfImidPH4Mzk4olv2WH5j7rz+M5sTx95fGEf0Cokc6CrH2hOXHLx7gYAIChYwYgAFSNHx7yiT0a2+dKurZ8DE6hDwp9FB1KoQ+3U02t0EeHs/4o9AGEYjU2ryD8AwDgIAJAAHBgfuRfbpWd/2lJNyS15Nfb87cI5oIt+a15vLWBw5QuZv15DkgJqtVNoQ+W/ALpsa8zJ236O64DAACHxrRcAgCoMZy47uyHyY4vlvRwCn2IQh+lh1LoI797taNzIvgDuvBn5sTNr+IyAADwfQSAAFB3CH/d8x4tazZIOiHcQJ7905yPT67QR4fvg9OvU5uhGuGcBhFUAzg0vPlrrd30SmP4EAEAsOwbkksAAA2G/tef/RiNFzZIerD/QTwzqZyOTyX4u/dwCn3Ev1cnHkOhD2Bo/kZrN7/SGI25FAAALEcACAAN2euec5LszGclPcjPID50mOLhnKLv9XfoMVnP+gtwTlSkFrP+gKF/KeuvdOLm/8nMPwAAihEAAkCb8cY3zn6EVi18TlaPaB0U1MoDmPXn//lrPibJWX8Rz4mgOsL9CuDQkOavtXbTrzLzDwCAKd+WXAIAaMde//yHa6zPSnoU+6cFPCcKfVQcwqw/Cn0Ag/wW/gut3fIbzPwDAGA6AkAA8DH8uP7ZD9LCzKdldHLrgT/7p608nkIfFb+m0AdLfoFBfvueq7VbXk/4BwBANQJAAPA1DLnx7Ptp3/ynZPQTjQf+zKRafjyFPioOodAHhT6AQRrL2t8yJ235Ey4FAABuCAABwCN707OO1J7Z8yQ9u9agn/3TVj6GQh8Vv2bJL7P+gEGal7GvMGu3vJ9LAQCAOwJAAPDM2rNndN2B/yOZVzkN/Jn1t/x4Cn04HEKhDwp9AIO0R0a/YNZu/hSXAgCAeggAASAQe83zXi2jd0p2VD8LYCZV8NfsdCiFPqqfiqA6zPsAYMIOyT7HnLjly1wKAADqIwAEgIDstc95nmQ+JOlItzyA/dOC/g3nQyn04fY0BNVh7g0AE74uY55l1m76NpcCAIBmRlwCAAjH/MjH/0UjnSWZ71bnAV2EKQmGf7bOw2zNv1Hj+HsP7fh9qHxKqzSX/AZ6H4r+uNPDA7wPRccT/gEdf5HqX7Rw1GmEfwAAtP1KBQAEZ685+3jpwEclnVnw2ybP2O54Cn0UHEqhD7enYtZfmPcBwMqRivkTrdn0W8ZozMUAAKAdZgACQBdjmEedf5vmVj1NVu9b/puOZi3VengXs/5swFl/Nc/JRngfnE450kzE0lONMBMx+qy/xfs15GsGUGCPjF5q1m76TcI/AAA8jUm5BADQLXvtc18hqz+V7Oqaj1Sr4yn0UXIohT6qn4pCH2HeBwAFrpUdvcCctPHrXAoAAPwhAASACOy1zzlNVh+W9FCHo5v8hZoPp9BH8PfB6dcU+mDJLzDkL0f7r9q//7+aU7ft5GIAAOAXASAAxBrnXPm8+2t24QOSeeaUo+o+a4OH5z6Taoiz/jyeExWpVx5P+Ad0PSJZ0Ni8WSdu+iOW/AIAEOrrFgAQjbUyuu45vy2rt0paNfHbus9W8+EU+ohyThT6ELP+ACwZjXxXY/NSc9KmDVwMAABCfuUCAKKz1z3rxzU2H5bMI5n1F+AxtqPXXPuQ1Jb8dhyQJnGvdnW/Alj5UbL/qtn5/2Ee96U7uBgAAIRFAAgAqYyDvvXz99Xc6P9K5oU1HjX1/608vsnfcDmeJb8VhzDrj0IfwKDtkTG/ZdZueh+XAgCAbhAAAkBi7DXPPluyfymZ+1UcWfg/nY5XwOMp9FHxawp9sOQXGPKXnC6XHb/EPH7rZVwMAAC6QwAIACmOj659zkNl7Qck/XTR6Gna/1s24qo7Qqt9PLP+Kg6h0AeFPoBBm5fVOzW6a71Zu32OywEAQLcIAAEgUQcLhDz7V2T1fyQdeeinEwdVPkvdv9rkTCn0UfnriGEkhT46vFcBlNgu2V82J275MpcCAIA4RlwCAEiTMbLmR/7tfTI6WbIXrZhJFT38s5KtE6hYpbnk1/o9PqUlvzbC+zB5fLB7lfAPyMC8ZM/VYceeQvgHAEDk8SWXAADSZ+36ka77yq/J2rfK6piKo5v8hfrHs+S34hAKfVDoAxg0Zv0BAJAQAkAAyIj9xrMfohn757J6bskRdZ+x2fEU+qj4NYU+WPILDHZ0sVdj8w4dfszbzKM+tZ8LAgBAKl/RAIDs2Gue/VJZ+8eSjl/y07rPUv94Zv1VHEKhDwp9AIP2n7L2N8xJW67jUgAAkBYCQADIlL3huffRgYU3SvbXJc3UeGSTv0ahj8pfU+iDWX/AYN0smdeaEzf9A5cCAIA0EQACQObstT9/isajP5fsEx2OrvvsHYQpqS35tQ0OSW3Jb8cBaRKz/rq6XwEscUDG/oVWL/yhedQXd3E5AABIFwEgAPSAtTK6+pkvk9G7tGxZ8LKj6j4rs/4qD6HQB4U+gMF+83xOI/1vs2bL5VwLAADSRwAIAH0ajl35vPtr9sB6WfNKya469NO6z9LgYRT66Owa9brQB7P+gAxcLWtfbU7a8kkuBQAA+SAABIAeslc967Ey9p2SfWbNR1Loo/IQCn1Q6AMYpLtkzJul7/2pWbt9jssBAEBeCAABoMfsN57+0xqN3i3pCQ5Hs+S38tcU+qDQBzA4c5L9gBb0B+bkLbdyOQAAyBMBIAD0nLVnz+jqe35ZxqyX9AMFR1Dow+kQCn1EeR+i3K8AJI0lfVDG/KFZu+nbXA4AAPJGAAgAA2G3n71aq/b8V0l/JOlBh37KrL/KQyj0QaEPYGhfGLpAI/sas3bL17gYAAD0AwEgAAxtXLf97KO1es+vy9rXy+q4OiPCuiPIeodS6MPtaSj0EeZvAJC0Wdb8vjlp0wYuBQAA/UIACAADZa95+vGy+l1Z86uSDp9yZN1nbnAohT6qn4ZCH+FeNzD4b4TPSTNvMCdu3My1AACgnwgAAWDow75rf+6BGs+8WmPzKhkdOfHbus9W81AKfbj9ikIf/p8fgKTNMvYPzdotF3IpAADoNwJAAICkQ0Hg/Ow5MuZ/SuOjGzxDzUMp9FH9NBT6CPc3gOE295L9pMzoXLN20yYuBwAAw0AACABYPjK86lkPkOZ/S9JvSDrWaSxZY9hJoQ/Xp6LQR5j3ARiseRl9WAvjd5jHb72MywEAwLAQAAIACtlvPPsYaf6/ydhzJP1gyVE1nrDm8WpyvMNjKPQhCn0Ag7Jfxn5UZvZNZs3F13A5AAAYJgJAAMBUdvvZqzV794sk/Y6ktYd+WuMJVvyPug/0dzyFPkShD2AwbpE1f6nVs39mHrPhdi4HAADDRgAIAHBirYyuffozNbavkXSG24Pu/T91/5rf4yn0IQp9AINprL8ijd6j0fc+YtZun+OCAAAAiQAQANBkfHnN035MY/MqSS+WdFjxQff+nzrP7P94Cn2IQh9A73v0C5L+TQuj95rHb/w8FwQAAKzsLgAA0JC95unHa0H/TdKvydiHHfzhvf+n7rP5P55CHw0eTqEPICO3SPYDmhn/pXncF77J5QAAAGUIAAEArdlLTlmlYx74fFn765I9o+ajm/zFmr+m0AeFPoBe2SCr/6vRXf/KMl8AAOCCABAA4JW95ulrtLDwSsm8TNJ9K46u++w1D6HQB4U+gN64Q8Z+SJp5n1m78QouBwAAqIMAEAAQhL3m6YdpwT5b1r5CRk8tOKLuM9b8NYU+KPQBZG8saauM+Qft3fshc+q2PVwSAADQBAEgACA4e+UzTpJZ+G+SXiLZB9Z8dINDKPTR2WuuegzhH9DEt2XN+zUzfr9Zs+VbXA4AANAWASAAoDPWnj2ja3adpbFeIdnnSFpd8QiHJ615vNocP+UxFPpYfjzBH1DX92Tsv8uM/kGP23ShMRpzSQAAgC8EgACAKA5WEJ5/iezol2TsjxYcUfEENY9XoOMp9LHyMYR/gKu7ZfVxyZ6n/fs/Y07ddoBLAgAAQiAABABEZ69+6uO0MHqhjHmxNH509QNK/x/Xv+jneAp9rDye8A+o6n0vaKyLZMwHZWb/2azdcDcXBQAAhO+CAACQELv9aWs1M36ZpJdLOmH5L1ccXffZ/R1PoY/lxxP8AdMcLOZhzfkaj88zJ2+5lUsCAAC6RAAIAEiStWfP6Oq7zpTVL8joeRrrQRNH1H1GP8dT6GPlYwj/gKJe9oKstsrYf9H8wkfNyV/8DhcFAADE65oAAJA4a9ePdPWm0zQ2Z0v2BZJ+oMajm/zFmk9FoY8w7wOQXc96r8baLJl/14z5qFmzcQcXBQAApNFNAQAgI9auH+kbFz9JGj1P0nMkPWrK0XWfvcHTUOgjzN8AsulN36ax+XeNxh/X3v2fNadu28NFAQAA6XVZAADImL36qY/U2DxL1j5T0pmSZg/9pu4z1foxhT5Cvm4g+R70DZL5hIw+oVtmN5izNsxzUQAAQNrdFwAAesJe8/TjtbD/mbLmGTJ6qqzu4/CoBr+i0If/5weSNi9pq4w+JY0+btZuvIJLAgAAckIACADoJWvPntE3bn+CrHmqjHmqls0OvPeokgeXPmuTM2l+PLP+gJhukbGfkUaf0IIuMI/f9D0uCQAAyBUBIABgEOyVP3N/GfvTBwNBPV3WPrT4wNJnqPsX2x1PoQ+ga/OSviiZT2isC3TSpq8Yw00NAAD6gQAQADA41sro6rMer4XR02Ts0ySdLqvVUx5R9y+0O55CH0AnTYGkyyR9Tkaf1d59n6eABwAA6CsCQAAAKcAlzzpSR+49TRo/VdJTJZ3y/Xyg1jM1+es1H86SX6CFHZI2yZgLNH/gP8zJX/wOlwQAAAwBASAAABPs1U99pObnz5LMT+ng3oEPdXhU3b9S8+EU+gAauF3SRTLmAo3HnzMnbbmOSwIAAIaIABAAgAr2Gz/7EC0sPEWyT5XRz0p6xMQRdZ+x5kOZ9Qc4ulWyX5JGmw7t4/dVYzTmsgAAgKEjAAQAoKbvB4ILB5cMG/NIx0dO/X+dHhPieII/5OtmSRtlzWZZbaJwBwAAQDECQAAAWrJXnvlDkn5KVmdJ+ilJP1Rw1NT/t/J4+T7+0GMI/5CPsaQrJbtZMltk7SaW9AIAALghAAQAwDN7xU8/XHZ8ukbmibLjJ0p6gnSoyjBLfgFX90j6kmQ3y5gtmlu11fzohru4LAAAAPURAAIAEJi95umHaX7Pj8nan5DME2X1JK3YR1Ci0AeG/DGRdJWM/bJkvqQFs1V3zF5qztowz6UBAABojwAQAIAI7HVPPU77539cVqfL2FNk7ZMl3b/GM9T9iw0eRviHYHZIdpvsaJuMtmlmbot53Jfu4LIAAACEQQAIAEACrNVIV5zxWGn0RMk+UdITJa3R4tLh5UfXfXaCP8R0o6SvSfqqjLbJjL5s1mzcwWUBAADoDgEgAACJshedOasHHniMNLtGsmsPzhTUGkmPrPEshH/o0vKZffbAl8xJX7yFywIAABAXASAAAJmxl/3MgzQz/3hp/ARZPV5Gj5fV4yStWnJUgyyP8A/ObpHs5TK6XFbbNTKX6cBRl5mTP3MPlwYAACA9BIAAAPSA3b52tex9H6eRHi9rHi/ZkyWtkdUPODyaC4gyt0u6UlZXyJjLJHuFZg58nf36AAAA8kIACABAj9lrnn6Y9u7+AY20Vjq0fNjqkTJ6pKRHEv5B0gFJN8rqeo3MFZK2y+h6yWxnrz4AAIB+IAAEAGCg7NdPv69G4x+RGT1KYz1aZvxoyTxKxjxK1h7HFeqV3ZKul9H1GtvrZUYH/7cZXadbRjeYszbMc4kAAAD6iwAQAACsYL9yxvFaNf8ojUaPkPQwyTxU0sM0tg+X0cMkHctVSsrtkr6jgxV3vyWZ70j6toyu135zvfmxjbdxiQAAAIaLABAAANRmLznlOK1e/TAZ8zBp9CCN7A/K2gdJ5gclPUhGPyirB2pZYRI0cLekmyTdIulmGbND4/GtGum7MqPvaH7hO7pb3zKnbd3LpQIAAEAZAkAAABCEtTK6/IkP1Gj2ATL2/hrreFk9UMY8QMY8QNY+QNIDZHR/WR0n6T6SjlNfQ0OjvbLaLZk7JHuHpDtk7B2yo9tl7W0a2Tskc4fs6A6Z+Vu0d+4mc+q2PdxJAAAAaN8VBQAASIi99OeO0mH3HKeF0X20sHCcZkdHyeq+Go8P02h0pMb2WBlzuDQ+WjJHS3aVjDlOVqODT6D7HurlzMhMWapsNaOlS5mtvUsjY5f8fpesFu79/0faLat5STtltSBj75IZzR8M9ex+GbNH0t0aa5dmxrtk7W4tzOzUzMJd2ju325y67QDvLgAAAAAAAAAAAAAAAAAAAAAAAAAAAAAAAAAAAAAAAAAAAAAAAAAAAAAAAAAAAAAAAAAAAAAAAAAAAAAAAAAAAAAAAAAAAAAAAAAAAAAAAAAAAAAAAAAAAAAAAAAAAAAAAAAAAAAAAAAAAAAAAAAAAAAAAAAAAAAAAAAAAAAAAAAAAAAAAAAAAAAAAAAAAAAAAAAAAAAAAAAAAAAAAAAAAAAAAAAAAAAAAAAAAAAAAAAAAAAAAAAAAAAAAAAAAAAAAAAAAAAAAAAAAAAAAAAAAAAAAAAAAAAAAAAAAAAAAAAAAAAAAAAAAAAAAAAAAAAAAAAAAAAAAAAAAAAAAAAAAAAAAAAAAAAAAAAAAAAAAAAAAAAAAAAAAAAAAAAAAAAAAAAAAAAAAAAAAAAAAAAAAAAAAAAAAAAAAAAAAAAAAAAAAAAAAAAAAAAAAAAAAAAAAAAAAAAAAAAAAAAAAAAAAAAAAAAAAAAAAAAAAAAAAAAAAAAAAAAAAAAAAAAAAAAAAAAAAAAAAAAAAAAAAAAAAAAAAAAAAAAAAAAAAAAAAAAAAAAAAAAAAAAAAAAAAAAAAAAAAAAAAAAAAAAAAAAAAAAAAAAAAAAAAAAAAAAAAAAAAAAAAAAAAAAAAAAAAAAAAAAAAAAAAAAAAAAAAAAAAAAAAAAAAAAAAAAAAAAAAAAAAAAAAAAAAAAAAAAAAAAAAAAAAAAAAAAAAAAAAAAAAAAAAAAAAAAAAAAAAAAAAAAAAAAAAAAAAAAAAAAAAAAAAAAAAAAAAAAAAAAAAAAAAAAAAAAAAAAAAAAAAAAAAAAAAAAAAAAAAAAAAAAAAAAAAAAAAAAAAAAAAAAAAAAAAAAAAAAAAAAAAAAAAAAAAAAAAAC4MVwCAABAHyN7lksAAAAAOucAACBYH8Da6vzpjW98I/0OD97whjdUXmxjvF9qAkYAAAA6/wAAIIfv77KgLlY4t337dvoiU6xduzZK8FYWMrYMFgkRAQAAchtAAACAbr+Hi8K7EMGd71Du7LPPrv2YK664YlB9lDVr1tQOx84//3yv5xAibCwKEhuEiASHAAAAXQ48AACAn+/VyTDPR5DXNLirCuiGFsYNRVXo2DRg9BEkTgaHNUNDAkMAAICmAxUAAPiuLLc00Gsb5tUJ8srCu1RDu5tuuune8zrllFO4uxxs27bt3v/9kIc8JMlwqyxMrBsitgkPl4aGNQJDwkIAAMCgBgCAIX8H+pil5xrmFQV5MUK8m266yXQdzO3YsYP+SIETTjih03Bq27ZtUQLGovDQNThsEhg2nF1IUAgAAPo9+AEAoI/fb21m7LmEejECPd/hXdfB3Jo1a5b9/zfffPMg+ikPfvCD7cR90unf9xk0dhEiNg0M64aFDWYUEhICAIB8B0gAAOT2/dU03GsS7IUI9XwEeT7Du8VgLqVA7s4778yqD3O/+90vmXBoMXD0HTS2CRJDBYdNwsI6QWHNkJCAEAAApDmAAgAgxe+nxYDPZ7gXMthrGui1DfFCBne5BXBDFyqAfPCDH2zbBolNgkPfgeFkUBgiJCQgBAAAyQ6wAACI8R3UZAbftIAvRLjXJNRrGuitWbPGS4iXcmi3c+fOFef20Ic+dBAfhBtvvHHFz4477rhkwyAfYWKb4LBuYOgrLKwTEgYICAkHAQBAmMEXAAAhv2fqzuJzDfhihHt1g722gV7XQd7ScK7rUG7Xrl297qsce+yxnQY7S8PGrkPGNsFhk8CwblC4Y8cOryGhj4CQcBAAAAQfmAEA0Pa7xFfI5zPgqxPu1Qn22oR6IQO9xfDOZ3DXVSh3wgknJHEebVWFfDt27EjiPOpYDBJDh4hNQsO6YaFrUOhjJqFLQEg4CAAAOh20AQDg+p1RJ+gLHfK5Bnyhwz3foZ6PIM9HYDYZyuUSwt1zzz1ez/Ooo47KIliZDP18hI1tgsRQwWHdoDBESNg2IPQVDhIMAgCAWoM5AADfDctGizX25QsZ8vkO+OqGez6DvZ07d5omgV7T0G1peBcquPMVtB1//PGD+tDddtttXp4nVDC5NPRrGiI2CQ5vvPFGr2FhnaCwTkgYOiD0EQ46ViwmGAQAYEiDPADAsL8HXGf0hQr6fIZ8dQI+X+Fe3WCvbhjnO8irE9rFCObuvvvuXvZXjj766M7DljpBo48wsU1wWCcw9Dmz0DUkdA0IQ4aDPoNBQkEAAAY48AMADKO9jx30nXDCCZWPqQr5ugz4QgZ7i6Fe00DPNcTzGeCFCOYe8IAHBHndsTQJ0W6//Xbv5+ErbHQNEJuGh4uhX52wsG5Q2DYk9BkQuoSDTYqTEAwCAACnASEAoH9te5uwr03Q5zKbz2Um3/3ud7/gIV+dgM81qGsa7FUFW22DvKbhXVlAl3oQJ0l79uzxco5HHnlk8sFHWQDXJlxsEyJWBYdNAsNjjz3WugaFriFh24Cwy3CwyazBqmCQUBAAgIENEgEAebfjPsK+EDP6fM3maxryuQZ8dcI9n8Fek1CvbpA3GeCFCu58hW1wEyqUnAzm6gaITULDaWFh3aCwzoxCl5CwTUDoEg76CAbbzBhsMluQUBAAgIwHjgCAfNptl7Cvagmv71l9PoK+2CFfk5l7ZWFa3WDPNdTzHeaFCu327dtX+LzHHXccn2i3e7rw54cffniQYKVtmNg0NKwbFpYFhXVCQp8BYehw8M4777QVbZbXYDBgKEggCABACgNJAEC6bXSMmX1tZvWFCvpcQj7fAZ+PcM8l2Fsa6jUN9HwEeZOhXcphXVnAGFuogM6HyVDRx7k2DQ6XBnYuYWGdoLBtSOgaEIYKB6uCwbYzBn2Ggi2XDxMKAgDQ9eASAJBOm9x0dl+TsK/NrL5Ug746IV/bgK8q3Gsb7DUN9ZaGY12EeNPCuBRCxLZhYQqhXtmMwK7Ob+nfb/r3moSFdYJC15CwTUDoEg6mGgxOCwXr7i3YNBQkEAQAIPJgEwAQrw221jYO+6R6gd+0mX1dh31VQZ/LbL7QIZ9rwFc33Ksb7IUM9IrCsTZ/I5WZeccee2yw5961a1f019cm9CsKE32HiG0Cw7pBoWtI2CYgdA0H28wabBIMhgwF68wUbFNo5A1veINlL0EAADoafAIAumtv2wR+KYR9OQV9VSFfiICvTri3GJb5CvXaLuH1Ed5NBm+pLtXNzWSI5iOErBvMhVhCvPR56zxfnZBwMbxrO4Ow6czBtrMGfQeDXYeCzBIEACCxASkAIEwb20Xg13Qpb0phn0vQ1yTkk8qDviZLdF0DPl/hXtNQr0nwtjS8Sym4O+aYY7y9xpDKAqzdu3cneY5NQsQ6IZ2PZcOTz+X6PK4Boa/Zg01mDVbNGEwlFPS1dDhAIEgYCABA3cEpAMBfmxo78Js2u+9+97uft2W808K+GEHftNl8dWbydRXw1Q326oZdi2FeFyHZYkCX6my//fv3tzqvww47LMmgYWkYFjpkXPxbdUPDqsDO16zCEAGhy8zB1ILBXbt2OV+/quXD0yoQl4WCXQWCzA4EAKDhYBUA0LwNrSraESvw8zm7r8uwr2nQV3c2n0vQ1ybkq7Nvn2twFirUCxHgtQ3dUMxnGLkYlvkOD+uGhXVCwjYBoa9w0GXWYN1gMFQoWHemYIhZgq7LhpsEgiwXBgCg5uAVAFCv3aw7yy+nwK/pMl7fYZ+PoC9kyOca8NUJ93wFcMccc0zr5/Id4E0+39FHH03LUnzfL/v/fc8+bPt8hx9+uPUVGNYJCqeFd20CwjozB0MHgz5DQV/Lh30Hgj5mCLJcGACAFgNZAMD0drLuLL+6VXp9B36hZ/d1Hfb5CvpihXw+Zu61maXXJsxb+lifoV2MGYJHHXVUrePvueeezhsfn4Hf0jCxzfM2eayP2YU+AsK24aDPYDDVUNDXLMHUAkFmBwIAQAAIAE5tY+hZfmVVekMHfscee2zpsU0Dv5TCvrpBn0vIFzrgaxLuNQnQ2oZ5Tf5m3dAtlLm5uUbvzerVq5MICpqEkU2Cu7ahYZ3HtA0JXQNC3+Ggj2Cwq1Cw6SxBH3sJNgkE2y4XZu9AAAAqBrkAQHt4aBQwJfRru5dfk1l+04p2uIZ+ZYFf6mGfS9AnNauK2yboaxLy1V2SWzdoWzy+Tqjn+jfaBnhNg7eljjzyyKwbmj179rR+jrZBpGuAWCfAWwwL6waFdUPCJgGhSzgYIxjMNRR0DQSbLBluOzuw6d6BhIEAgEEOeAFgyG1gndAvh1l+ZUt6YwV+vsK+JrP6mgR9XYR8ruFb3WCv6nmbhHl1AjyXoM5HIDgELoFfnWCxSYBYFRq6Bnl1g0LX49qEg22CwVRCwdwDwbIqw13PDiQMBAAMavALAENr91IK/cpm+fko2lEU7PkK/JqGfYeCi9Lf1wn7ug76fId8dQK+ac9XJ9hzCeDKgjzf4d3c3JzJfXafL3v27PG+3Ljs+VyCwzrnMi0odAnzQgSETcLBroLBqlCwzZ6CZaGgj0DQxx6CZYEgYSAAAB0NhAFgCG1dqNCv7tJeH7P8fC7rDR34VYV9ktsy3i7DPtegzzXkaxPwuYZ708K5EIHe7Oys9/7E0GYHhthfcH5+3vo+n2mBoetrKAsJXQNCl+NCBINVS4l9hIIux/qeJRgyEGw7O7DrpcKEgQCAQQ2KAaCvbdy06r1le/qlGPr5nOUXO/DzMbuvLJyrW4zDV9DnMpOvzQy+uuFe3SCt7Uy8roO71GcN+tjzr442QWKTmYdFx7cNCZsEhK4zB0MFg3VCwS5nCYYMBOsuF3adHeirkEiIMHBKNWGCQABAXoNjAOhbuzYt9JPazfars7w3VOjXdpZfnT38ugr8Ugn7XIK+qtl8TWfylYVok2FXnbCtySw9X2FeVUjHXoDFqsIyX+Fik9CwzuzCyecvO++m4WBVqOcya7Dq93VCwSYzBevOEvQdCLruIehrdmCoMLDNMuEmswIlwkAAQKYDZQDoS3sWaolvqqFfyFl+qQZ+XYV9TWf0NQn5mgZ8dWfttQncfMwyrDq3I444YpCN2N69e70uBa47O6/pc5a0Dc7HugSEVc9VNxh0mTHoOxRMNRDscnZgm6XCqYeBBIEAgKwGzACQcxvWZLZfmyW+fQz9qmb5xQj86szu8xH2+Qz6XGbyuYZnrjP4moRxbWYWTpqZmfHatzhw4EDj5+sqSNy7d2/jx65atcprSLCwsOBt378mYaFr6Oc6g3Dp8zWZOdgkGOwiFJw2SzBWIFh3dmDuYWCdJcLMCgQA9G7wDAA5tl119vZrO9svRPXeLkO/Jnv5lYV+IQM/X7P7Yod9dYM+l5CvbjjXNtxrGuhVBXdNw7nclws3neFXFTI2DRLrBoZtQ0KX1+8SDladRyqhoI9ZgiEDwbphoOQWCPoIA9suE65TTZhZgQCAwQ2iASCnNivEMl8fs/1yCf2aLO11Cf1CLukNFfjVCfvaBn0uy3XrhFxNZhMuHlsnhCsL9Fyegz3+wnAJ08qCw7qBYZ2g0GXWXpPX47KsuOpvlz2+TijYZk/B2IFgkzDwUHtocw0DfS8RJggEAPRiMA0AObRTdYO/lGb7HXvssYXHTAZ8XYd+bZf2loV+IQO/HMK+qhl9rsFYk5Cvzsy9yXCvKtQLHegdccQRgwsNV69ebdssJXb9G9N+X/T3XYNC14CwSThYdd5VMwZTCAXbBoJ19hD0EQYeandKZwe6hoEhlgm3WSLcxazAmkGgRBgIAIg1sAaAVNsn1+AvxDLfNnv7hZjtl0ro53tZb9MZfnUCvzrLeF2Dt6pZfaGCPpeQr2jmXlnA5yt0W3x+nyHe/Py8mRKuJNmI7d+/v/R3s7Oz3ot9+AoQpwVuk3/DJSB0CQd9B4NVswWn/b06y4dTCwTLZge6hIFljz/UNnkNA3OaFeiyV2CdWYHsEwgASGaADQCptUtlwV/qy3yLZvv5Dv0ODTS9FPKIFfqtWrUqSuDXNOw7FN5MDQOrXnPdJcNVM/JcZ/C1DeSa7gc4Gd75COymBYIp8hH4TQaKTZ+z7WzDsoAsRDhYNxicFt61mSnoOkuwSSA4LSg8cOBA5TXsMgwMUUAk5qxAgkAAwKAH2gCQSpsUM/hrusw31my/nEI/38t6Qwd+XYV9dYM+3yFf3XBvaQBXJ9BzDe7qhoRtqgWHUHePvWmzBSfuR9vkOeuGhU2rCbuEg1XXZu/evc57/YUMBUMFgiFnB4YIA30VEGm6RNj3rMA6y4O7CgJZGgwA6HywDQAptEW+l/qmFvwdddRRXmf7hQr9JLc9/UKFfm1n+cUI/Fz/RlXYVhX0NQn56uyrVyfcqwr0pj3eZ2h3+OGHJ9Wo7du3z9tzTQvMqoLDquCvSUjYdAZhUWhWJxicFkrWmSnYVSAYcnZgTmGgz1mB99xzT2FAOPmzlINAioUAAJIYdANAzDaoz8FfCnv7VQV/KYd+bWf5hQ782szs8xn2uYZ8rgFf3X336gZ6TUK71Gb61VV3ZuChz2Drv9F0P8K6AWGTcHAyPPMdCoYOBLuaHdhFGNi2gIjvWYF1lgcTBAIAUGPwDQAx2h5rD/ZrXZf7+izukVPwN22Zr+8lvrmGfi4z8JoGfj5m900L++rO6nNZsrsY4NUN+dqEe1Whns8Az3U58erVq4M0ZHNzc07H+Sz4URWIuYaFriGhr3CwbjDYNBT0MUuwSSAYYnZgCmGg71mBBIFrLPsDAgCSGIQDQNftju99/tpW9R1K8Od7tl9ZIY8QoV+Tpb1loZ+PGX4ugV+bmX0us/qqgj6XkM8lmJsW7jUJ9ibPq21Ql0phkLaB32Sw2OT5poVkLiHh5OPrhIOLx/oMBZsuHw45Q9DX7MBQYWBVARGfswL7HgTWKRayY8eO0PsDEgICANoPxAGgq/Ym1nJfgj+34C/UbL+ioLBN6Ndkaa/LLL8mgZ+P2X1VYV/ooK8s4KsT7jUN9VzCuybVg0MvGW6ypNel4Eed0G9pYFjncWXnXhUQLn2c72CwTSjYRSBYFgbu2bOn9He+w8CyYM/3rMAugsBDbb4lCDyIZcEAgM4G5ADQRVsTa9Zf0+W+xx577Irf+yzu0VXwF3qZb+jZfqFm+lWFfk1m+PkM/FzDvrZBn2tQtvTvVoV7ZaFe6MIgTYJCH1wr+U7TpOBHVejXJCAsOo9pwWDVjMFpoWDVOblWJC4LBJssGe4yDHTZM9DHrMBUlgd3EQS6FgvZtWtX0GXBzAYEACQ7KAeAkG2M615/KS/3LQr+ymb99S34q7vM18dsv9RCv7az/KaFidNm9zUN+5oGfYt/b1rAVyfcqxPqNQnvUln6W3BvNhqcuwaJdYp9TDuXxYDQ5XzrBINNQkGXWYIugaDP2YFtwsC6ewZ2NSvQ5/LgVJcGF80GXPz50v8/p9mA7A0IAPA2OAeAUO2L7yW/IWf9tV3uWxX8ScvDvz4Ff75n+6UU+jUJ/KbN8Gsa+PkM+6qCPl8FQlxCvaoQr87+gLECwabLdps+V1VQ2LbQh2sw2DQU9BEIui4Zrjs7MEYYWLVEuM1egQSB4ZYFMxsQAJDlAB0AQrQtdZb8prjXX+hZf0XB36HBoCkYVHe2x5/v4M/H3n5FwV9qoV/VLL9QgV+bsK/t3oF1qwyXnUfVY9rw/Zw+K/u6PGdZYOhapbfg892oyEfTUNBnIBhqdmBXYWDbIPDQd83Sz18SQWCbPQJDLwt2nQ146Dvfy2zALioFEwICABoP0gHAZ7viuuRXcgv/Qi/5ddnrL9Zy3z4Hf1XLfH3P9pubmzNFVXnLlve2Cf1cZ/n5DvzqhH2uQV/dkM81aJymSXjYxtK/FyLgaxLiuR5f9NxNwsEmy3ZdQsG2gWCT2YEphYF1ZgU2XR4cKwj0WSwkldmAKe4NWGNJMCEgAGD6QB0AfLYpsfb7K1ryG7rCbwqz/nws961T3CPF4M/nbL8QoV/dWX5dBH51w76qCr+uAV+TSsGuzx0qHHRVtbR3yf1t6z6Xa1A4eZzr8zQJBbsKBKuCSN9hYApBYNnzhQ4CXYqFzM3NFT5u4rvV+7LgHPYGTCQElAgCAQBlg3UA8NWW5B7+hVrym+qsv7pVfauKe+QQ/DWd7Ve2p1/d0K/tLD/XwK9p2Ocj6HOtFhxylp+vfQV97NfX9G+4Lgt2OYcmwaBLKNg2EEwtDKwzK3Dv3r2FgVyqMwLrFAupCgJTmQ0YslIwISAAoLeDdgBo247kFP65LPk9NHgwJYMHI8Vb8usy62/16tVBl/tWFfeos8efz+Cvaplv3b39ps32a7u8t07o10XgVzfsa1JIpGlBj7ahoK99ANsGfnWDu6LHVT3eda++aaFgyEDQdXZgnTCw7p6BuQaBbYuF+F4WHHI2YM5LggkBAQBJD9wBoE070rfwL+clv6nO+vNR3MNX8Bdytl9KoV+dwK9N2Nck6Ksb7rUNE2Oouzdf0eOqjnf9G01CwSaBoK8w0GVmoOvfmjYr0KWSsOvyYJ9B4J49e5yfK/ayYNfZgLkUCOm6OAh7AgIAOh24A0DbNsSl2i/h370Du8JznBb+xVjy23bWX5PlviGW+taZ8Rcq+IsZ+jWZfcOzwAAALDtJREFU4Vcn7HMN+uosBe66SnAX6lT5dTm2bjDYNBRsEwjGCANTCAJ97hHYZlmwz9mAXS0J3r9/fxL7AvZsJiAhIACAABCAn/bDJfyT/Fb7DbXnX6zw77DDDis996Lwr0mhD59LftvM+pubmzNLw8Gix08M/Ep/72uPPx/BX9PZfmUBWYjQryrwqzqPot9PHuu6HNhnpeDUZgK6hnSTXCr8Tlv22zZkrDpv1zCwzczAaeeQQhBYFAIWnZtUHASmNhvQ55LgohBw8edLvodX/Kzgu7rWkuAhhYBLA0CpPARkKTAAYOoAHgCatB11wj9p+uy/m266yZxyyimTHeJOC34U7fk3tPAv5JLfGLP+fO7xFyv4Cxn6NQ38XGcJNg36poWJLlatWtXo705TFBgdOHCg8fNVhXbT/m7VbLyqMK8qEOwiDEw5CKyzR2BXy4Jd9wYMXSCkixAwxkzAXAqDEAICAJoYcQkAtLG471+VpuFfSee39nnWqfZbV509/4pMC+1Chn/79+83uYZ/MzMzZjK0O3DggKkb/h1xxBGF4d/8/LyZmZlZFv7Nz8+bpbMBy4K5ww8/fFn4t/S8Jp9r9erVK4K6yb9R9Pilf3/ycYvPufizycBr8Wej0WjZ3196/OLPy85vNBpNffzS302eS9k5LT7n0v+Kwr9Vq1Zp1apVMg6m/d3J11j13+Q1WPqfi8XzLghvVPTaJ8+36O8uPb+lj5m8F8qec/I1Tnv8tHtp8lwmj128XydnsR44cMAs/XnZ+RX97cnPxeTnbulnc9rfWPxdUTA8MzNTuKdoUduyeFzR57WsnVl8fNFs6CZt6OSWC5OPX9p2u7b9dY9d/I469thjp37XLX6nuXz/TSr6h7R77rnHLBbbKvtulor/Aa+qDzDZV3joQx+qnTt31v6HhKK+S9E/cN50002Vz73Yp/LVRwMADAMzAAG0ajdyWfrb1b5/Mar9Dm3mX8hZfz6X+/qe8Rditl+dJbnTzrlO5WCXWX2LQZnLbL3FgCjFxnJ2dtYWFegoOu7Qez71uKrZgnUq+taZHVg008/3rECfMwJTng3oa0mwryrBXc8ErLsnYNvqwH0uCsIsQABAXcwABFDHivDPhcu/VBf9i7fPpb8FHfcg+/5NPmZRzGq/Rcr2/Jv2syGGf21m/RU9f5sZf0XnWjQDr+jvls3WW/ocRSGe6yzByd8VPU/ZrL6iGX1FM8GKZsktzkwr+1sx/nM9n6L7oGrG4OR1mDYjr2xWXtnsvoIwaer9UjUrsOg5pt3TdWcEFrUDi5+bULMBp7UpZbMBXZ4n5EzAIlUzAcuqwdf5jln8vpqcCTj5fTXtO3Dx90XfcWWzAF2+o5d+lxc9ZteuXWZyJmBR/6BqFmBR3+Tmm2926uv4mgX4xje+0RT01ZgAAgAEgABQn8vsP6m66m+opb/SweU6IbTd968q/Gv6s6UDM1/VfocQ/hUtq50MK4rCuTrLfYtCvMnnnwxJpi31dQ3+qsKZyd+XPc419HNZxlsn7GsTqnX1n4+wcloo6BIIFt0DRUHvtHMumhVadq9NC+Rc7tXJ+3taUDd5TmX3/eSy4LKQsOyzvvi7PoWARY+dFgIeffTRzsHgvn37jI8QcNp3Wd0Q0MdSYNe+ha+lwHX7REV9qqK+FwAABIAAWosx+6/oX85jzv6bDP/qmDbYcQkIpYOz/+r+Ddfwr0ofw7+64VxR+Ff03EsDkMmfT5tV6Drrryx4aRL8lc1QrDvTryjwmwz9ykKsJiFZ0Z58i3+zq//K9hxsE26WBYJl+wm6zAycDO5cw7WqIHBaEF31+LIQcOnviv5m2WdgWgi49PdDDwGnfTfUDQFT66PU+U5uMwuwSgqzAOv02QAABIAAIBUsGely9l9TXc3+KxtENJ39F2rpr6uq2X+hFA1SqwaurqYt+y372WQwsVST8G9yyW/Z46tm/U0796IQbzI0cXlM1XMt/VnVTL86M87qhH1lYZwkLSwsmMX/Qln6NxYWFkrPp04oWHRtq8LASdOW9roEgdNm9k27t+rMBqz6rBWFgGX3c6gQsOxnVSFgkaI2ImR759K++mzbU5sF6PKdnXIfw6Vv5DoLsKivJpYBA8AgEQACyELTyr+TPyv6F/y2s//q6mK2RK6z/4oUVeFsUu23zLSQr2zwXhX+FYUlZX+zKvyrCl6W/qxOoY6qx5QFl0t/5hL8TV6PshlqZQHY0r9dJ+ibnZ3V7OysJoO6tnv8Tf69xb+z+Lcm/17Zebssn3a53m2CwMl7o2w2YNHz1n3MtHur7LNYFgIWfcaahIBVprUNdasD132OrvYDnPYdkfsswCouewG6/CzUMmBXrrMAAQAgAAQQjM/lv6FMLvFpou7y32l87f3XRh9n/xU9T5ulv1WqwriigMIl5Ch7HteAx/Ucm4SNixZnvK3ocEwJ/sqWJC99zqUBV1kAVxT0FS0/nlwuPE3Z8YvPWxQMToaCS8PAotdTtnx22jUrek+KQsDF99N3CDjt/nN5jEs4Xvb5c6le7aLNUuCqtsl1KXDXswAndTkLsO13W4zvZh99hNDLgF2xDBgAQAAIIItOZJP9/0IuzYmpau+/kFxn/9URc/ZfE66z/8q4zDgsCiKqftZk2W+d55n22EXTwr+inzUN/hbDtcmfly27ndwTsGxGX9F/S4+dtuff0t9NBn6TAWXZ6yvbe6/O9esyBGwbTJf9rOwz0mS5bttZgNP4aFt8zQKc9rM6ewGm/N1VtS9ulRyXAQMA4BMBIAB4GET42v/PxyCnjrrLf13FntXSlmtIV6RJMDHtbzad3RSKj/DP5RpNBlmLwdm04G/xeSaXDC89dmkAt/h80/6bPIeipb1lf7coCFz6Wspea9vrOC0EdH1/Xe/jEPdS1Wcltc98Cuos9U3hO6Lpd1+bfQBzFHKPZLEPIAAMDgEgAHQox32SUhqMolidkLDt7L+uz3epyUBumsmZg0XPNblsuOi/oiBw8jnLAre2ryGEpu9r2XtW9+cpfAZ8XaOc/lEDw1ZSCAQAMDAEgADQocMPP3wQm/Ds2bOHN7tDc3NzzsfOzs7ayeNnZ2ft5PMs/qzouC7Pd6n5+XnnYw8cOHDv/56ZmbFFzzU/P6+ZmRk77b/F4yYtfc6lf8vnawih6fta9p7V/XkKnwFf12j16tVsqoYsvOENb+BeBQAQAAJAXUcfffSKjvRRRx214mdHHnlkYYd7586dU5+/6vc+3X333UGet2hgnNNgef/+/V6fryg8WLVqlXX5m10HKVXKzufAgQOFr3M8HjuFKZM/mwzVFgO3pQHaYkh34MCBe4+fnZ21i8+19OdLQ72lz7sY8JX9N3kOS5/D9e8u/VuTPyt6rW2vY1kg6XIvLR4TMgCue29PflZy+Mx3LdQ/uoT6jmj63Vf0j2hF37VF38k52rZtW8inJxQEgIEhAARQmzHdryR58IMfvKKjer/73W9q5/XGG2/s5fXftWtXtL+9NMRbHHC2DfamDVz37t3r9Ltp5zDtOZrYt2/fvf+7KJioCklcgwbXAKZq9l5RyNJ2FqCPEHA8Hheew9LHLw3SpO8HcJPh3GQQuHgei/9Za5f9bjwe28X/qmYALj126XNYa+3Sv7H0d5NB4eRsw7LXN/n6F9+POtdvWvhXdU+VhX9lj20yY9TlZ2WfkaU/d33upZ/RpZ9dH3y0LdOeo6xtdP0HlsWfLX2emP8Q0/a7q+0/jhX9450Pfe1rAAD6hwAQQFQPechDVnTITzjhhM4GKDt27Gj9HLfffru38yma3eD6s0W7d+9udQ6HHXbYvc99zz33dHYvuA5qm8wGKnqe2dlZOxk0LA0QFn/X5O9NC9imvRaXWYBNQpVUQsDJn8/OztqymW0uQaC11i6drVcU3C0N7CZDu8VwcJqy4yfDxLLQz1prmwR/Ta5ZqPDP5X53+Xsuzzv5GXAJ2ZvOkl187mnB4v79+xst/136+8WQr+i1xJ4t7bONn/bd4+O7LcZ3s48+QtE/Vhb9o2ZR36eoj9RUjH+8BQCkhQAQQDDnn3++t+e64ooraj/muOOOW9FxPvbYY51+tnT50G233eb1unSxD2DR31ga7C39Wd0lXq6zAOfn550HtnVnAS4OpH3MAnSZkTc5cK+aBVgn5JgWApaFeK6hXOgQsGgWmqRlM+Qmr0dRqLV0lt3k3yhaWlu2tHdRWSg4OaOvyX9lewQuhn2LipYKFy0ZrnMtymb9LQaSRfdf0fUuuzfKgryin9edLehyb00L/6rC8RCz/6a1DdPalKLwr+5z1Jn9V6etnWbyO+Luu+8u/d6I8b3m29Lv9qIlw679haK+Rog+TRd9LQBAvxEAAnC1ooNbtKn02rVrV/xszZo1UzvHIfe4CbU0J+Q+gIcffrid/P3k4GrXrl2DngXYxMLCQu2Zc9MCANelwC5hh+8QsMly4MnHTP68bJaaaxA4eR6LIde0AKzonMqW3ZYtwXU1ufef6+OW/q2y8yk696JrURb6lV2LpsHf0ntzWshXZ9nv0ueq+psun7Wy8M8luJx8fFH45zL7r+xnRW1JlViz/6Yt/+1y9t/k8t/J7y+XvXHb7P+X4/Lfqr5RUd+qqA9WUgCE/f8AYIAIAAE04rqUxOVfpl2XATfZB9BlFuCOHTtazwKsu9TIZbZE2/2Ocp0FWPT7ogF33VmAZc/TZilw0xBw8ed1QsDJ0GZaYDE5s6/s8dMeM/nzySCwbGlq0fLUon3zloY4SwOwpb9b+pxVMwSn7fnn8t/k36n7+LKgb1rA2SQAXfraJpUFf5PnUhX8FT3HtDC47LkmPwNlj3cJ/4r+ZtlnwEf4F3rpb1FbVLRnX9XfntbG1tn7L4XZf7GW/5bN/ptc/lvUT6jC8l8AQEoIAAG00uUswKZLZrqaBXj77bd7nQVY9TOXWYBtQsCqWYB9DAHLAoGlIWDVcuDJ308L1xafuyxkLDqnyVBxWvBSNrNvWhA4LXxafEzV3y4LsSbDQJdAcDL0m7Y8t2rGYOj/ys6/zmspCvymhX7TwsSi97sorFv8eZPgr+2sv7Lwb+nvXJcmV4V/Sz+fTcK/hYUFW3fpb6rh39I2vW3452P237Tvsrqz/ybDv6LZfz629rjxxhuDLf91nf239B9Zi/peAAAQAAJoalnnMsYswDvvvDOpWYBtlgIXLfWt+r2vpcCug7uhhYBFwYBLULdv3z6n2YDTArnF5y8KEctmKFaFcYs/WwzHio4tCgKXhoFls/+KAqWqmYFVswPLQsFpgVrVjMGu/6tzPmVhn8ssP5cZkWXv0eRzuezz5/q4abNVq2b9rVq1yk4Gf66B49LPzeTncVqwWBRINln2m2r4V2Ra+Ff2s7rfMXXCv2naLv0t4rL3n8vsv6rwL/TsP5e+1Rve8AZb0FcjKAQAAkAAqB8CLnYwJ3/maxagr6XALrMAXULAKtOWHTUJAV0GSFUh4IEDB5zPv+jY3ELAxcH36tWr7bQgcGFhYcXvFwMB1yXBbWYD1g0Cy2YD1tmrb9py3snZfa4h4uTvqgLBabP2poWCdWYMuoR0Zec3LVCr+3fKlvBOcg37igLGsuW9k69z8nfTZvsVBYbTZgmWBX9F13jyPi6alTct+Jv825Ofk7az/iZ/vnr1ajst/JtsZ1IL/6bt+1cU9JV9X9Q5tiz8K/tuK/v+qpoZ6PIdPG3vv7LvdpfKv1V9irLwz+fsv6o+F3v/AQAmsSEEgNZth7VWb3zjG1e0J9u3b1/2s7PPPluSdMUVV5S2PTfddJM55ZRTJjvjpqBzveJnd955p6kYbJiHPvShk+GZKRgUrPjZPffcc+/Pjj/++BXPfffddy97zAMe8IBlj1kSbJmSwVXpue/bt89I0nHHHbfiZ0sde+yxhT9fMhBe8bv9+/ebJsceddRRRWGFWRJ2rvjZkoG3mfbYpaY9jyTNzMyYgkGpkaQjjjii8vmnPc/8/Lw59N4U/nzp7xb/5sQAuPC8ip5r9erVjf7GtHNb+pxLf1737xf9vurx086l6pwmjyn72y5WrVrV6O9WmQyJisI7V9P2spv2N5c+tur3Zc89rWq0y+NdC9QUFdNxCeWq/r6vvf7K/oavWX979+6dWvAjhWW/h+7joOHf0jCvKvxbPCbk0t+ms/9clv4WBYBFKxiK/pFzx44dU597zZo1dnL2X1kAyOw/AEDpIB4AmrYfdULAaQHgoQ6xKegQewkBjz322BW/nwwBTzjhhMJgsK8h4KFBcGHgd/TRR5ce1yYEnJubM4u/L3v8xICv9PfTQkDJPQg84ogjCn+fWhBY9ByT5zb52DZhYNFjmgSCrs9TJ6Cr+nuxuYZ7S7mEdVXHTPt7bUPDOlWpm1T2rTqHabNuJ49pGvytXr3aea8/qZtZf3v27HEOEUPu+Xeo/Rls+Heoz0D4BwDIfwAPAG3aEJcQ0GUW4KGO8SBDwH379pmlId/k76TlIeDSny95fVNDwGOOOabw901CwEMDqckAYUUIOPnzJYPy5GYDxgwCF5+vKhgLHQYu/V2bQNDluZo8p49ZfDG4BnNVxy4e73JM1XO6hIZdhH5VrymF4G/xmMX/XTf4W/p4X7P+Jp9r2pLfQ+1D9IIfRT+feI9syXfA4MM/qbrwx+LS34kAkPAPAEAACMBfO2Ltwf4lIaBbCHho4Lbi59NCwLLfdx0CTh6bymzAubk5szTsWxQrCFz6tycGxYXnV/S32oSBRec5+fi6geDkY8oe6zIrr84MvrJzazv7rypMrDN7r0jRHoeuz1tnBmGdsK/qOcsCv6LHTVveO/n7ugFkndCv6m91Ffz5XO4bctbfoe+qLKr9Hmr3swz/ivb9ixD+SQSAAAARAALw3I70LQQ8NGDwEgJOPm7JIC9ICHhoUDj1GvhcEnzoWk0O7s3EIK7w54cG5qYk2AgaBE77G4uKZhcuhkdVAdu0WYGHBskrzq/sb7UNAyePKXqOqv0Ayx7ruux32rFVj28T9vmeNdgmGHQN4v5/e2eTJLmtq9GvF3A34CV46v0vwatwRIfHnjjCE7+BQT9azR+ABJXKrHNGXSmSYlVLVOIEII76zfqvyD5Pv5bws7UkJdPvOlZL+tVtRhv2lOO9c83e8WfX3O3iz67XlI0+7J4/VvJr/59NYVj/vCr/WuLPnjXIvwvIPwAACAXuAAAZa8k7ScCdjUEs0HKLwBMSULq3JNiC35QNQq6fVwH8W4pAC6CH0ikiA0ftvOW5GUKwdR7vBh69/p5xTmb2rY7dy+Zriac7xo6KxJHs640RFX6j8+yU99btPNJvdL7I5h7SGfHXOo9dt8vlvvZ8qe/trY0+7ir5jb7vT5rv9jsTf/a3agrB+ucnbPghIf8AAOBA0A4AkLWevLsElN7jvYC94yvZgK8qC75+XgX1aSJQ6su7lfLg0Xh3y8B67IgQHI3pkYKt83mz7HbKhSfi5hGL4UjmVdd3SlmvZ2xv5qBH9l3bjeSkN8vP1qxhu9PSz66fH7L9WnMdjZeZ8dcb73S5r60NL8v6s/X81pLf8nn9M/IPAAA+OmAHAMhcV7wSUDq/O7B9KX/UewGv/QqvzAa0YHerLPja9p1F4Ggcz5hRGVjPoxFcN+c7Oq/nXX07UrA35krGn7d9puTzzmc3u+9yPW2P78kInI27Ivt6Y3reVRgVfp5zZ0s/aZztNxrzRKnvdbwniL8nZ/1Jry35te8ZbPgBAADPD9QBAE6tLZ7dgSWfBPz+/fu3X375RY0v098uX571+++/HysJfvIGIdJ/RWBL+D1RBFrw1/y8EgDuXYM9490pAy3Y/+bJrssWgvU5PFLwOofZ+BE5WMmMUPsdTu4anCkHR+OtbCbSk3x2f08389jZSOSE8KvbvIP0a52rtB+VDV/HvEP8rZT7ls8vz9BHvuvP/mbTkl975qe878++K/yn7a+//qqffvppKv9q8Sf15R9ZfwAAsBykAwCcWl8iElD6eiXB135VEHi0LPgVItACtKtU2BaBo/aeMU/IwN5OwlI/O7A+VgXtP8ynEYh3595jZQOP1nxn5xkJwtG5LnLEtfCclH0evEJwVibsGWck+Kr7d0n01XOczaUlzu4Sfp4dfEu7+ue7pZ9dm6Exv4L4s7X5EVl/Tyz5lZB/AABwKEAHADi5xrzqvYDvlA147Vd4NxHYaz8TgSYd3OXBJgZul4FS/J2Bo3FNDqQKQQvSh7/DbC4j6dYTbSuCcNTXO9enspIh6BF7do+53+M3modX9PXO2ZN91/YZwk/yZfnZ9et+p99o3F5mXq/N5foMjTmTfnafvKTUt3x+eU4Oxd+ozSvEX/n8+tnJrD/7bpJS8ish/wAAICk4BwC4Y615UjaglPNuQAtAtncKluJlwRbkDX+HTBEY3TV4tTzYxMQPMrAn2/76669vtTDsjdMIQodtRtJuJztwNvZICNbHq2ugObdOcN/9XWZ45GBrfqO5rsxjZew78Mq7Hj05NRt7Ju8ikq83D6/oa821d95Twk/KkX6jTL/WOUufnhC8I9uv197ur0eKP3sOvEW5r31vcGX9UfILAACPDcoBAO5ab3oSUHqfbEALHlxlwRaQHBeBd24W0hOBFtSnlQebvAiVCJ+SgVI8O3A2Xs2oZFiKS8Fr25lca4lBT7/eHLLLdqNyb1cmehlJu8794Wq3Uk4cyTjszXsk+q79IiXFHtnnLektbeufd4RfPd5Kee8J6WfX/PEy39JmtrmHPQtTS31tzU8Tf6fLfcn6AwCAjwnIAQDuXndelQ34biLw2q8KOo+KQAue0suD75SBJhzCZcLesU8KwdLXIwVNAEzb9NquykFPX8/cTYhsLS5PKQfe3RgkY6dguy//HqwBob4rom8274jsK+3rnz3C788//5yKOVtL3eetrrewTMyWfr32dl+mZfu1Pr+2Qfz9+52Dd/0BAMDzA3EAgFesPd53A0q+nYLtS/nRsuBPEYG9NtnlwSYFbpOBrWOVkPg2EC/T7MBZO0/JsHRWCpqcWBKDrfZewTeShNGxPHiE365UnDHbzMOuubSA3ZNtOJN7vbGi7w/0ij77fzgu+yRfhp+tme5zX665sEy8U/qtZvuVzy/PueUyX1szj77jz55LR8WffR94SbmvJCH/AADgWBAOAPDKNSi7LPj79+/ffvnllx8+/2QRaMHnt4YQcIlAKS8r8G4ZaDImLTtw1i9DCEp5UrD09/SZlRJf2zXkw/R38eARhjvjP5VoybBX6M3GX9kgpO7nEZlR0Vf61D97ZZ+UI/xac6jugZQsP1uzr/fRI6Vf6/PGsy/8fj/pa4s/iXJfAAB4UPANAPCEteiTRaAFNEsi0ILD4+8JHLV5ggxs9cnKDjTJsSQE63PM2u1IQc/4Lbxy0KSHSxDWbXtkycKJ3HjkwhYVdyOiUq+6nqfiICL4Ct6NOWpaYixL9tXjr8o+u56XhOJqlp+t6y+VfvYMS8/2s7XZVeYr5W7u8WTxJ1HuCwAADwi6AQCetB5lvx/waSKwlxV4FXqnsgJNULyFDCzHTmQHto5dBMqyEKzPM2v7119/fWvJvpoTYrCMFe3rKTGe9RsRGfOpmYGRTL/sjUGuY0bLkFcy+eq+18+uY90l+3rzqa7HNOFna/D1Og5l+fX6SO8l/aR4tl/d9/Jc+SHbr3x+/exdxZ9EuS8AALwg4AYAeNK6FH0/oJQrAlc3C7Hg5Ic2ERFoweRSVuC1bxXEdkWg9GP5b6tdpgw0ETCUfr3Pd7IDpXUhONpheNY3ei5pni0o/SjAeiJxVRCWMVf7X6VfdDff2Xjvwu67AK+ScHW8HblXj3H9LCr5JL/os/VraV51/9HxU8LP1ulwlp/d29O/YVT69Y5d27062y8i/v7444/p3wnxBwAABNoAAG+wPr2zCMzICrRAM/SuQGm9RFh6jQzMzg5s9fMKQQt0h8frY7tSMHK+cnyWMWgCwSUHI/OcsSMLW6yWGT+BUWZf5uYgGVKvHqt3bEXyjXbi7Z13V/bZdbP8fsCTwm/Uz5PlV9plZvrN2kWkn/ScbD9pf1dfxB8AAHxkgA0A8A7rVPY7Au1Lv2vXYAsmlsqDLYhJzQqUzspAKX8DEfs7PEYIWiDabLsjBaVx+bCn/8o5C57MQaldPnuHJOxRzn36PE+jCKcsiTc7T4vWub1lzN53AkYl32zOZZzVzL7R+FfZJz1P+JVj9c+RLL9RuwzpJz0/28+euX83vgNMzxPd3ENC/AEAwIMCawCAd1mzvCJQ8svAlgi0QOAtswItMA3JQAuSt94ZKLUzCHeyA6V1IViO72YJSvtScJYt6Blj9dw1XkFY6L1nz5OF+NVk3l14suqkPbFXiGz6sSL5vL/PKKvPc+7ROSLZfaPjs2Oesl7p/tJeW08eKf3uyvaz571L/Hmy/aTu5h4S4g8AAF4ZTAMAvOPadUIEWnBwS1bgJ8vA0k66XwhK61mCvb6rmYK9NtfjMzHoGWc0j2hfb5lxR3J0z7U65qeIRK+4uzLKDowKvXrM6Hyu7bMl3yyjzzuHDNln6+ay7PNm+JW22cKvtI1m+dl691LpZ8/BW7L9sst8JXb1BQCAhwfRAADvvIaN3hMotWWgRwRmvCvQgpGlEmELgtLLhC2wTdlNWHp/IViOZ0lBKUcMljYn5ODOnHrnX5V7LXZ2982ch4ed0t1Vedebx6pgbPWLyL3ROK1xo+8F7M0nIvqkPdk3658h/Mqx+ucs4Wf3e2j3Xmn9nX62ht8m/U5l+0mU+QIAwIcFzwAAn7Ke3ZkVaEHEx8lAaT07UDonBO1vc6sUtAA41H8kBqU8OSjN3zW4MmZHHKSP2Rrrbnn3FHbkXY8sqTcar8esXLc3Zm9+UdEnvafsk+4RfrZOLWf5lf6dNfrjpJ9EmS8AAHxQwAwA8Gnr2kpWoPQ8GZhVJmyB8nKp8LV/Qyw8XghKcyko7WcL9sZYEYMWxLvbtohIwpXxR2TskPxVGUmvHZEXOU8Lr9zrjb0i+Wz9+eGzmcTbFX1STPaV9ieF36jtTPhJ/iw/yVfaa+vwbdLPnp0vL/GVyPYDAIA3DZQBAD55jTuVFRgpEbYg4zYZaMHQsezA1hiXIP+oEKyPN4LO26VgabMiBi24ns5zJMwySnlXROHO+XbwlEU/gUxR52EnizAi9nrnG/2+nrmtZPPZOjVt4xnntOyzdXx4/Np2J8NPWhd+9RiNNbYp/Mqx62c7G3lI/Uw/e84tST97JvNuPwAA+HrBMQDAV1nr7paB0r2ZgdJ+dqD0TCFY2kprUnB0vIVHDEp5cnA0lkcQSjFJOGvvOdcJEfcVMwOzy3+979mLzGdX7tka0T12l+ST1kSfra3D4411eni81f6Jws/W0FCW34dLPwnxBwAA7xwUAwB8tXXvU2SgBY4fIwSle6SgBa8hKSjlisG63Y4gtODd/TvMJNudpbunROI7sivuWuyUEkfmsiP3bC1xt/W2i4q+0qcn+srxzho8PN5qP2v7ROFXjl0/8wo/Ke+dfieln0SJLwAAfHAgDADwVdfAk+8LtODF/c5AC46643qFYGQjEZtjihC0QP7lUrC0l+4Tg5JfDkpnBKFn3IgoLHil38kdi78q3p11s8Zq3PvD415hd0LwSWuSr/TbEX2jNq0+p2SfrQ23Cz97nmwJP3umud/nZ89N1zmRfgAAAJ3gFwCA9bD6th/IDJRe995AC57eWgi2xrqIjSNSUFoXg7M2PSJyUPILwrqtVxJGzrEiDK/sSr9PyRDcfSdgRnbgTOhJfvlW3ePhfpG2O5LP1rlpmxbRrL7SZ0f22T0Xzu6Tzgu/k1l+9txJ371XQvoBAAAgAAEAHGvjSAZK92cHZpQLW4DXbdsrGe4dq8TCI6SgdL8YtL+pq12PqCCUYpLw2icqC3fOmSERV8nOOMwu0Y3iEXg1UZlX3aPL/aN9VgVf6Wtrk6vdlZWMvrrfu8g+e64Mj195svCz52Eoy0/inX4AAECQCwAAjnXydKlw9N2BFgClCMHoOwQteAsJQSkuBSVf+bDkyxaU+oJvp59H3K2WFdesSEJpTdr1+q+Kw+w5RcgSkFH5tsOquGvcV2ljrvTfkXv1GDPBV9oN1rhpm51+O6LP7iu37KvH66w14ew+W+vdf5vMsl7vu/zsmZdV2ish/QAA4KsGtgAA4F83ZzJQOpcdKJ0vGV4RgjbnR0lB6UzGYN2v/DtDEHrbzvjf//63PVa2oLuOlyUSP5Va3El5QjBjvCLDdsVePVaW4Ju1G/X39JuJPuk5sq8cb30eye6TcjP87Bm2JfwkSnsBAACWAlkAANhbQ6PZgdJ7CUELkI9IQSlWPizdJwaldTlY+pZ/z8bwyrpMUVjIEIYt7szy+0pky8BMoXcd0yP26vaTNcjdttff2/e06JNiZbx27y/JPvt/SMnuezPhJyH9AAAAEIAAACfX1Oi7A6V7SoYtuEsRghZwht4lWAWKYSko7YvB3rhXInJQipcVX/t7x4gKuhOysMUpgbjLKQGZLeB2OSHwRufxSr1rvxG7GXz1GCckn5Qn+q7jdu7dW2SfPRPC5by2jr9E+Em8yw8AAGArWAUAgDPr60q5sHSfEMzMErTAdNh+9E7B0fFCphiU4nJQuk8QXseJjLUq4+6ShhGKYMz6HU/TE1CnBd3KHKMyb/Y7XskQe9exIuNkST7pnOizNXp4fLCepsm+UXafrdHH3uEnzYWfRJYfAABASoAKAAD3rLd3CUEL2MJlwxakpUrBUfmwBbHDbMFZG2lNDEr5clDyC0IpTxJexyus7oa8Q5GImWPCP9Tya1XejcZ03MvLfT3jZsu9Qpbkk86IvrpNi+g7+6Qzss9+B/c8EH4AAAAPDEgBAOA16++dQnCUJWiB3W1S0IL+ZTFoQeq0jbQuB6UzglCKSUJpLQtwZeyMc7xS+tXy8Q6yJNwKO/LtKvJ2x5udJzp2RO5JuYJPWpN8dv1tiT67psL/D6dkXyS7z54TCD8AAICnB6AAAPCcNflTpKD0OjHoaSf1xV2GIJT2JKEUF4WFk8JwdK4rp8+9Oq8dToiywL3x0nntbsQRFXuSX+5Je4Lveq4eHslXtxusY6miT/oI2Sch/AAAAM4GmwAA8Nw1elUISvdLQQtSp+c6IQYtqE6Tg9K+IJTmklDaF4XSuiysuVMcZs3zibxSEjruo9R5rkg96UfZliX3pD3BJ+VJvpXSXVtDp31GG3TYWpcu+ySy+wAAAN4+uAQAgPdas3ezBKWYFLSActj+VWJQypGD9ju620pjWReRhFJcFM7O7yVDHLbILi3+itxVqiuti7yaqNQrZMi91vlHzHbarduNjq9KPlsTj4o+W5dDczso+ySEHwAAwDOCSQAAeO91/O5MQWmeLWgB6LdJwDktJbZA+JgclM4IwkKmKJR8srBwlYaz+axySiTCmAxxd6Ul0rwyT4oJvUKW2JP8GXx12xE7kk+6R/RFs/ps7e2W8UrIPgAAgI8NHAEA4PPWdo8UlPKzBe8UgxY8Lz/bMgWhBeqh9jUzMbciCwsRaVjTEoieub6S0zLyhHTLoifLIgKvZkXmFUZSbzTXERG5V7cfsSv4JJ/km72jz9aPY6JPimf1Scg+AACAjwsSAQDga6z3O1JQ2hODFuBO+zxFDkp+QViIiL8dWSj5JNyONLyyKhFH9ATjzu/8BFbk1qqk67Ej767MZN7q71w4IfYKdwk+KUfySWuiz9bG5aw+CdkHAADwJQJCAAD42s+BV4tBT9agCYLp2HcKQukfSShJp0ShSYOlfi2iEi1TIno4IRqfRKaY8+CRdzU7Iq8QFXrXfl4y5J7kF3y2ZvztuF+PSz5pX/RJyD4AAIAvF/gBAADPhh+iv7//P/57lRiUcuWgBdBuQWgBf8qzc0UUFlbFX6Y4bJGVkXe3ZHwKUTnXI0PatVgVedf+EX777TdJShF7UkzueTL4qnvrmOSzdWpb9Elk9QEAABDkAQAALD4zImJQOisHLRB39T0lCKU8SVizIwwLGeKvSMSs8U5yV4nwKeGWRS3eVuXdaMwI2UKvJiL3pHzBZ3/f5d8rW/JJiD4AAACYBHMAAAAZzxJvKbHUF4NSnhyU/BmEFsy7z7UiCqUzsrAmQxzW3CX9atH4ynlkMRNmWWJudx4RskpuR0SlnhQTe3atuc+xI/hsnZhKPiktm09C9AEAAMAsaAMAADj5nInIQemZgtCEQOh8P//8syQtyULpvDBskS0Rvbyb5FslU8p5KFl4ko4LvCsrQk/6R+rZ/R3qF5F7OyW61f2dJvgksvkAAADghsAMAADgVc+gqByU7hOEhagolOKyUNoXhjWvkIceimCsuVs2vppayhXulnNeViVezarQk2JST8oRe9X96BJ8UlzykckHAAAALwm+AAAAnvh8ir5zsDAShNIZSSiticLCijAsZIrDFk+VidAmQ9q12BF5hajQK2SKPbtn0uWe5M7ik5B8AAAA8IoACwAA4F2fXysZhFJMEkq5orCwIwwLO+LwymmRuMK7ysdTEm6FDHF3ZVXkFbKFXnUN/2fMTLknIfgAAADgAwIoAACAT3y+rWYRFmaiULpHFtZkiMMrmSJxRhGNhScJxzsoQq66Xm49/668qzkl8i7XS0jqSXGxJ4XknoTgAwAAgHcNkAAAAL7yM3BXFEo+WSj9KAyl89Lwyvfv379JUrZIHHGnZHxHMsXcjF9//VWSjsu7K1eZJ/mEnrQm9aSw2JOQewAAAPDpwQ8AAADPyjkZslDyC8NCSxxK98tDD0UwSvdKxk+gyDnpfkHnoSXxJL/IK6wKPem/Uk9C7AEAAACEgxoAAADIe67WslDaE4Y1UXlY6ElE6ZkiEfLoibtCVOBJexKvZlHo/Xub8b8LAAAAEAxUAAAA4PXP4as4lPLkYc2qSGwxkos9vqp0nMm4FiuCrkeWuKu5SjwpLPIkZB4AAADAvYEHAAAAvO/zuyUQpTMS0UOmaPxkTog5Dy15Jy0JvH8vQf43AQAAAN4ogAAAAAC+AxR6YrHmVZLxU+nJuf/8B39L/ZMj7wAAAAD48g8AAADA94sXg6QDAAAAAAAAAAAAAAAAAAAAAAAAAAAAAAD4GP4Pd42dzMi6aHYAAAAldEVYdGRhdGU6Y3JlYXRlADIwMjQtMDctMThUMDQ6MTk6MzcrMDA6MDBYvI1EAAAAJXRFWHRkYXRlOm1vZGlmeQAyMDI0LTA3LTE4VDA0OjE5OjM3KzAwOjAwKeE1+AAAAABJRU5ErkJggg==;" vertex="1" parent="DnVlFltGNtRPwftVO5e9-28">
          <mxGeometry width="64.5" height="70.81" as="geometry" />
        </mxCell>
        <mxCell id="DnVlFltGNtRPwftVO5e9-27" value="Python" style="text;html=1;align=center;verticalAlign=middle;whiteSpace=wrap;rounded=0;" vertex="1" parent="DnVlFltGNtRPwftVO5e9-28">
          <mxGeometry x="2.25" y="70.80999999999995" width="60" height="30" as="geometry" />
        </mxCell>
        <mxCell id="DnVlFltGNtRPwftVO5e9-29" value="" style="edgeStyle=orthogonalEdgeStyle;html=1;endArrow=block;elbow=vertical;startArrow=block;startFill=1;endFill=1;strokeColor=#545B64;rounded=0;exitX=0.5;exitY=1;exitDx=0;exitDy=0;" edge="1" parent="DnVlFltGNtRPwftVO5e9-2" source="DnVlFltGNtRPwftVO5e9-14" target="DnVlFltGNtRPwftVO5e9-15">
          <mxGeometry width="100" relative="1" as="geometry">
            <mxPoint x="160" y="350" as="sourcePoint" />
            <mxPoint x="260" y="350" as="targetPoint" />
          </mxGeometry>
        </mxCell>
        <mxCell id="DnVlFltGNtRPwftVO5e9-32" value="" style="group" vertex="1" connectable="0" parent="DnVlFltGNtRPwftVO5e9-2">
          <mxGeometry x="224" y="320" width="60" height="79" as="geometry" />
        </mxCell>
        <mxCell id="DnVlFltGNtRPwftVO5e9-30" value="" style="sketch=0;outlineConnect=0;fontColor=#232F3E;gradientColor=none;fillColor=#ED7100;strokeColor=none;dashed=0;verticalLabelPosition=bottom;verticalAlign=top;align=center;html=1;fontSize=12;fontStyle=0;aspect=fixed;pointerEvents=1;shape=mxgraph.aws4.container_registry_image;" vertex="1" parent="DnVlFltGNtRPwftVO5e9-32">
          <mxGeometry x="6" width="48" height="48" as="geometry" />
        </mxCell>
        <mxCell id="DnVlFltGNtRPwftVO5e9-31" value="Myotube Image" style="text;html=1;align=center;verticalAlign=middle;whiteSpace=wrap;rounded=0;" vertex="1" parent="DnVlFltGNtRPwftVO5e9-32">
          <mxGeometry y="49" width="60" height="30" as="geometry" />
        </mxCell>
        <mxCell id="DnVlFltGNtRPwftVO5e9-36" value="" style="group" vertex="1" connectable="0" parent="DnVlFltGNtRPwftVO5e9-2">
          <mxGeometry x="140" y="320" width="60" height="80" as="geometry" />
        </mxCell>
        <mxCell id="DnVlFltGNtRPwftVO5e9-34" value="" style="dashed=0;outlineConnect=0;html=1;align=center;labelPosition=center;verticalLabelPosition=bottom;verticalAlign=top;shape=mxgraph.weblogos.json" vertex="1" parent="DnVlFltGNtRPwftVO5e9-36">
          <mxGeometry x="5" width="50" height="50" as="geometry" />
        </mxCell>
        <mxCell id="DnVlFltGNtRPwftVO5e9-35" value="Json Data" style="text;html=1;align=center;verticalAlign=middle;whiteSpace=wrap;rounded=0;" vertex="1" parent="DnVlFltGNtRPwftVO5e9-36">
          <mxGeometry y="50" width="60" height="30" as="geometry" />
        </mxCell>
        <mxCell id="DnVlFltGNtRPwftVO5e9-43" value="" style="shape=image;verticalLabelPosition=bottom;labelBackgroundColor=default;verticalAlign=top;aspect=fixed;imageAspect=0;image=https://upload.wikimedia.org/wikipedia/commons/thumb/a/ab/TensorFlow_logo.svg/1280px-TensorFlow_logo.svg.png;" vertex="1" parent="DnVlFltGNtRPwftVO5e9-2">
          <mxGeometry x="145.25" y="662.8" width="138.75" height="88.8" as="geometry" />
        </mxCell>
        <mxCell id="DnVlFltGNtRPwftVO5e9-55" value="" style="group" vertex="1" connectable="0" parent="DnVlFltGNtRPwftVO5e9-2">
          <mxGeometry x="290" y="180" width="84" height="105" as="geometry" />
        </mxCell>
        <mxCell id="DnVlFltGNtRPwftVO5e9-53" value="" style="shape=image;verticalLabelPosition=bottom;labelBackgroundColor=default;verticalAlign=top;aspect=fixed;imageAspect=0;image=https://upload.wikimedia.org/wikipedia/commons/thumb/f/f5/Typescript.svg/1280px-Typescript.svg.png;" vertex="1" parent="DnVlFltGNtRPwftVO5e9-55">
          <mxGeometry width="84" height="84" as="geometry" />
        </mxCell>
        <mxCell id="DnVlFltGNtRPwftVO5e9-54" value="TypeScript" style="text;html=1;align=center;verticalAlign=middle;whiteSpace=wrap;rounded=0;" vertex="1" parent="DnVlFltGNtRPwftVO5e9-55">
          <mxGeometry x="12" y="75" width="60" height="30" as="geometry" />
        </mxCell>
        <mxCell id="DnVlFltGNtRPwftVO5e9-1" value="AWS Architecture" style="points=[[0,0],[0.25,0],[0.5,0],[0.75,0],[1,0],[1,0.25],[1,0.5],[1,0.75],[1,1],[0.75,1],[0.5,1],[0.25,1],[0,1],[0,0.75],[0,0.5],[0,0.25]];outlineConnect=0;gradientColor=none;html=1;whiteSpace=wrap;fontSize=12;fontStyle=0;container=0;pointerEvents=0;collapsible=0;recursiveResize=0;shape=mxgraph.aws4.group;grIcon=mxgraph.aws4.group_aws_cloud_alt;strokeColor=#232F3E;fillColor=none;verticalAlign=top;align=left;spacingLeft=30;fontColor=#232F3E;dashed=0;movable=1;resizable=1;rotatable=1;deletable=1;editable=1;locked=0;connectable=1;" vertex="1" parent="1">
          <mxGeometry x="5" y="7" width="1160" height="820" as="geometry" />
        </mxCell>
        <mxCell id="DnVlFltGNtRPwftVO5e9-37" value="&lt;b&gt;&lt;font color=&quot;#000000&quot;&gt;Storage&lt;/font&gt;&lt;/b&gt;" style="outlineConnect=0;gradientColor=none;html=1;whiteSpace=wrap;fontSize=12;fontStyle=0;strokeColor=#879196;fillColor=none;verticalAlign=top;align=center;fontColor=#879196;dashed=1;spacingTop=3;" vertex="1" parent="1">
          <mxGeometry x="1980" y="40" width="270" height="170" as="geometry" />
        </mxCell>
        <mxCell id="DnVlFltGNtRPwftVO5e9-38" value="&lt;b&gt;&lt;font color=&quot;#000000&quot;&gt;Database&lt;/font&gt;&lt;/b&gt;" style="outlineConnect=0;gradientColor=none;html=1;whiteSpace=wrap;fontSize=12;fontStyle=0;strokeColor=#879196;fillColor=none;verticalAlign=top;align=center;fontColor=#879196;dashed=1;spacingTop=3;" vertex="1" parent="1">
          <mxGeometry x="1970" y="270" width="290" height="270" as="geometry" />
        </mxCell>
        <mxCell id="DnVlFltGNtRPwftVO5e9-39" value="Amazon RDS" style="sketch=0;outlineConnect=0;fontColor=#232F3E;gradientColor=none;strokeColor=#ffffff;fillColor=#232F3E;dashed=0;verticalLabelPosition=middle;verticalAlign=bottom;align=center;html=1;whiteSpace=wrap;fontSize=10;fontStyle=1;spacing=3;shape=mxgraph.aws4.productIcon;prIcon=mxgraph.aws4.rds;container=0;" vertex="1" parent="1">
          <mxGeometry x="2070" y="300" width="80" height="100" as="geometry" />
        </mxCell>
        <mxCell id="DnVlFltGNtRPwftVO5e9-42" value="" style="group" vertex="1" connectable="0" parent="1">
          <mxGeometry x="2070" y="414" width="72" height="103" as="geometry" />
        </mxCell>
        <mxCell id="DnVlFltGNtRPwftVO5e9-40" value="" style="shape=image;verticalLabelPosition=bottom;labelBackgroundColor=default;verticalAlign=top;aspect=fixed;imageAspect=0;image=https://upload.wikimedia.org/wikipedia/commons/thumb/2/29/Postgresql_elephant.svg/1280px-Postgresql_elephant.svg.png;" vertex="1" parent="DnVlFltGNtRPwftVO5e9-42">
          <mxGeometry width="72" height="74.22" as="geometry" />
        </mxCell>
        <mxCell id="DnVlFltGNtRPwftVO5e9-41" value="PostgreSQL" style="text;html=1;align=center;verticalAlign=middle;whiteSpace=wrap;rounded=0;" vertex="1" parent="DnVlFltGNtRPwftVO5e9-42">
          <mxGeometry x="12" y="73" width="60" height="30" as="geometry" />
        </mxCell>
        <mxCell id="DnVlFltGNtRPwftVO5e9-44" value="" style="edgeStyle=orthogonalEdgeStyle;html=1;endArrow=block;elbow=vertical;startArrow=block;startFill=1;endFill=1;strokeColor=#545B64;rounded=0;entryX=0;entryY=0.5;entryDx=0;entryDy=0;" edge="1" parent="1" source="DnVlFltGNtRPwftVO5e9-15" target="DnVlFltGNtRPwftVO5e9-38">
          <mxGeometry width="100" relative="1" as="geometry">
            <mxPoint x="1730" y="540" as="sourcePoint" />
            <mxPoint x="1830" y="540" as="targetPoint" />
            <Array as="points">
              <mxPoint x="1810" y="670" />
              <mxPoint x="1810" y="405" />
            </Array>
          </mxGeometry>
        </mxCell>
        <mxCell id="DnVlFltGNtRPwftVO5e9-45" value="&lt;b&gt;Amazon S3&lt;/b&gt;" style="outlineConnect=0;fontColor=#232F3E;gradientColor=#60A337;gradientDirection=north;fillColor=#277116;strokeColor=#ffffff;dashed=0;verticalLabelPosition=bottom;verticalAlign=top;align=center;html=1;fontSize=12;fontStyle=0;aspect=fixed;shape=mxgraph.aws4.resourceIcon;resIcon=mxgraph.aws4.s3;labelBackgroundColor=#ffffff;container=0;" vertex="1" parent="1">
          <mxGeometry x="2076" y="80" width="78" height="78" as="geometry" />
        </mxCell>
        <mxCell id="DnVlFltGNtRPwftVO5e9-46" value="" style="edgeStyle=orthogonalEdgeStyle;html=1;endArrow=block;elbow=vertical;startArrow=block;startFill=1;endFill=1;strokeColor=#545B64;rounded=0;entryX=0;entryY=0.5;entryDx=0;entryDy=0;" edge="1" parent="1" source="DnVlFltGNtRPwftVO5e9-15" target="DnVlFltGNtRPwftVO5e9-37">
          <mxGeometry width="100" relative="1" as="geometry">
            <mxPoint x="1630" y="645" as="sourcePoint" />
            <mxPoint x="1980" y="415" as="targetPoint" />
            <Array as="points">
              <mxPoint x="1796" y="646" />
              <mxPoint x="1796" y="125" />
            </Array>
          </mxGeometry>
        </mxCell>
        <mxCell id="DnVlFltGNtRPwftVO5e9-49" value="&lt;b&gt;&lt;font color=&quot;#000000&quot;&gt;Monitoring&lt;/font&gt;&lt;/b&gt;" style="outlineConnect=0;gradientColor=none;html=1;whiteSpace=wrap;fontSize=12;fontStyle=0;strokeColor=#879196;fillColor=none;verticalAlign=top;align=center;fontColor=#879196;dashed=1;spacingTop=3;" vertex="1" parent="1">
          <mxGeometry x="1980" y="590" width="270" height="170" as="geometry" />
        </mxCell>
        <mxCell id="DnVlFltGNtRPwftVO5e9-47" value="&lt;b&gt;Amazon&lt;br&gt;CloudWatch&lt;/b&gt;" style="outlineConnect=0;fontColor=#232F3E;gradientColor=#F34482;gradientDirection=north;fillColor=#BC1356;strokeColor=#ffffff;dashed=0;verticalLabelPosition=bottom;verticalAlign=top;align=center;html=1;fontSize=12;fontStyle=0;aspect=fixed;shape=mxgraph.aws4.resourceIcon;resIcon=mxgraph.aws4.cloudwatch;labelBackgroundColor=#ffffff;container=0;" vertex="1" parent="1">
          <mxGeometry x="2076" y="636" width="78" height="78" as="geometry" />
        </mxCell>
        <mxCell id="DnVlFltGNtRPwftVO5e9-52" value="" style="edgeStyle=orthogonalEdgeStyle;html=1;endArrow=block;elbow=vertical;startArrow=block;startFill=1;endFill=1;strokeColor=#545B64;rounded=0;" edge="1" parent="1" source="DnVlFltGNtRPwftVO5e9-2" target="DnVlFltGNtRPwftVO5e9-49">
          <mxGeometry width="100" relative="1" as="geometry">
            <mxPoint x="1610" y="680" as="sourcePoint" />
            <mxPoint x="1980" y="415" as="targetPoint" />
            <Array as="points">
              <mxPoint x="1890" y="710" />
              <mxPoint x="1890" y="710" />
            </Array>
          </mxGeometry>
        </mxCell>
      </root>
    </mxGraphModel>
  </diagram>
</mxfile>
